<?xml version="1.0"?>
<svg xmlns="http://www.w3.org/2000/svg" xmlns:xlink="http://www.w3.org/1999/xlink" version="1.1" id="Capa_1" x="0px" y="0px" viewBox="0 0 512 512" style="enable-background:new 0 0 512 512;" xml:space="preserve" width="512px" height="512px" class=""><g><rect style="fill:#54D3C2" width="405.333" height="512" data-original="#F3F3F3" class="" data-old_color="#F3F3F3"/><g>
	<rect x="58.667" y="55.467" style="fill:#FFFFFF" width="288" height="21.333" data-original="#CED6E0" class="" data-old_color="#CED6E0"/>
	<rect x="58.667" y="129.067" style="fill:#FFFFFF" width="288" height="21.333" data-original="#CED6E0" class="" data-old_color="#CED6E0"/>
	<rect x="58.667" y="203.733" style="fill:#FFFFFF" width="288" height="21.333" data-original="#CED6E0" class="" data-old_color="#CED6E0"/>
	<rect x="58.667" y="277.333" style="fill:#FFFFFF" width="288" height="21.333" data-original="#CED6E0" class="" data-old_color="#CED6E0"/>
	<rect x="58.667" y="350.933" style="fill:#FFFFFF" width="119.467" height="21.333" data-original="#CED6E0" class="" data-old_color="#CED6E0"/>
</g><g>
	<path style="fill:#FFFFFF" d="M125.867,440.533c-9.6,0-25.6-6.4-34.133-14.933c-4.267-4.267-8.533-6.4-10.667-6.4   c-3.2,1.067-5.333,8.533-6.4,12.8c0,4.267-2.133,5.333-5.333,5.333c-2.133,0-4.267-2.133-4.267-5.333   c0-2.133,2.133-17.067,11.733-20.267c6.4-2.133,12.8,1.067,20.267,8.533c5.333,5.333,14.933,9.6,21.333,10.667   c-3.2-3.2-4.267-5.333-4.267-8.533c0-2.133,2.133-5.333,8.533-7.467c9.6-3.2,28.8-3.2,35.2,4.267   c7.467,7.467,11.733,8.533,13.867,8.533c1.067,0,2.133,0,4.267-3.2c1.067-2.133,4.267-2.133,6.4-1.067   c2.133,1.067,2.133,4.267,1.067,6.4c-3.2,5.333-7.467,6.4-10.667,6.4c-6.4,1.067-12.8-3.2-21.333-11.733   c-2.133-2.133-8.533-3.2-17.067-3.2c-5.333,0-9.6,1.067-10.667,2.133c0,0,1.067,1.067,2.133,2.133   c4.267,3.2,7.467,6.4,7.467,10.667c0,1.067-1.067,3.2-4.267,5.333C128,440.533,126.933,440.533,125.867,440.533z" data-original="#415A6B" class="" data-old_color="#415A6B"/>
	<rect x="54.4" y="450.133" style="fill:#FFFFFF" width="141.867" height="8.533" data-original="#415A6B" class="" data-old_color="#415A6B"/>
</g><polygon style="fill:#F05540;" points="411.733,273.067 505.6,482.133 462.933,477.867 438.4,512 344.533,304 " data-original="#F05540" class=""/><polygon style="fill:#F3705A;" points="396.8,273.067 302.933,482.133 345.6,477.867 370.133,512 464,304 " data-original="#F3705A" class=""/><path style="fill:#F7B64C" d="M512,292.267c0,10.667-17.067,19.2-20.267,28.8s6.4,26.667,0,35.2  c-6.4,8.533-24.533,4.267-33.067,10.667c-8.533,6.4-10.667,24.533-20.267,28.8c-9.6,3.2-22.4-10.667-33.067-10.667  s-23.467,13.867-33.067,10.667c-9.6-3.2-11.733-22.4-20.267-28.8c-8.533-6.4-26.667-2.133-33.067-10.667  c-6.4-8.533,3.2-24.533,0-35.2c-3.2-9.6-20.267-18.133-20.267-28.8s17.067-19.2,20.267-28.8c3.2-9.6-6.4-26.667,0-35.2  c6.4-8.533,24.533-4.267,33.067-10.667s10.667-24.533,20.267-28.8c9.6-3.2,22.4,10.667,33.067,10.667S428.8,185.6,438.4,188.8  c9.6,3.2,11.733,22.4,20.267,28.8c8.533,6.4,26.667,2.133,33.067,10.667c6.4,8.533-3.2,24.533,0,35.2  C494.933,274.133,512,281.6,512,292.267z" data-original="#F7B64C" class="active-path"/><circle style="fill:#FFD15C" cx="404.267" cy="292.267" r="58.667" data-original="#FFD15C" class=""/></g> </svg>
