<svg width="21" height="20" viewBox="0 0 21 20" fill="none" xmlns="http://www.w3.org/2000/svg">
<path fill-rule="evenodd" clip-rule="evenodd" d="M3.33333 7.08333C3.33333 9.61464 5.38536 11.6667 7.91667 11.6667C10.448 11.6667 12.5 9.61464 12.5 7.08333C12.5 4.55203 10.448 2.5 7.91667 2.5C5.38536 2.5 3.33333 4.55203 3.33333 7.08333ZM14.5833 19.1667C15.2737 19.1667 15.8333 18.607 15.8333 17.9167V16.5278C15.8333 14.2478 13.736 12.5 11.25 12.5H4.58333C2.0973 12.5 0 14.2478 0 16.5278V17.9167C0 18.607 0.559644 19.1667 1.25 19.1667H14.5833ZM11.25 11.3542C12.9572 10.6875 14.1667 9.02665 14.1667 7.08333C14.1667 5.14001 12.9572 3.47917 11.25 2.81245C11.7666 2.61072 12.3287 2.5 12.9167 2.5C15.448 2.5 17.5 4.55203 17.5 7.08333C17.5 9.61464 15.448 11.6667 12.9167 11.6667C12.3287 11.6667 11.7666 11.5559 11.25 11.3542ZM17.5 17.9167C17.5 18.607 16.9404 19.1667 16.25 19.1667H19.5833C20.2737 19.1667 20.8333 18.607 20.8333 17.9167V16.5278C20.8333 14.2478 18.736 12.5 16.25 12.5H12.9167C15.4027 12.5 17.5 14.2478 17.5 16.5278V17.9167Z" fill="#54D3C2"/>
<mask id="mask0" mask-type="alpha" maskUnits="userSpaceOnUse" x="0" y="2" width="21" height="18">
<path fill-rule="evenodd" clip-rule="evenodd" d="M3.33333 7.08333C3.33333 9.61464 5.38536 11.6667 7.91667 11.6667C10.448 11.6667 12.5 9.61464 12.5 7.08333C12.5 4.55203 10.448 2.5 7.91667 2.5C5.38536 2.5 3.33333 4.55203 3.33333 7.08333ZM14.5833 19.1667C15.2737 19.1667 15.8333 18.607 15.8333 17.9167V16.5278C15.8333 14.2478 13.736 12.5 11.25 12.5H4.58333C2.0973 12.5 0 14.2478 0 16.5278V17.9167C0 18.607 0.559644 19.1667 1.25 19.1667H14.5833ZM11.25 11.3542C12.9572 10.6875 14.1667 9.02665 14.1667 7.08333C14.1667 5.14001 12.9572 3.47917 11.25 2.81245C11.7666 2.61072 12.3287 2.5 12.9167 2.5C15.448 2.5 17.5 4.55203 17.5 7.08333C17.5 9.61464 15.448 11.6667 12.9167 11.6667C12.3287 11.6667 11.7666 11.5559 11.25 11.3542ZM17.5 17.9167C17.5 18.607 16.9404 19.1667 16.25 19.1667H19.5833C20.2737 19.1667 20.8333 18.607 20.8333 17.9167V16.5278C20.8333 14.2478 18.736 12.5 16.25 12.5H12.9167C15.4027 12.5 17.5 14.2478 17.5 16.5278V17.9167Z" fill="white"/>
</mask>
<g mask="url(#mask0)">
</g>
</svg>
