<svg width="22" height="21" viewBox="0 0 22 21" fill="none" xmlns="http://www.w3.org/2000/svg">
<path fill-rule="evenodd" clip-rule="evenodd" d="M10.8333 2.08333C10.8333 0.93274 11.7661 0 12.9167 0C14.0673 0 15 0.93274 15 2.08333V2.5H6.66667V2.08333C6.66667 0.93274 7.59941 0 8.75 0C9.90059 0 10.8333 0.93274 10.8333 2.08333ZM10 4.16667V9.16667H1.66667C0.746192 9.16667 0 8.42048 0 7.5V5.83333C0 4.91286 0.746192 4.16667 1.66667 4.16667H10ZM20 4.16667H11.6667V9.16667H20C20.9205 9.16667 21.6667 8.42048 21.6667 7.5V5.83333C21.6667 4.91286 20.9205 4.16667 20 4.16667ZM10 10.8333V20.8333H4.16667C2.78595 20.8333 1.66667 19.714 1.66667 18.3333V10.8333H10ZM20 10.8333H11.6667V20.8333H17.5C18.8807 20.8333 20 19.714 20 18.3333V10.8333Z" fill="#54D3C2"/>
<mask id="mask0" mask-type="alpha" maskUnits="userSpaceOnUse" x="0" y="0" width="22" height="21">
<path fill-rule="evenodd" clip-rule="evenodd" d="M10.8333 2.08333C10.8333 0.93274 11.7661 0 12.9167 0C14.0673 0 15 0.93274 15 2.08333V2.5H6.66667V2.08333C6.66667 0.93274 7.59941 0 8.75 0C9.90059 0 10.8333 0.93274 10.8333 2.08333ZM10 4.16667V9.16667H1.66667C0.746192 9.16667 0 8.42048 0 7.5V5.83333C0 4.91286 0.746192 4.16667 1.66667 4.16667H10ZM20 4.16667H11.6667V9.16667H20C20.9205 9.16667 21.6667 8.42048 21.6667 7.5V5.83333C21.6667 4.91286 20.9205 4.16667 20 4.16667ZM10 10.8333V20.8333H4.16667C2.78595 20.8333 1.66667 19.714 1.66667 18.3333V10.8333H10ZM20 10.8333H11.6667V20.8333H17.5C18.8807 20.8333 20 19.714 20 18.3333V10.8333Z" fill="white"/>
</mask>
<g mask="url(#mask0)">
</g>
</svg>
