<svg width="20" height="20" viewBox="0 0 20 20" fill="none" xmlns="http://www.w3.org/2000/svg">
<path fill-rule="evenodd" clip-rule="evenodd" d="M10 18.3333C5.39765 18.3333 1.66669 14.6024 1.66669 9.99999C1.66669 5.39762 5.39765 1.66666 10 1.66666C14.6024 1.66666 18.3334 5.39762 18.3334 9.99999C18.3334 14.6024 14.6024 18.3333 10 18.3333ZM7.50002 8.35916C7.51726 6.83082 8.60922 5.83332 10.4483 5.83332C12.1954 5.83332 13.3334 6.76666 13.3334 8.16666C13.3334 9.02999 12.9368 9.62499 12.092 10.1208C11.3046 10.5817 11.0862 10.8442 11.0862 11.3925V11.6667H9.29312L9.27588 11.4333C9.16669 10.4358 9.45404 9.91082 10.2529 9.44416C11.0345 8.97749 11.2357 8.73249 11.2357 8.21916C11.2357 7.74666 10.8563 7.41999 10.3161 7.41999C9.76439 7.41999 9.38508 7.79332 9.36784 8.35916H7.50002ZM9.16669 13.3356C9.16669 13.8607 9.63123 14.1667 10.4197 14.1667C11.2083 14.1667 11.6667 13.8607 11.6667 13.3356C11.6667 12.8059 11.2083 12.5 10.4197 12.5C9.63123 12.5 9.16669 12.8059 9.16669 13.3356Z" fill="#54D3C2"/>
<mask id="mask0" mask-type="alpha" maskUnits="userSpaceOnUse" x="1" y="1" width="18" height="18">
<path fill-rule="evenodd" clip-rule="evenodd" d="M10 18.3333C5.39765 18.3333 1.66669 14.6024 1.66669 9.99999C1.66669 5.39762 5.39765 1.66666 10 1.66666C14.6024 1.66666 18.3334 5.39762 18.3334 9.99999C18.3334 14.6024 14.6024 18.3333 10 18.3333ZM7.50002 8.35916C7.51726 6.83082 8.60922 5.83332 10.4483 5.83332C12.1954 5.83332 13.3334 6.76666 13.3334 8.16666C13.3334 9.02999 12.9368 9.62499 12.092 10.1208C11.3046 10.5817 11.0862 10.8442 11.0862 11.3925V11.6667H9.29312L9.27588 11.4333C9.16669 10.4358 9.45404 9.91082 10.2529 9.44416C11.0345 8.97749 11.2357 8.73249 11.2357 8.21916C11.2357 7.74666 10.8563 7.41999 10.3161 7.41999C9.76439 7.41999 9.38508 7.79332 9.36784 8.35916H7.50002ZM9.16669 13.3356C9.16669 13.8607 9.63123 14.1667 10.4197 14.1667C11.2083 14.1667 11.6667 13.8607 11.6667 13.3356C11.6667 12.8059 11.2083 12.5 10.4197 12.5C9.63123 12.5 9.16669 12.8059 9.16669 13.3356Z" fill="white"/>
</mask>
<g mask="url(#mask0)">
</g>
</svg>
