<svg width="20" height="20" viewBox="0 0 20 20" fill="none" xmlns="http://www.w3.org/2000/svg">
<path fill-rule="evenodd" clip-rule="evenodd" d="M17.3583 7.5C17.1803 7.49928 17.0147 7.40867 16.9157 7.26265C16.9038 7.20583 16.886 7.15026 16.8624 7.09686C16.773 6.89428 16.8159 6.65768 16.9707 6.49939L17.0143 6.45592C17.4834 5.98733 17.7471 5.35102 17.7471 4.6875C17.7471 4.02398 17.4834 3.38767 17.0139 2.91875C16.5457 2.44996 15.9094 2.18619 15.2458 2.18619C14.5823 2.18619 13.946 2.44996 13.4771 2.91941L13.4274 2.96908C13.2757 3.11745 13.0391 3.16035 12.8365 3.07095C12.6298 2.98234 12.5009 2.78757 12.5 2.57168L12.5 2.5C12.5 1.11929 11.3807 0 10 0C8.61929 0 7.5 1.11929 7.5 2.5V2.64167C7.49928 2.81972 7.40867 2.98528 7.26265 3.08433C7.20583 3.09622 7.15026 3.11405 7.09686 3.13761C6.89428 3.22702 6.65768 3.18412 6.49939 3.02928L6.45592 2.98574C5.98733 2.51663 5.35102 2.25286 4.6875 2.25286C4.02398 2.25286 3.38767 2.51663 2.91875 2.98607C2.44996 3.45434 2.18619 4.09064 2.18619 4.75417C2.18619 5.41769 2.44996 6.054 2.91941 6.52292L2.96908 6.57259C3.11745 6.72435 3.16035 6.96095 3.07095 7.16353C2.97445 7.42109 2.77787 7.56169 2.5 7.56667C1.11929 7.56667 0 8.68595 0 10.0667C0 11.4474 1.11929 12.5667 2.5 12.5667H2.64167C2.85424 12.5675 3.049 12.6965 3.13405 12.8949C3.22702 13.1057 3.18412 13.3423 3.02928 13.5006L2.98574 13.5441C2.51663 14.0127 2.25286 14.649 2.25286 15.3125C2.25286 15.976 2.51663 16.6123 2.98607 17.0812C3.45434 17.55 4.09064 17.8138 4.75417 17.8138C5.41769 17.8138 6.054 17.55 6.52292 17.0806L6.57259 17.0309C6.72435 16.8825 6.96095 16.8396 7.16353 16.9291C7.42109 17.0256 7.56169 17.2221 7.56667 17.5C7.56667 18.8807 8.68595 20 10.0667 20C11.4474 20 12.5667 18.8807 12.5667 17.5V17.3583C12.5675 17.1458 12.6965 16.951 12.8949 16.8659C13.1057 16.773 13.3423 16.8159 13.5006 16.9707L13.5441 17.0143C14.0127 17.4834 14.649 17.7471 15.3125 17.7471C15.976 17.7471 16.6123 17.4834 17.0812 17.0139C17.55 16.5457 17.8138 15.9094 17.8138 15.2458C17.8138 14.5823 17.55 13.946 17.0806 13.4771L17.0309 13.4274C16.8825 13.2757 16.8396 13.0391 16.9326 12.8283C17.0177 12.6298 17.2124 12.5009 17.4283 12.5L17.5 12.5C18.8807 12.5 20 11.3807 20 10C20 8.61929 18.8807 7.5 17.5 7.5H17.3583ZM5.32741 4.21426C5.93719 4.8108 6.8206 5.00237 7.60816 4.72629C7.68378 4.71639 7.75786 4.69613 7.82828 4.66595C8.63729 4.31922 9.16315 3.52517 9.16666 2.64499L9.16667 2.5C9.16667 2.03976 9.53976 1.66667 10 1.66667C10.4602 1.66667 10.8333 2.03976 10.8333 2.5V2.575C10.8369 3.4585 11.3627 4.25255 12.1717 4.59928C12.9894 4.96022 13.954 4.78532 14.5994 4.15405L14.6559 4.09759C14.8126 3.94078 15.0247 3.85286 15.2458 3.85286C15.467 3.85286 15.6791 3.94078 15.8354 4.09726C15.9926 4.25422 16.0805 4.46633 16.0805 4.6875C16.0805 4.90867 15.9926 5.12078 15.8361 5.27708L15.7857 5.32741C15.1892 5.93719 14.9976 6.8206 15.2737 7.60816C15.2836 7.68378 15.3039 7.75786 15.3341 7.82828C15.6808 8.63729 16.4748 9.16315 17.355 9.16666L17.5 9.16667C17.9602 9.16667 18.3333 9.53976 18.3333 10C18.3333 10.4602 17.9602 10.8333 17.5 10.8333H17.425C16.5415 10.8369 15.7475 11.3627 15.4043 12.1635C15.0398 12.9894 15.2147 13.954 15.8459 14.5994L15.9024 14.6559C16.0592 14.8126 16.1471 15.0247 16.1471 15.2458C16.1471 15.467 16.0592 15.6791 15.9027 15.8354C15.7458 15.9926 15.5337 16.0805 15.3125 16.0805C15.0913 16.0805 14.8792 15.9926 14.7229 15.8361L14.6726 15.7857C14.0207 15.148 13.0561 14.9731 12.2302 15.3376C11.4294 15.6808 10.9035 16.4748 10.9 17.355L10.9 17.5C10.9 17.9602 10.5269 18.3333 10.0667 18.3333C9.60643 18.3333 9.23333 17.9602 9.23333 17.5V17.425C9.2119 16.499 8.63869 15.6976 7.78765 15.3846C7.01057 15.0398 6.04596 15.2147 5.40061 15.8459L5.34408 15.9024C5.18744 16.0592 4.97534 16.1471 4.75417 16.1471C4.53299 16.1471 4.32089 16.0592 4.16458 15.9027C4.00745 15.7458 3.91952 15.5337 3.91952 15.3125C3.91952 15.0913 4.00745 14.8792 4.16393 14.7229L4.21426 14.6726C4.85199 14.0207 5.02689 13.0561 4.66239 12.2302C4.31922 11.4294 3.52517 10.9035 2.64499 10.9L2.5 10.9C2.03976 10.9 1.66667 10.5269 1.66667 10.0667C1.66667 9.60643 2.03976 9.23333 2.5 9.23333H2.575C3.50101 9.2119 4.30245 8.63869 4.61545 7.78765C4.96022 7.01057 4.78532 6.04596 4.15405 5.40061L4.09759 5.34408C3.94078 5.18744 3.85286 4.97534 3.85286 4.75417C3.85286 4.53299 3.94078 4.32089 4.09726 4.16458C4.25422 4.00745 4.46633 3.91952 4.6875 3.91952C4.90867 3.91952 5.12078 4.00745 5.27708 4.16393L5.32741 4.21426ZM10 13.3333C8.15905 13.3333 6.66667 11.841 6.66667 10C6.66667 8.15905 8.15905 6.66667 10 6.66667C11.841 6.66667 13.3333 8.15905 13.3333 10C13.3333 11.841 11.841 13.3333 10 13.3333ZM11.6667 10C11.6667 10.9205 10.9205 11.6667 10 11.6667C9.07952 11.6667 8.33333 10.9205 8.33333 10C8.33333 9.07952 9.07952 8.33333 10 8.33333C10.9205 8.33333 11.6667 9.07952 11.6667 10Z" fill="#54D3C2"/>
<mask id="mask0" mask-type="alpha" maskUnits="userSpaceOnUse" x="0" y="0" width="20" height="20">
<path fill-rule="evenodd" clip-rule="evenodd" d="M17.3583 7.5C17.1803 7.49928 17.0147 7.40867 16.9157 7.26265C16.9038 7.20583 16.886 7.15026 16.8624 7.09686C16.773 6.89428 16.8159 6.65768 16.9707 6.49939L17.0143 6.45592C17.4834 5.98733 17.7471 5.35102 17.7471 4.6875C17.7471 4.02398 17.4834 3.38767 17.0139 2.91875C16.5457 2.44996 15.9094 2.18619 15.2458 2.18619C14.5823 2.18619 13.946 2.44996 13.4771 2.91941L13.4274 2.96908C13.2757 3.11745 13.0391 3.16035 12.8365 3.07095C12.6298 2.98234 12.5009 2.78757 12.5 2.57168L12.5 2.5C12.5 1.11929 11.3807 0 10 0C8.61929 0 7.5 1.11929 7.5 2.5V2.64167C7.49928 2.81972 7.40867 2.98528 7.26265 3.08433C7.20583 3.09622 7.15026 3.11405 7.09686 3.13761C6.89428 3.22702 6.65768 3.18412 6.49939 3.02928L6.45592 2.98574C5.98733 2.51663 5.35102 2.25286 4.6875 2.25286C4.02398 2.25286 3.38767 2.51663 2.91875 2.98607C2.44996 3.45434 2.18619 4.09064 2.18619 4.75417C2.18619 5.41769 2.44996 6.054 2.91941 6.52292L2.96908 6.57259C3.11745 6.72435 3.16035 6.96095 3.07095 7.16353C2.97445 7.42109 2.77787 7.56169 2.5 7.56667C1.11929 7.56667 0 8.68595 0 10.0667C0 11.4474 1.11929 12.5667 2.5 12.5667H2.64167C2.85424 12.5675 3.049 12.6965 3.13405 12.8949C3.22702 13.1057 3.18412 13.3423 3.02928 13.5006L2.98574 13.5441C2.51663 14.0127 2.25286 14.649 2.25286 15.3125C2.25286 15.976 2.51663 16.6123 2.98607 17.0812C3.45434 17.55 4.09064 17.8138 4.75417 17.8138C5.41769 17.8138 6.054 17.55 6.52292 17.0806L6.57259 17.0309C6.72435 16.8825 6.96095 16.8396 7.16353 16.9291C7.42109 17.0256 7.56169 17.2221 7.56667 17.5C7.56667 18.8807 8.68595 20 10.0667 20C11.4474 20 12.5667 18.8807 12.5667 17.5V17.3583C12.5675 17.1458 12.6965 16.951 12.8949 16.8659C13.1057 16.773 13.3423 16.8159 13.5006 16.9707L13.5441 17.0143C14.0127 17.4834 14.649 17.7471 15.3125 17.7471C15.976 17.7471 16.6123 17.4834 17.0812 17.0139C17.55 16.5457 17.8138 15.9094 17.8138 15.2458C17.8138 14.5823 17.55 13.946 17.0806 13.4771L17.0309 13.4274C16.8825 13.2757 16.8396 13.0391 16.9326 12.8283C17.0177 12.6298 17.2124 12.5009 17.4283 12.5L17.5 12.5C18.8807 12.5 20 11.3807 20 10C20 8.61929 18.8807 7.5 17.5 7.5H17.3583ZM5.32741 4.21426C5.93719 4.8108 6.8206 5.00237 7.60816 4.72629C7.68378 4.71639 7.75786 4.69613 7.82828 4.66595C8.63729 4.31922 9.16315 3.52517 9.16666 2.64499L9.16667 2.5C9.16667 2.03976 9.53976 1.66667 10 1.66667C10.4602 1.66667 10.8333 2.03976 10.8333 2.5V2.575C10.8369 3.4585 11.3627 4.25255 12.1717 4.59928C12.9894 4.96022 13.954 4.78532 14.5994 4.15405L14.6559 4.09759C14.8126 3.94078 15.0247 3.85286 15.2458 3.85286C15.467 3.85286 15.6791 3.94078 15.8354 4.09726C15.9926 4.25422 16.0805 4.46633 16.0805 4.6875C16.0805 4.90867 15.9926 5.12078 15.8361 5.27708L15.7857 5.32741C15.1892 5.93719 14.9976 6.8206 15.2737 7.60816C15.2836 7.68378 15.3039 7.75786 15.3341 7.82828C15.6808 8.63729 16.4748 9.16315 17.355 9.16666L17.5 9.16667C17.9602 9.16667 18.3333 9.53976 18.3333 10C18.3333 10.4602 17.9602 10.8333 17.5 10.8333H17.425C16.5415 10.8369 15.7475 11.3627 15.4043 12.1635C15.0398 12.9894 15.2147 13.954 15.8459 14.5994L15.9024 14.6559C16.0592 14.8126 16.1471 15.0247 16.1471 15.2458C16.1471 15.467 16.0592 15.6791 15.9027 15.8354C15.7458 15.9926 15.5337 16.0805 15.3125 16.0805C15.0913 16.0805 14.8792 15.9926 14.7229 15.8361L14.6726 15.7857C14.0207 15.148 13.0561 14.9731 12.2302 15.3376C11.4294 15.6808 10.9035 16.4748 10.9 17.355L10.9 17.5C10.9 17.9602 10.5269 18.3333 10.0667 18.3333C9.60643 18.3333 9.23333 17.9602 9.23333 17.5V17.425C9.2119 16.499 8.63869 15.6976 7.78765 15.3846C7.01057 15.0398 6.04596 15.2147 5.40061 15.8459L5.34408 15.9024C5.18744 16.0592 4.97534 16.1471 4.75417 16.1471C4.53299 16.1471 4.32089 16.0592 4.16458 15.9027C4.00745 15.7458 3.91952 15.5337 3.91952 15.3125C3.91952 15.0913 4.00745 14.8792 4.16393 14.7229L4.21426 14.6726C4.85199 14.0207 5.02689 13.0561 4.66239 12.2302C4.31922 11.4294 3.52517 10.9035 2.64499 10.9L2.5 10.9C2.03976 10.9 1.66667 10.5269 1.66667 10.0667C1.66667 9.60643 2.03976 9.23333 2.5 9.23333H2.575C3.50101 9.2119 4.30245 8.63869 4.61545 7.78765C4.96022 7.01057 4.78532 6.04596 4.15405 5.40061L4.09759 5.34408C3.94078 5.18744 3.85286 4.97534 3.85286 4.75417C3.85286 4.53299 3.94078 4.32089 4.09726 4.16458C4.25422 4.00745 4.46633 3.91952 4.6875 3.91952C4.90867 3.91952 5.12078 4.00745 5.27708 4.16393L5.32741 4.21426ZM10 13.3333C8.15905 13.3333 6.66667 11.841 6.66667 10C6.66667 8.15905 8.15905 6.66667 10 6.66667C11.841 6.66667 13.3333 8.15905 13.3333 10C13.3333 11.841 11.841 13.3333 10 13.3333ZM11.6667 10C11.6667 10.9205 10.9205 11.6667 10 11.6667C9.07952 11.6667 8.33333 10.9205 8.33333 10C8.33333 9.07952 9.07952 8.33333 10 8.33333C10.9205 8.33333 11.6667 9.07952 11.6667 10Z" fill="white"/>
</mask>
<g mask="url(#mask0)">
</g>
</svg>
