<?xml version="1.0"?>
<svg xmlns="http://www.w3.org/2000/svg" id="Layer_1" height="512px" viewBox="0 0 128 128" width="512px" data-name="Layer 1" class=""><g><path d="m28.712 35.67 1.233-.662v18.909a1.75 1.75 0 0 0 1.75 1.75h9.058a1.75 1.75 0 0 0 1.75-1.75v-8.024h5.911v8.024a1.75 1.75 0 0 0 1.75 1.75h9.058a1.75 1.75 0 0 0 1.75-1.75v-18.906l1.26.667a1.75 1.75 0 1 0 1.639-3.092l-17.7-9.378a1.748 1.748 0 0 0 -1.647 0l-17.467 9.378a1.75 1.75 0 0 0 1.655 3.084zm16.645-8.932 12.115 6.419v19.01h-5.558v-8.024a1.75 1.75 0 0 0 -1.75-1.75h-9.411a1.75 1.75 0 0 0 -1.753 1.75v8.024h-5.555v-19.037z" data-original="#000000" class="active-path" data-old_color="#000000" fill="#54D3C2"/><path d="m27.747 64.84h37.653a1.75 1.75 0 0 0 0-3.5h-37.653a1.75 1.75 0 1 0 0 3.5z" data-original="#000000" class="active-path" data-old_color="#000000" fill="#54D3C2"/><path d="m27.747 73.083h17.917a1.75 1.75 0 0 0 0-3.5h-17.917a1.75 1.75 0 1 0 0 3.5z" data-original="#000000" class="active-path" data-old_color="#000000" fill="#54D3C2"/><path d="m59.222 77.827h-31.475a1.75 1.75 0 1 0 0 3.5h31.475a1.75 1.75 0 1 0 0-3.5z" data-original="#000000" class="active-path" data-old_color="#000000" fill="#54D3C2"/><path d="m27.747 89.57h17.917a1.75 1.75 0 0 0 0-3.5h-17.917a1.75 1.75 0 1 0 0 3.5z" data-original="#000000" class="active-path" data-old_color="#000000" fill="#54D3C2"/><path d="m59.222 94.313h-31.475a1.75 1.75 0 1 0 0 3.5h31.475a1.75 1.75 0 1 0 0-3.5z" data-original="#000000" class="active-path" data-old_color="#000000" fill="#54D3C2"/><path d="m45.664 102.558h-17.78a1.75 1.75 0 1 0 0 3.5h17.78a1.75 1.75 0 0 0 0-3.5z" data-original="#000000" class="active-path" data-old_color="#000000" fill="#54D3C2"/><path d="m110.723 86.16a23.057 23.057 0 0 0 -21.282-22.96v-33.2a1.75 1.75 0 0 0 -.513-1.237l-14.5-14.5a1.75 1.75 0 0 0 -1.237-.513h-54.164a1.75 1.75 0 0 0 -1.75 1.75v97a1.75 1.75 0 0 0 1.75 1.75h68.664a1.75 1.75 0 0 0 1.75-1.75v-3.382a23.057 23.057 0 0 0 21.282-22.958zm-35.781-66.435 8.524 8.524h-8.524zm-54.165 91.025v-93.5h50.665v12.75a1.75 1.75 0 0 0 1.75 1.75h12.749v31.45a23.025 23.025 0 0 0 0 45.917v1.632zm66.914-5.059a19.532 19.532 0 1 1 19.532-19.531 19.554 19.554 0 0 1 -19.532 19.531z" data-original="#000000" class="active-path" data-old_color="#000000" fill="#54D3C2"/><path d="m91.472 80.63a1.75 1.75 0 0 0 3.5 0 7.287 7.287 0 0 0 -5.53-7.059v-1.255a1.75 1.75 0 0 0 -3.5 0v1.255a7.27 7.27 0 0 0 0 14.118v7.332a3.77 3.77 0 0 1 -2.03-3.331 1.75 1.75 0 0 0 -3.5 0 7.287 7.287 0 0 0 5.53 7.059v1.28a1.75 1.75 0 1 0 3.5 0v-1.28a7.27 7.27 0 0 0 0-14.118v-7.331a3.77 3.77 0 0 1 2.03 3.33zm-7.561 0a3.77 3.77 0 0 1 2.03-3.331v6.661a3.77 3.77 0 0 1 -2.03-3.33zm7.561 11.06a3.77 3.77 0 0 1 -2.03 3.331v-6.661a3.77 3.77 0 0 1 2.03 3.33z" data-original="#000000" class="active-path" data-old_color="#000000" fill="#54D3C2"/></g> </svg>
