<svg width="20" height="21" viewBox="0 0 20 21" fill="none" xmlns="http://www.w3.org/2000/svg">
<path fill-rule="evenodd" clip-rule="evenodd" d="M5.41665 9.16669V7.08335C5.41665 4.09181 7.84177 1.66669 10.8333 1.66669C13.8249 1.66669 16.25 4.09181 16.25 7.08335V9.16669H16.6666C18.2775 9.16669 19.5833 10.4725 19.5833 12.0834V17.9167C19.5833 19.5275 18.2775 20.8334 16.6666 20.8334H4.99998C3.38915 20.8334 2.08331 19.5275 2.08331 17.9167V12.0834C2.08331 10.4725 3.38915 9.16669 4.99998 9.16669H5.41665ZM13.75 9.16669V7.08335C13.75 5.47252 12.4441 4.16669 10.8333 4.16669C9.22248 4.16669 7.91665 5.47252 7.91665 7.08335V9.16669H13.75Z" fill="#54D3C2"/>
<mask id="mask0" mask-type="alpha" maskUnits="userSpaceOnUse" x="2" y="1" width="18" height="20">
<path fill-rule="evenodd" clip-rule="evenodd" d="M5.41665 9.16669V7.08335C5.41665 4.09181 7.84177 1.66669 10.8333 1.66669C13.8249 1.66669 16.25 4.09181 16.25 7.08335V9.16669H16.6666C18.2775 9.16669 19.5833 10.4725 19.5833 12.0834V17.9167C19.5833 19.5275 18.2775 20.8334 16.6666 20.8334H4.99998C3.38915 20.8334 2.08331 19.5275 2.08331 17.9167V12.0834C2.08331 10.4725 3.38915 9.16669 4.99998 9.16669H5.41665ZM13.75 9.16669V7.08335C13.75 5.47252 12.4441 4.16669 10.8333 4.16669C9.22248 4.16669 7.91665 5.47252 7.91665 7.08335V9.16669H13.75Z" fill="white"/>
</mask>
<g mask="url(#mask0)">
</g>
</svg>
