<svg xmlns="http://www.w3.org/2000/svg" xmlns:xlink="http://www.w3.org/1999/xlink" width="17.999" height="18" viewBox="0 0 17.999 18">
  <defs>
    <clipPath id="clip-path">
      <path id="_Color" data-name="↳🎨 Color" d="M16.714,18a1.279,1.279,0,0,1-.909-.376L12.92,14.738a8.14,8.14,0,1,1,1.819-1.819L17.624,15.8A1.285,1.285,0,0,1,16.714,18ZM8.143,2.571a5.571,5.571,0,1,0,3.845,9.6,1.151,1.151,0,0,1,.187-.187A5.572,5.572,0,0,0,8.143,2.571Z" transform="translate(0 0)" fill="#fa991c"/>
    </clipPath>
  </defs>
  <g id="Icon" transform="translate(0 0)">
    <path id="_Color-2" data-name="↳🎨 Color" d="M16.714,18a1.279,1.279,0,0,1-.909-.376L12.92,14.738a8.14,8.14,0,1,1,1.819-1.819L17.624,15.8A1.285,1.285,0,0,1,16.714,18ZM8.143,2.571a5.571,5.571,0,1,0,3.845,9.6,1.151,1.151,0,0,1,.187-.187A5.572,5.572,0,0,0,8.143,2.571Z" transform="translate(0 0)" fill="#fa991c"/>
  </g>
</svg>
