<svg id="Capa_1" enable-background="new 0 0 512 512" height="512" viewBox="0 0 512 512" width="512" xmlns="http://www.w3.org/2000/svg"><g><path d="m434.535 225.5h-272.689c-4.143 0-7.5 3.358-7.5 7.5s3.357 7.5 7.5 7.5h272.688c4.143 0 7.5-3.358 7.5-7.5s-3.357-7.5-7.499-7.5z"/><path d="m434.535 265.395h-193.765c-4.143 0-7.5 3.358-7.5 7.5s3.357 7.5 7.5 7.5h193.765c4.143 0 7.5-3.358 7.5-7.5s-3.358-7.5-7.5-7.5z"/><path d="m434.535 305.29h-167.827c-4.143 0-7.5 3.358-7.5 7.5s3.357 7.5 7.5 7.5h167.826c4.143 0 7.5-3.358 7.5-7.5s-3.357-7.5-7.499-7.5z"/><path d="m311.601 345.185h-33.919c-4.143 0-7.5 3.358-7.5 7.5s3.357 7.5 7.5 7.5h33.919c4.143 0 7.5-3.358 7.5-7.5s-3.358-7.5-7.5-7.5z"/><path d="m161.846 129.846h100.172c4.143 0 7.5-3.358 7.5-7.5s-3.357-7.5-7.5-7.5h-100.172c-4.143 0-7.5 3.358-7.5 7.5s3.357 7.5 7.5 7.5z"/><path d="m72.525 441.226c1.465 1.464 3.385 2.197 5.304 2.197s3.839-.732 5.304-2.197l50.114-50.114 50.114 50.114c1.465 1.464 3.385 2.197 5.304 2.197s3.839-.732 5.304-2.197c2.929-2.929 2.929-7.678 0-10.606l-50.114-50.114 50.114-50.114c2.929-2.929 2.929-7.678 0-10.606-2.93-2.929-7.678-2.929-10.607 0l-50.114 50.114-50.114-50.114c-2.93-2.929-7.678-2.929-10.607 0s-2.929 7.678 0 10.606l50.114 50.114-50.114 50.114c-2.931 2.928-2.931 7.677-.002 10.606z"/><path d="m510.253 198.28c0-26.024-8.548-51.865-24.069-72.762-2.47-3.326-7.17-4.018-10.492-1.549-3.325 2.47-4.019 7.168-1.549 10.493 6.906 9.298 12.238 19.712 15.815 30.698-13.059-13.456-31.327-21.83-51.515-21.83h-39.15c-17.849 0-32.37-14.525-32.37-32.38v-39.14c0-20.175-8.365-38.436-21.807-51.493 15.92 5.205 30.608 14.091 42.543 26.026l64.38 64.38c2.929 2.929 7.677 2.93 10.607 0 2.929-2.929 2.929-7.678 0-10.606l-64.38-64.38c-23.045-23.046-53.691-35.737-86.293-35.737h-176.699c-26.12 0-47.37 21.255-47.37 47.38v209.687c-12.209 4.481-23.767 10.774-34.248 18.767-3.294 2.512-3.928 7.218-1.416 10.512 2.511 3.293 7.217 3.928 10.512 1.416 46.09-35.147 111.81-30.689 152.868 10.369 45.42 45.42 45.42 119.324 0 164.744-22.002 22.006-51.255 34.125-82.372 34.125s-60.369-12.12-82.372-34.126c-41.063-41.055-45.529-106.774-10.387-152.87 2.511-3.294 1.876-8-1.418-10.511-3.295-2.513-8-1.875-10.512 1.417-19.123 25.085-28.552 56.32-26.547 87.953 2.023 31.924 15.61 61.975 38.258 84.617 24.835 24.84 57.855 38.52 92.978 38.52h329.625c26.12 0 47.37-21.254 47.37-47.38zm-47.38 298.72h-268.518c11.599-6.103 22.34-13.986 31.872-23.519 51.268-51.269 51.268-134.688 0-185.957-22.645-22.645-52.696-36.228-84.619-38.248-13.107-.832-26.143.307-38.704 3.28v-205.176c0-17.854 14.521-32.38 32.37-32.38h159.84c31.325 0 56.81 25.485 56.81 56.81v39.14c0 26.125 21.25 47.38 47.37 47.38h39.15c31.196 0 56.591 25.277 56.8 56.425v249.865c-.001 17.855-14.522 32.38-32.371 32.38z"/></g></svg>