<svg id="Layer_1" height="512" viewBox="0 0 512 512" width="512" xmlns="http://www.w3.org/2000/svg" data-name="Layer 1"><path d="m496 400.36v53.99a15.416 15.416 0 0 1 -4.7 11.07 16.153 16.153 0 0 1 -11.34 4.59 15.86 15.86 0 0 1 -16.05-15.66v-53.99z" fill="#f8ec7d"/><path d="m141.35 400.36v54.14a15.711 15.711 0 0 1 -15.89 15.51h-.01a15.711 15.711 0 0 1 -15.89-15.51v-54.14z" fill="#f8ec7d"/><path d="m496 370.52v29.84h-32.09-322.56-31.79v-29.84z" fill="#e48e66"/><path d="m496 309.92v60.6h-386.44v-60.6a19.694 19.694 0 0 1 19.93-19.45h346.58a19.694 19.694 0 0 1 19.93 19.45z" fill="#f8ec7d"/><path d="m430.61 202.95v87.52h-26.28v-29.07a19.694 19.694 0 0 0 -19.94-19.44h-48.52a19.685 19.685 0 0 0 -19.93 19.44v29.07h-26.32v-29.07a19.685 19.685 0 0 0 -19.93-19.44h-48.52a19.694 19.694 0 0 0 -19.94 19.44v29.07h-26.29v-87.52a20.007 20.007 0 0 1 20-20h215.67a20 20 0 0 1 20 20z" fill="#e48e66"/><path d="m421.04 41.99v101.7h-29.07v-.28l-40.86-38.26-36.94 31.12-42.74-45.48-53.22 52.62v.28h-33.69v-101.7zm-91.82 40.03c0-8.71-6.44-15.77-14.38-15.77s-14.39 7.06-14.39 15.77 6.44 15.77 14.39 15.77 14.38-7.06 14.38-15.77z" fill="#f8ec7d"/><path d="m404.33 261.4v29.07h-88.39v-29.07a19.685 19.685 0 0 1 19.93-19.44h48.52a19.694 19.694 0 0 1 19.94 19.44z" fill="#6fe3ff"/><path d="m391.97 143.41v.28h-71.08v-.28l-6.72-7.14 36.94-31.12z" fill="#e48e66"/><g fill="#6fe3ff"><path d="m314.84 66.25c7.94 0 14.38 7.06 14.38 15.77s-6.44 15.77-14.38 15.77-14.39-7.06-14.39-15.77 6.44-15.77 14.39-15.77z"/><path d="m320.89 143.41v.28h-102.68v-.28l53.22-52.62 42.74 45.48z"/><path d="m289.62 261.4v29.07h-88.39v-29.07a19.694 19.694 0 0 1 19.94-19.44h48.52a19.685 19.685 0 0 1 19.93 19.44z"/><path d="m107.45 218.45a.81.81 0 0 1 -.76 1.14h-89.86a.814.814 0 0 1 -.76-1.14l24.26-53.04a.824.824 0 0 1 .76-.49h41.34a.849.849 0 0 1 .77.49z"/></g><path d="m37.1 247.69a5.022 5.022 0 1 1 -5.15 5.02 5.082 5.082 0 0 1 5.15-5.02z" fill="#e48e66"/><path d="m476.07 284.47h-39.46v-81.52a26.029 26.029 0 0 0 -26-26h-215.67a26.029 26.029 0 0 0 -26 26v81.52h-39.45a25.722 25.722 0 0 0 -25.93 25.45v144.58a21.9 21.9 0 0 0 43.79 0v-48.14h310.56v47.99a22.126 22.126 0 0 0 37.58 15.364 21.318 21.318 0 0 0 6.51-15.364v-144.43a25.722 25.722 0 0 0 -25.93-25.45zm-360.51 109.89v-17.84h374.44v17.84zm65.38-191.41a14.016 14.016 0 0 1 14-14h215.67a14.015 14.015 0 0 1 14 14v81.52h-14.28v-23.07c0-14.028-11.637-25.44-25.94-25.44h-48.52c-14.3 0-25.93 11.412-25.93 25.44v23.07h-14.32v-23.07c0-14.028-11.632-25.44-25.93-25.44h-48.52c-14.3 0-25.94 11.412-25.94 25.44v23.07h-14.29zm141 81.52v-23.07a13.707 13.707 0 0 1 13.93-13.44h48.52a13.713 13.713 0 0 1 13.94 13.44v23.07zm-114.71 0v-23.07a13.712 13.712 0 0 1 13.94-13.44h48.52a13.707 13.707 0 0 1 13.93 13.44v23.07zm-77.74 12h346.58a13.712 13.712 0 0 1 13.93 13.45v54.6h-374.44v-54.6a13.712 13.712 0 0 1 13.93-13.45zm5.86 158.03a9.9 9.9 0 0 1 -19.79 0v-48.14h19.79zm351.75 6.634a10.136 10.136 0 0 1 -7.142 2.876 9.873 9.873 0 0 1 -10.05-9.66v-47.99h20.092v47.99a9.421 9.421 0 0 1 -2.9 6.784z" fill="#63316d"/><path d="m81.64 459.5h-13.88v-233.91h38.93a6.81 6.81 0 0 0 6.217-9.635l-24.275-53.093a6.879 6.879 0 0 0 -6.2-3.942h-41.342a6.824 6.824 0 0 0 -6.23 4.022l-24.272 53.07a6.815 6.815 0 0 0 6.242 9.578h14.27v17.847a10.982 10.982 0 0 0 -5.15 9.273 11.146 11.146 0 0 0 22.29 0 10.985 10.985 0 0 0 -5.14-9.27v-17.85h12.66v233.91h-13.88a6 6 0 1 0 0 12h39.76a6 6 0 0 0 0-12zm-44.54-205.81a.927.927 0 0 1 -.86-.98 1.077 1.077 0 0 1 .059-.329 6.04 6.04 0 0 0 .8.059 5.944 5.944 0 0 0 .793-.058 1.106 1.106 0 0 1 .057.328.923.923 0 0 1 -.849.98zm7.308-82.77h34.714l19.509 42.67h-73.739z" fill="#63316d"/><path d="m184.52 35.99a6 6 0 0 0 -6 6v101.7a6 6 0 0 0 6 6h236.52a6 6 0 0 0 6-6v-101.7a6 6 0 0 0 -6-6zm139.228 101.7-.863-.918 28.014-23.6 26.184 24.517zm-91.219 0 38.742-38.306 36.008 38.306zm182.511 0h-20.4l-39.429-36.919a6 6 0 0 0 -7.966-.209l-32.59 27.454-38.855-41.335a6 6 0 0 0 -4.262-1.89 5.849 5.849 0 0 0 -4.329 1.732l-51.75 51.167h-24.939v-89.7h224.52z" fill="#63316d"/><path d="m314.84 103.79c11.237 0 20.38-9.767 20.38-21.77s-9.143-21.77-20.38-21.77-20.39 9.766-20.39 21.77 9.15 21.77 20.39 21.77zm0-31.54c4.621 0 8.38 4.383 8.38 9.77s-3.759 9.77-8.38 9.77-8.39-4.383-8.39-9.77 3.764-9.77 8.39-9.77z" fill="#63316d"/></svg>