<svg xmlns="http://www.w3.org/2000/svg" width="40.113" height="38.655" viewBox="0 0 40.113 38.655">
  <path id="facebook" d="M33.845,0H5.273A5.175,5.175,0,0,0,0,5.074V32.581a5.175,5.175,0,0,0,5.271,5.074H19.364L19.388,24.2H15.757a.841.841,0,0,1-.857-.822l-.017-4.337a.841.841,0,0,1,.857-.828h3.625V14.021c0-4.864,3.085-7.512,7.592-7.512h3.7a.841.841,0,0,1,.857.825v3.657a.841.841,0,0,1-.856.825H28.386c-2.451,0-2.925,1.121-2.925,2.767v3.628h5.385a.837.837,0,0,1,.851.922l-.534,4.337a.846.846,0,0,1-.851.728H25.484L25.46,37.655h8.385a5.175,5.175,0,0,0,5.271-5.074V5.074A5.175,5.175,0,0,0,33.845,0Z" transform="translate(0.498 0.5)" fill="#475993" stroke="#707070" stroke-width="1"/>
</svg>
