<svg id="search" xmlns="http://www.w3.org/2000/svg" width="35.197" height="35.197" viewBox="0 0 35.197 35.197">
  <path id="Path_144" data-name="Path 144" d="M7.8,150.033l-1.225,4.574L2.1,154.7a17.629,17.629,0,0,1-.13-16.433h0L5.955,139,7.7,142.962a10.5,10.5,0,0,0,.1,7.071Z" transform="translate(0 -128.763)" fill="#fbbb00"/>
  <path id="Path_145" data-name="Path 145" d="M278.532,208.176a17.592,17.592,0,0,1-6.273,17.011h0l-5.021-.256-.711-4.436a10.489,10.489,0,0,0,4.513-5.356h-9.41v-6.962h16.9Z" transform="translate(-243.643 -193.865)" fill="#518ef8"/>
  <path id="Path_146" data-name="Path 146" d="M57.026,319.46h0a17.6,17.6,0,0,1-26.518-5.384l5.7-4.668a10.466,10.466,0,0,0,15.082,5.359Z" transform="translate(-28.412 -288.139)" fill="#28b446"/>
  <path id="Path_147" data-name="Path 147" d="M55.488,4.051l-5.7,4.667A10.465,10.465,0,0,0,34.358,14.2L28.625,9.505h0A17.6,17.6,0,0,1,55.488,4.051Z" transform="translate(-26.656)" fill="#f14336"/>
</svg>
