<svg height="512" viewBox="0 0 64 64" width="512" xmlns="http://www.w3.org/2000/svg"><g id="Bungalow-4" data-name="Bungalow"><path d="m20 27h34v29h-34z" fill="#c0ab91"/><path d="m61 27h-48l24-18z" fill="#5f4d37"/><path d="m32 46h10v10h-10z" fill="#806749"/><path d="m16 14.5a2.5 2.5 0 0 0 -2.5-2.5 2.544 2.544 0 0 0 -.505.051c0-.017.005-.033.005-.051a2.993 2.993 0 0 0 -5.822-.982c-.06-.004-.117-.018-.178-.018a3 3 0 0 0 0 6h7v-.05a2.5 2.5 0 0 0 2-2.45z" fill="#e0e0e2"/><path d="m40 41h-6v-5a5.255 5.255 0 0 1 6 0z" fill="#83d8f4"/><path d="m30 41h-6v-5a5.255 5.255 0 0 1 6 0z" fill="#83d8f4"/><path d="m50 41h-6v-5a5.255 5.255 0 0 1 6 0z" fill="#c2dff6"/><path d="m5.344 43.611a3.96 3.96 0 0 1 1.273-4.811 3 3 0 1 1 4.766 0 3.96 3.96 0 0 1 1.273 4.807 5 5 0 1 1 -7.312 0z" fill="#91cc04"/><path d="m62 55h-1a1 1 0 0 0 0 2h1a1 1 0 0 0 0-2z"/><path d="m58 55h-3v-27h6a1 1 0 0 0 .6-1.8l-24-18a1 1 0 0 0 -1.2 0l-24 18a1 1 0 0 0 .6 1.8h6v27h-9v-2.09a5.976 5.976 0 0 0 3.793-9.5 4.953 4.953 0 0 0 -1.136-4.81 3.909 3.909 0 0 0 .343-1.6 4 4 0 0 0 -8 0 3.917 3.917 0 0 0 .343 1.606 4.951 4.951 0 0 0 -1.136 4.807 5.976 5.976 0 0 0 3.793 9.497v2.09h-6a1 1 0 0 0 0 2h56a1 1 0 0 0 0-2zm-53-8a3.982 3.982 0 0 1 1.077-2.709 1 1 0 0 0 .182-1.084 2.959 2.959 0 0 1 .957-3.6 1 1 0 0 0 .2-1.4 1.981 1.981 0 0 1 -.416-1.207 2 2 0 0 1 4 0 1.981 1.981 0 0 1 -.414 1.2 1 1 0 0 0 .2 1.4 2.959 2.959 0 0 1 .957 3.6 1 1 0 0 0 .182 1.084 3.969 3.969 0 0 1 -1.925 6.574v-2.858a1 1 0 0 0 -2 0v2.858a4 4 0 0 1 -3-3.858zm32-36.75 21 15.75h-42zm-4 44.75v-8h3v8zm5 0v-8h3v8zm5 0v-9a1 1 0 0 0 -1-1h-10a1 1 0 0 0 -1 1v9h-10v-27h32v27z"/><path d="m7 18h7a.929.929 0 0 0 .5-.145 3.5 3.5 0 0 0 -.618-6.834 3.991 3.991 0 0 0 -7.346-.994 4 4 0 0 0 .464 7.973zm-.035-6 .147.016a1 1 0 0 0 1.01-.669 1.993 1.993 0 0 1 3.878.611c0 .033-.005.067-.005.093a1 1 0 0 0 1.2.98 1.527 1.527 0 0 1 1.805 1.469 1.5 1.5 0 0 1 -1.2 1.47 1.088 1.088 0 0 0 -.112.03h-6.688a2 2 0 0 1 -.035-4z"/><path d="m40.531 35.153a6.283 6.283 0 0 0 -7.062 0 1 1 0 0 0 -.469.847v5a1 1 0 0 0 1 1h6a1 1 0 0 0 1-1v-5a1 1 0 0 0 -.469-.847zm-1.531 4.847h-4v-3.421a4.082 4.082 0 0 1 4 0z"/><path d="m30.531 35.153a6.283 6.283 0 0 0 -7.062 0 1 1 0 0 0 -.469.847v5a1 1 0 0 0 1 1h6a1 1 0 0 0 1-1v-5a1 1 0 0 0 -.469-.847zm-1.531 4.847h-4v-3.421a4.082 4.082 0 0 1 4 0z"/><path d="m50.531 35.153a6.283 6.283 0 0 0 -7.062 0 1 1 0 0 0 -.469.847v5a1 1 0 0 0 1 1h6a1 1 0 0 0 1-1v-5a1 1 0 0 0 -.469-.847zm-1.531 4.847h-4v-3.421a4.082 4.082 0 0 1 4 0z"/><path d="m9 46a1 1 0 0 0 1-1v-1a1 1 0 0 0 -2 0v1a1 1 0 0 0 1 1z"/></g></svg>