<?xml version="1.0" encoding="UTF-8" standalone="no"?>
<svg
   xmlns:dc="http://purl.org/dc/elements/1.1/"
   xmlns:cc="http://creativecommons.org/ns#"
   xmlns:rdf="http://www.w3.org/1999/02/22-rdf-syntax-ns#"
   xmlns:svg="http://www.w3.org/2000/svg"
   xmlns="http://www.w3.org/2000/svg"
   viewBox="0 0 666.66669 666.66669"
   height="666.66669"
   width="666.66669"
   xml:space="preserve"
   id="svg2"
   version="1.1"><metadata
     id="metadata8"><rdf:RDF><cc:Work
         rdf:about=""><dc:format>image/svg+xml</dc:format><dc:type
           rdf:resource="http://purl.org/dc/dcmitype/StillImage" /></cc:Work></rdf:RDF></metadata><defs
     id="defs6"><clipPath
       id="clipPath20"
       clipPathUnits="userSpaceOnUse"><path
         id="path18"
         d="m 0,0.001 h 500 v 500 H 0 Z" /></clipPath><clipPath
       id="clipPath470"
       clipPathUnits="userSpaceOnUse"><path
         id="path468"
         d="M 0,500 H 500 V 0 H 0 Z" /></clipPath></defs><g
     transform="matrix(1.3333333,0,0,-1.3333333,0,666.66667)"
     id="g10"><path
       id="path12"
       style="fill:#dfdfdf;fill-opacity:1;fill-rule:nonzero;stroke:none"
       d="M 0,0 H 500 V 500 H 0 Z" /><g
       id="g14"><g
         clip-path="url(#clipPath20)"
         id="g16"><g
           transform="translate(206.7781,49.6595)"
           id="g22"><path
             id="path24"
             style="fill:#95c849;fill-opacity:1;fill-rule:nonzero;stroke:none"
             d="m 0,0 -197.519,-27.403 c -8.591,-1.192 -14.146,-9.703 -11.779,-18.047 l 14.567,-51.347 c 1.144,-4.035 4.005,-7.363 7.822,-9.102 l 68.244,-31.078 c 3.742,-1.705 8.036,-1.714 11.785,-0.025 l 135.938,61.211 c 7.136,3.214 10.358,11.57 7.226,18.742 L 15.054,-8.432 C 12.492,-2.566 6.34,0.88 0,0" /></g><g
           transform="translate(547.2286,381.9607)"
           id="g26"><path
             id="path28"
             style="fill:none;stroke:#a1ccfe;stroke-width:20;stroke-linecap:butt;stroke-linejoin:miter;stroke-miterlimit:10;stroke-dasharray:none;stroke-opacity:1"
             d="m 0,0 c -21.045,7.453 -45.473,-1.021 -61.133,-16.934 -15.659,-15.912 -23.626,-38.007 -27.111,-60.059 -3.486,-22.052 -2.931,-44.512 -4.031,-66.81 -1.1,-22.299 -4.005,-45.001 -13.817,-65.055 -8.324,-17.014 -21.214,-31.309 -31.517,-47.202 -34.175,-52.716 -37.837,-118.879 -40.464,-181.648" /></g><g
           transform="translate(1.4731,106.8732)"
           id="g30"><path
             id="path32"
             style="fill:none;stroke:#ffffff;stroke-width:11;stroke-linecap:butt;stroke-linejoin:miter;stroke-miterlimit:10;stroke-dasharray:none;stroke-opacity:1"
             d="m 0,0 c -19.026,0.001 -36.802,3.412 -52.834,10.139 -26.548,11.138 -47.603,31.613 -57.764,56.174 l -2.546,6.156 58.732,229.333 4.138,3.953 c 11.422,10.916 27.224,17.176 43.354,17.176 5.389,0 10.711,-0.697 15.818,-2.071 6.956,-1.872 13.518,-5.032 19.386,-9.187 11.473,-8.123 20.293,-20.047 24.217,-33.572 2.217,-7.642 2.763,-14.981 3.244,-21.456 0.263,-3.538 0.511,-6.88 1.001,-9.818 3.046,-18.266 17.367,-34.269 32.529,-51.211 16.837,-18.813 35.92,-40.136 41.813,-68.427 6.306,-30.268 -4.482,-63.934 -28.152,-87.86 C 77.972,14.098 46.017,4.951 23.605,1.721 15.686,0.579 7.745,0 0.003,0 Z" /></g><g
           transform="translate(-90.6438,180.8323)"
           id="g34"><path
             id="path36"
             style="fill:#a1ccfe;fill-opacity:1;fill-rule:nonzero;stroke:none"
             d="m 0,0 c 8.543,-20.65 26.414,-36.732 47.021,-45.378 20.607,-8.646 43.729,-10.253 65.848,-7.065 25.208,3.633 50.053,13.775 67.966,31.88 17.912,18.104 27.985,44.781 22.791,69.714 -9.758,46.844 -66.62,73.229 -74.49,120.427 -1.605,9.625 -1.007,19.62 -3.726,28.99 -4.024,13.868 -15.648,25.268 -29.592,29.02 -13.944,3.752 -29.719,-0.275 -40.158,-10.251 z" /></g><g
           transform="translate(-32.3567,466.101)"
           id="g38"><path
             id="path40"
             style="fill:none;stroke:#ffffff;stroke-width:11;stroke-linecap:butt;stroke-linejoin:miter;stroke-miterlimit:10;stroke-dasharray:none;stroke-opacity:1"
             d="m 0,0 c 30.565,-1.343 61.419,-2.73 90.964,-10.672 29.546,-7.942 58.09,-23.095 76.658,-47.411 10.795,-14.135 18.082,-31.102 31.195,-43.119 18.594,-17.038 45.302,-21.085 70.306,-24.369 101.748,-13.36 203.496,-26.72 305.244,-40.081" /></g><g
           transform="translate(140.9379,358.665)"
           id="g42"><path
             id="path44"
             style="fill:#95c849;fill-opacity:1;fill-rule:nonzero;stroke:none"
             d="m 0,0 c -7.319,7.831 -14.751,22.5 -23.271,29.003 -8.251,6.297 -18.651,6.65 -27.824,0.065 -11.811,-8.478 -15.236,-24.531 -8.717,-37.526 7.626,-15.202 20.724,-26.151 32.536,-38.445 26.671,-27.761 44.474,-62.751 51.93,-99.965 1.21,-6.04 9.641,-6.563 11.602,-0.723 l 32.867,93.43 c 3.027,8.606 -2.116,17.918 -11.009,19.954 C 36.263,-29.205 14.872,-15.913 0,0" /></g><g
           transform="translate(52.3803,389.6849)"
           id="g46"><path
             id="path48"
             style="fill:none;stroke:#ffffff;stroke-width:11;stroke-linecap:butt;stroke-linejoin:miter;stroke-miterlimit:10;stroke-dasharray:none;stroke-opacity:1"
             d="m 0,0 60.724,40.119 127.294,25.876 153.935,69.988" /></g><g
           transform="translate(133.0848,207.0532)"
           id="g50"><path
             id="path52"
             style="fill:none;stroke:#ffffff;stroke-width:11;stroke-linecap:butt;stroke-linejoin:miter;stroke-miterlimit:10;stroke-dasharray:none;stroke-opacity:1"
             d="m 0,0 c 7.721,-12.558 20.858,-21.656 35.33,-24.467 0.603,-0.117 1.208,-0.223 1.814,-0.318 20.269,-3.183 39.833,9.014 46.724,28.339 l 45.047,126.322 -34.333,188.739" /></g><g
           transform="translate(184.1309,181.7644)"
           id="g54"><path
             id="path56"
             style="fill:none;stroke:#ffffff;stroke-width:11;stroke-linecap:butt;stroke-linejoin:miter;stroke-miterlimit:10;stroke-dasharray:none;stroke-opacity:1"
             d="M 0,0 87.536,-200.097" /></g><g
           transform="translate(521.6667,31.6678)"
           id="g58"><path
             id="path60"
             style="fill:none;stroke:#ffffff;stroke-width:11;stroke-linecap:butt;stroke-linejoin:miter;stroke-miterlimit:10;stroke-dasharray:none;stroke-opacity:1"
             d="M 0,0 -290.666,42.958 -560,0" /></g><g
           transform="translate(394.3333,535.6678)"
           id="g62"><path
             id="path64"
             style="fill:none;stroke:#ffffff;stroke-width:11;stroke-linecap:butt;stroke-linejoin:miter;stroke-miterlimit:10;stroke-dasharray:none;stroke-opacity:1"
             d="M 0,0 -12.946,-214.127 -58,-371.193 -73.596,-474.304" /></g><g
           transform="translate(78.9786,315.9288)"
           id="g66"><path
             id="path68"
             style="fill:none;stroke:#ffffff;stroke-width:5;stroke-linecap:butt;stroke-linejoin:miter;stroke-miterlimit:10;stroke-dasharray:none;stroke-opacity:1"
             d="M 0,0 72.688,68.768" /></g><g
           transform="translate(126.1413,252.5193)"
           id="g70"><path
             id="path72"
             style="fill:none;stroke:#ffffff;stroke-width:5;stroke-linecap:butt;stroke-linejoin:miter;stroke-miterlimit:10;stroke-dasharray:none;stroke-opacity:1"
             d="m 0,0 c 11.351,18.214 32.503,28.743 53.812,31.293 21.309,2.55 42.864,-1.991 63.323,-8.472" /></g><g
           transform="translate(114.3464,347.0011)"
           id="g74"><path
             id="path76"
             style="fill:none;stroke:#ffffff;stroke-width:5;stroke-linecap:butt;stroke-linejoin:miter;stroke-miterlimit:10;stroke-dasharray:none;stroke-opacity:1"
             d="M 0,0 57.508,-64.549" /></g><g
           transform="translate(230.6667,389.6849)"
           id="g78"><path
             id="path80"
             style="fill:#c6c1bd;fill-opacity:1;fill-rule:nonzero;stroke:none"
             d="M 0,0 -58.813,-6.587 V 24.65 H 0 Z" /></g><g
           transform="translate(187,429.3344)"
           id="g82"><path
             id="path84"
             style="fill:#c6c1bd;fill-opacity:1;fill-rule:nonzero;stroke:none"
             d="M 0,0 V -8 H 43.667 V 8.5 Z" /></g><g
           transform="translate(164.75,404.5844)"
           id="g86"><path
             id="path88"
             style="fill:#c6c1bd;fill-opacity:1;fill-rule:nonzero;stroke:none"
             d="M 0,0 H -16.625 V 18.375 L 0,21.736 Z" /></g><g
           transform="translate(244.2289,364.6798)"
           id="g90"><path
             id="path92"
             style="fill:#95c849;fill-opacity:1;fill-rule:nonzero;stroke:none"
             d="m 0,0 c -0.706,4.061 -2.722,8.388 -6.613,9.749 -2.386,0.835 -5.007,0.384 -7.493,-0.075 -3.838,-0.709 -7.676,-1.418 -11.514,-2.127 -3.202,-0.591 -6.505,-1.222 -9.21,-3.035 -2.705,-1.813 -4.676,-5.14 -3.893,-8.301 0.583,-2.351 2.565,-4.156 4.779,-5.139 2.214,-0.984 4.664,-1.272 7.07,-1.55 7.714,-0.888 15.427,-1.777 23.141,-2.666 l 2.142,-0.264 c 1.214,0.416 2.428,0.832 3.641,1.248 C 0.551,-8.32 0.706,-4.061 0,0" /></g><g
           transform="translate(188.9544,355.3242)"
           id="g94"><path
             id="path96"
             style="fill:none;stroke:#ffffff;stroke-width:5;stroke-linecap:butt;stroke-linejoin:miter;stroke-miterlimit:10;stroke-dasharray:none;stroke-opacity:1"
             d="m 0,0 c 0.315,8.445 5.369,16.556 12.811,20.559 4.022,2.164 8.558,3.153 13.051,3.965 12.642,2.287 25.5,3.372 38.345,3.239" /></g><path
           id="path98"
           style="fill:#c6c1bd;fill-opacity:1;fill-rule:nonzero;stroke:none"
           d="m 214,471.001 h -80.915 v 45.333 H 214 Z" /><path
           id="path100"
           style="fill:#c6c1bd;fill-opacity:1;fill-rule:nonzero;stroke:none"
           d="M 103.346,480.251 H 82 v 30 h 21.346 z" /><path
           id="path102"
           style="fill:#c6c1bd;fill-opacity:1;fill-rule:nonzero;stroke:none"
           d="M 72.846,480.251 H 51.5 v 30 h 21.346 z" /><path
           id="path104"
           style="fill:#c6c1bd;fill-opacity:1;fill-rule:nonzero;stroke:none"
           d="M 42.346,480.251 H 21 v 30 h 21.346 z" /><g
           transform="translate(79.7182,450.0982)"
           id="g106"><path
             id="path108"
             style="fill:none;stroke:#ffffff;stroke-width:5;stroke-linecap:butt;stroke-linejoin:miter;stroke-miterlimit:10;stroke-dasharray:none;stroke-opacity:1"
             d="m 0,0 c 12.355,4.34 25.502,9.259 33.089,19.933 4.203,5.913 6.28,13.125 7.053,20.339 0.774,7.214 0.313,14.496 -0.148,21.737" /></g><g
           transform="translate(116.5307,447.601)"
           id="g110"><path
             id="path112"
             style="fill:#95c849;fill-opacity:1;fill-rule:nonzero;stroke:none"
             d="m 0,0 c -1.898,0 -3.438,-1.539 -3.438,-3.438 0,-1.898 1.54,-3.437 3.438,-3.437 1.898,0 3.438,1.539 3.438,3.437 C 3.438,-1.539 1.898,0 0,0" /></g><g
           transform="translate(133.0848,451.0385)"
           id="g114"><path
             id="path116"
             style="fill:#95c849;fill-opacity:1;fill-rule:nonzero;stroke:none"
             d="m 0,0 c -1.898,0 -3.438,-1.539 -3.438,-3.438 0,-1.898 1.54,-3.437 3.438,-3.437 1.898,0 3.438,1.539 3.438,3.437 C 3.438,-1.539 1.898,0 0,0" /></g><g
           transform="translate(223.3568,471.0011)"
           id="g118"><path
             id="path120"
             style="fill:#95c849;fill-opacity:1;fill-rule:nonzero;stroke:none"
             d="m 0,0 c -1.898,0 -3.438,-1.539 -3.438,-3.438 0,-1.898 1.54,-3.437 3.438,-3.437 1.898,0 3.438,1.539 3.438,3.437 C 3.438,-1.539 1.898,0 0,0" /></g><g
           transform="translate(81.3011,464.851)"
           id="g122"><path
             id="path124"
             style="fill:#95c849;fill-opacity:1;fill-rule:nonzero;stroke:none"
             d="m 0,0 c -1.898,0 -3.438,-1.539 -3.438,-3.438 0,-1.898 1.54,-3.437 3.438,-3.437 1.898,0 3.438,1.539 3.438,3.437 C 3.438,-1.539 1.898,0 0,0" /></g><g
           transform="translate(6.5511,497.1053)"
           id="g126"><path
             id="path128"
             style="fill:#95c849;fill-opacity:1;fill-rule:nonzero;stroke:none"
             d="m 0,0 c -1.898,0 -3.438,-1.539 -3.438,-3.438 0,-1.898 1.54,-3.437 3.438,-3.437 1.898,0 3.438,1.539 3.438,3.437 C 3.438,-1.539 1.898,0 0,0" /></g><g
           transform="translate(58.0511,413.2415)"
           id="g130"><path
             id="path132"
             style="fill:#95c849;fill-opacity:1;fill-rule:nonzero;stroke:none"
             d="m 0,0 c -1.898,0 -3.438,-1.539 -3.438,-3.438 0,-1.898 1.54,-3.437 3.438,-3.437 1.898,0 3.438,1.539 3.438,3.437 C 3.438,-1.539 1.898,0 0,0" /></g><g
           transform="translate(92.1761,402.1536)"
           id="g134"><path
             id="path136"
             style="fill:#95c849;fill-opacity:1;fill-rule:nonzero;stroke:none"
             d="m 0,0 c -1.898,0 -3.438,-1.539 -3.438,-3.438 0,-1.898 1.54,-3.437 3.438,-3.437 1.898,0 3.438,1.539 3.438,3.437 C 3.438,-1.539 1.898,0 0,0" /></g><g
           transform="translate(258.2644,450.0982)"
           id="g138"><path
             id="path140"
             style="fill:#95c849;fill-opacity:1;fill-rule:nonzero;stroke:none"
             d="m 0,0 c -1.898,0 -3.438,-1.539 -3.438,-3.438 0,-1.898 1.54,-3.437 3.438,-3.437 1.898,0 3.438,1.539 3.438,3.437 C 3.438,-1.539 1.898,0 0,0" /></g><g
           transform="translate(338.7013,388.1343)"
           id="g142"><path
             id="path144"
             style="fill:#95c849;fill-opacity:1;fill-rule:nonzero;stroke:none"
             d="m 0,0 c -1.898,0 -3.438,-1.539 -3.438,-3.438 0,-1.898 1.54,-3.437 3.438,-3.437 1.898,0 3.438,1.539 3.438,3.437 C 3.438,-1.539 1.898,0 0,0" /></g><g
           transform="translate(360.9727,388.1343)"
           id="g146"><path
             id="path148"
             style="fill:#95c849;fill-opacity:1;fill-rule:nonzero;stroke:none"
             d="m 0,0 c -1.898,0 -3.438,-1.539 -3.438,-3.438 0,-1.898 1.54,-3.437 3.438,-3.437 1.898,0 3.438,1.539 3.438,3.437 C 3.438,-1.539 1.898,0 0,0" /></g><g
           transform="translate(302.8686,320.2719)"
           id="g150"><path
             id="path152"
             style="fill:#95c849;fill-opacity:1;fill-rule:nonzero;stroke:none"
             d="m 0,0 c -1.898,0 -3.438,-1.539 -3.438,-3.438 0,-1.898 1.54,-3.437 3.438,-3.437 1.898,0 3.438,1.539 3.438,3.437 C 3.438,-1.539 1.898,0 0,0" /></g><g
           transform="translate(432.8958,223.6343)"
           id="g154"><path
             id="path156"
             style="fill:#95c849;fill-opacity:1;fill-rule:nonzero;stroke:none"
             d="m 0,0 c -1.898,0 -3.438,-1.539 -3.438,-3.438 0,-1.898 1.54,-3.437 3.438,-3.437 1.898,0 3.438,1.539 3.438,3.437 C 3.438,-1.539 1.898,0 0,0" /></g><g
           transform="translate(487.9583,328.3843)"
           id="g158"><path
             id="path160"
             style="fill:#95c849;fill-opacity:1;fill-rule:nonzero;stroke:none"
             d="m 0,0 c -1.898,0 -3.438,-1.539 -3.438,-3.438 0,-1.898 1.54,-3.437 3.438,-3.437 1.898,0 3.438,1.539 3.438,3.437 C 3.438,-1.539 1.898,0 0,0" /></g><g
           transform="translate(404.9583,457.6763)"
           id="g162"><path
             id="path164"
             style="fill:#95c849;fill-opacity:1;fill-rule:nonzero;stroke:none"
             d="m 0,0 c -1.898,0 -3.438,-1.539 -3.438,-3.438 0,-1.898 1.54,-3.437 3.438,-3.437 1.898,0 3.438,1.539 3.438,3.437 C 3.438,-1.539 1.898,0 0,0" /></g><g
           transform="translate(415.2708,424.7719)"
           id="g166"><path
             id="path168"
             style="fill:#95c849;fill-opacity:1;fill-rule:nonzero;stroke:none"
             d="m 0,0 c -1.898,0 -3.438,-1.539 -3.438,-3.438 0,-1.898 1.54,-3.437 3.438,-3.437 1.898,0 3.438,1.539 3.438,3.437 C 3.438,-1.539 1.898,0 0,0" /></g><g
           transform="translate(484.5208,424.7719)"
           id="g170"><path
             id="path172"
             style="fill:#95c849;fill-opacity:1;fill-rule:nonzero;stroke:none"
             d="m 0,0 c -1.898,0 -3.438,-1.539 -3.438,-3.438 0,-1.898 1.54,-3.437 3.438,-3.437 1.898,0 3.438,1.539 3.438,3.437 C 3.438,-1.539 1.898,0 0,0" /></g><g
           transform="translate(471.0542,387.8339)"
           id="g174"><path
             id="path176"
             style="fill:#95c849;fill-opacity:1;fill-rule:nonzero;stroke:none"
             d="m 0,0 c -1.898,0 -3.438,-1.539 -3.438,-3.438 0,-1.898 1.54,-3.437 3.438,-3.437 1.898,0 3.438,1.539 3.438,3.437 C 3.438,-1.539 1.898,0 0,0" /></g><g
           transform="translate(491.3958,210.6754)"
           id="g178"><path
             id="path180"
             style="fill:#95c849;fill-opacity:1;fill-rule:nonzero;stroke:none"
             d="m 0,0 c -1.898,0 -3.438,-1.539 -3.438,-3.438 0,-1.898 1.54,-3.437 3.438,-3.437 1.898,0 3.438,1.539 3.438,3.437 C 3.438,-1.539 1.898,0 0,0" /></g><g
           transform="translate(161.3125,395.97)"
           id="g182"><path
             id="path184"
             style="fill:#95c849;fill-opacity:1;fill-rule:nonzero;stroke:none"
             d="m 0,0 c -1.898,0 -3.438,-1.539 -3.438,-3.438 0,-1.898 1.54,-3.437 3.438,-3.437 1.898,0 3.438,1.539 3.438,3.437 C 3.438,-1.539 1.898,0 0,0" /></g><g
           transform="translate(178.4998,375.97)"
           id="g186"><path
             id="path188"
             style="fill:#95c849;fill-opacity:1;fill-rule:nonzero;stroke:none"
             d="m 0,0 c -1.898,0 -3.438,-1.539 -3.438,-3.438 0,-1.898 1.54,-3.437 3.438,-3.437 1.898,0 3.438,1.539 3.438,3.437 C 3.438,-1.539 1.898,0 0,0" /></g><g
           transform="translate(217.6206,332.47)"
           id="g190"><path
             id="path192"
             style="fill:#95c849;fill-opacity:1;fill-rule:nonzero;stroke:none"
             d="m 0,0 c -1.898,0 -3.438,-1.539 -3.438,-3.438 0,-1.898 1.54,-3.437 3.438,-3.437 1.898,0 3.438,1.539 3.438,3.437 C 3.438,-1.539 1.898,0 0,0" /></g><g
           transform="translate(151.6667,215.4058)"
           id="g194"><path
             id="path196"
             style="fill:#95c849;fill-opacity:1;fill-rule:nonzero;stroke:none"
             d="m 0,0 c -1.898,0 -3.438,-1.539 -3.438,-3.438 0,-1.898 1.54,-3.437 3.438,-3.437 1.898,0 3.438,1.539 3.438,3.437 C 3.438,-1.539 1.898,0 0,0" /></g><g
           transform="translate(243.2765,89.5012)"
           id="g198"><path
             id="path200"
             style="fill:#95c849;fill-opacity:1;fill-rule:nonzero;stroke:none"
             d="m 0,0 c -1.898,0 -3.438,-1.539 -3.438,-3.438 0,-1.898 1.54,-3.437 3.438,-3.437 1.898,0 3.438,1.539 3.438,3.437 C 3.438,-1.539 1.898,0 0,0" /></g><g
           transform="translate(125.2564,78.0637)"
           id="g202"><path
             id="path204"
             style="fill:#95c849;fill-opacity:1;fill-rule:nonzero;stroke:none"
             d="m 0,0 c -1.898,0 -3.438,-1.539 -3.438,-3.438 0,-1.898 1.54,-3.437 3.438,-3.437 1.898,0 3.438,1.539 3.438,3.437 C 3.438,-1.539 1.898,0 0,0" /></g><g
           transform="translate(86.5064,71.5864)"
           id="g206"><path
             id="path208"
             style="fill:#95c849;fill-opacity:1;fill-rule:nonzero;stroke:none"
             d="m 0,0 c -1.898,0 -3.438,-1.539 -3.438,-3.438 0,-1.898 1.54,-3.437 3.438,-3.437 1.898,0 3.438,1.539 3.438,3.437 C 3.438,-1.539 1.898,0 0,0" /></g><g
           transform="translate(13.2564,58.1053)"
           id="g210"><path
             id="path212"
             style="fill:#95c849;fill-opacity:1;fill-rule:nonzero;stroke:none"
             d="m 0,0 c -1.898,0 -3.438,-1.539 -3.438,-3.438 0,-1.898 1.54,-3.437 3.438,-3.437 1.898,0 3.438,1.539 3.438,3.437 C 3.438,-1.539 1.898,0 0,0" /></g><g
           transform="translate(308.1926,78.4614)"
           id="g214"><path
             id="path216"
             style="fill:#95c849;fill-opacity:1;fill-rule:nonzero;stroke:none"
             d="m 0,0 c -1.898,0 -3.438,-1.539 -3.438,-3.438 0,-1.898 1.54,-3.437 3.438,-3.437 1.898,0 3.438,1.539 3.438,3.437 C 3.438,-1.539 1.898,0 0,0" /></g><g
           transform="translate(357.5352,45.4614)"
           id="g218"><path
             id="path220"
             style="fill:#95c849;fill-opacity:1;fill-rule:nonzero;stroke:none"
             d="m 0,0 c -1.898,0 -3.438,-1.539 -3.438,-3.438 0,-1.898 1.54,-3.437 3.438,-3.437 1.898,0 3.438,1.539 3.438,3.437 C 3.438,-1.539 1.898,0 0,0" /></g><g
           transform="translate(408.9727,66.2535)"
           id="g222"><path
             id="path224"
             style="fill:#95c849;fill-opacity:1;fill-rule:nonzero;stroke:none"
             d="m 0,0 c -1.898,0 -3.438,-1.539 -3.438,-3.438 0,-1.898 1.54,-3.437 3.438,-3.437 1.898,0 3.438,1.539 3.438,3.437 C 3.438,-1.539 1.898,0 0,0" /></g><g
           transform="translate(459.2227,25.5035)"
           id="g226"><path
             id="path228"
             style="fill:#95c849;fill-opacity:1;fill-rule:nonzero;stroke:none"
             d="m 0,0 c -1.898,0 -3.438,-1.539 -3.438,-3.438 0,-1.898 1.54,-3.437 3.438,-3.437 1.898,0 3.438,1.539 3.438,3.437 C 3.438,-1.539 1.898,0 0,0" /></g><g
           transform="translate(296.4727,12.1886)"
           id="g230"><path
             id="path232"
             style="fill:#95c849;fill-opacity:1;fill-rule:nonzero;stroke:none"
             d="m 0,0 c -1.898,0 -3.438,-1.539 -3.438,-3.438 0,-1.898 1.54,-3.437 3.438,-3.437 1.898,0 3.438,1.539 3.438,3.437 C 3.438,-1.539 1.898,0 0,0" /></g><g
           transform="translate(142.3477,178.2002)"
           id="g234"><path
             id="path236"
             style="fill:#95c849;fill-opacity:1;fill-rule:nonzero;stroke:none"
             d="m 0,0 c -1.898,0 -3.438,-1.539 -3.438,-3.438 0,-1.898 1.54,-3.437 3.438,-3.437 1.898,0 3.438,1.539 3.438,3.437 C 3.438,-1.539 1.898,0 0,0" /></g><g
           transform="translate(473.4727,154.674)"
           id="g238"><path
             id="path240"
             style="fill:#95c849;fill-opacity:1;fill-rule:nonzero;stroke:none"
             d="m 0,0 c -1.898,0 -3.438,-1.539 -3.438,-3.438 0,-1.898 1.54,-3.437 3.438,-3.437 1.898,0 3.438,1.539 3.438,3.437 C 3.438,-1.539 1.898,0 0,0" /></g><g
           transform="translate(491.3958,137.4339)"
           id="g242"><path
             id="path244"
             style="fill:#95c849;fill-opacity:1;fill-rule:nonzero;stroke:none"
             d="m 0,0 c -1.898,0 -3.438,-1.539 -3.438,-3.438 0,-1.898 1.54,-3.437 3.438,-3.437 1.898,0 3.438,1.539 3.438,3.437 C 3.438,-1.539 1.898,0 0,0" /></g><g
           transform="translate(328.3363,194.7719)"
           id="g246"><path
             id="path248"
             style="fill:#95c849;fill-opacity:1;fill-rule:nonzero;stroke:none"
             d="m 0,0 c -1.898,0 -3.438,-1.539 -3.438,-3.438 0,-1.898 1.54,-3.437 3.438,-3.437 1.898,0 3.438,1.539 3.438,3.437 C 3.438,-1.539 1.898,0 0,0" /></g><g
           transform="translate(220.8745,147.2851)"
           id="g250"><path
             id="path252"
             style="fill:#95c849;fill-opacity:1;fill-rule:nonzero;stroke:none"
             d="m 0,0 c -1.898,0 -3.438,-1.539 -3.438,-3.438 0,-1.898 1.54,-3.437 3.438,-3.437 1.898,0 3.438,1.539 3.438,3.437 C 3.438,-1.539 1.898,0 0,0" /></g><g
           transform="translate(301.3176,212.3437)"
           id="g254"><path
             id="path256"
             style="fill:#95c849;fill-opacity:1;fill-rule:nonzero;stroke:none"
             d="m 0,0 c -1.898,0 -3.438,-1.539 -3.438,-3.438 0,-1.898 1.54,-3.437 3.438,-3.437 1.898,0 3.438,1.539 3.438,3.437 C 3.438,-1.539 1.898,0 0,0" /></g><g
           transform="translate(336.3363,213.8433)"
           id="g258"><path
             id="path260"
             style="fill:#95c849;fill-opacity:1;fill-rule:nonzero;stroke:none"
             d="m 0,0 c -1.898,0 -3.438,-1.539 -3.438,-3.438 0,-1.898 1.54,-3.437 3.438,-3.437 1.898,0 3.438,1.539 3.438,3.437 C 3.438,-1.539 1.898,0 0,0" /></g><g
           transform="translate(261.4188,288.7178)"
           id="g262"><path
             id="path264"
             style="fill:#95c849;fill-opacity:1;fill-rule:nonzero;stroke:none"
             d="m 0,0 c -1.898,0 -3.438,-1.539 -3.438,-3.438 0,-1.898 1.54,-3.437 3.438,-3.437 1.898,0 3.438,1.539 3.438,3.437 C 3.438,-1.539 1.898,0 0,0" /></g><g
           transform="translate(169.4167,199.1558)"
           id="g266"><path
             id="path268"
             style="fill:#95c849;fill-opacity:1;fill-rule:nonzero;stroke:none"
             d="m 0,0 c -1.898,0 -3.438,-1.539 -3.438,-3.438 0,-1.898 1.54,-3.437 3.438,-3.437 1.898,0 3.438,1.539 3.438,3.437 C 3.438,-1.539 1.898,0 0,0" /></g><g
           transform="translate(99.6876,406.9207)"
           id="g270"><path
             id="path272"
             style="fill:#c6c1bd;fill-opacity:1;fill-rule:nonzero;stroke:none"
             d="M 0,0 6.131,-7.326 18.76,3.244 12.629,10.57 Z" /></g><g
           transform="translate(254.8269,383.2752)"
           id="g274"><path
             id="path276"
             style="fill:none;stroke:#ffffff;stroke-width:5;stroke-linecap:butt;stroke-linejoin:miter;stroke-miterlimit:10;stroke-dasharray:none;stroke-opacity:1"
             d="M 0,0 131.821,25.267" /></g><g
           transform="translate(393.129,469.1732)"
           id="g278"><path
             id="path280"
             style="fill:none;stroke:#ffffff;stroke-width:11;stroke-linecap:butt;stroke-linejoin:miter;stroke-miterlimit:10;stroke-dasharray:none;stroke-opacity:1"
             d="m 0,0 c 13.809,0.79 27.857,-4.049 38.25,-13.175 12.319,-10.817 19.03,-26.673 30.196,-38.676 10.064,-10.818 23.436,-18.121 37.39,-22.976 13.954,-4.855 28.584,-7.412 43.139,-9.95" /></g><g
           transform="translate(227.8988,250.0011)"
           id="g282"><path
             id="path284"
             style="fill:none;stroke:#ffffff;stroke-width:11;stroke-linecap:butt;stroke-linejoin:miter;stroke-miterlimit:10;stroke-dasharray:none;stroke-opacity:1"
             d="m 0,0 108.435,-85.526 h 226" /></g><g
           transform="translate(390.5589,147.787)"
           id="g286"><path
             id="path288"
             style="fill:#95c849;fill-opacity:1;fill-rule:nonzero;stroke:none"
             d="m 0,0 -37.103,0.012 c -2.46,10e-4 -4.553,-1.796 -4.924,-4.228 L -51.8,-68.191 c -0.418,-2.737 1.477,-5.29 4.218,-5.682 l 15.912,-2.277 c 2.498,-0.357 4.875,1.209 5.512,3.651 6.016,23.051 16.253,45.244 30.178,64.592 C 6.397,-4.604 4.071,-0.001 0,0" /></g><g
           transform="translate(514.0912,507.8807)"
           id="g290"><path
             id="path292"
             style="fill:#95c849;fill-opacity:1;fill-rule:nonzero;stroke:none"
             d="m 0,0 -36.521,19.757 c -1.222,0.661 -2.652,0.827 -3.993,0.464 L -102.742,3.368 c -2.209,-0.598 -3.803,-2.52 -3.984,-4.801 l -1.266,-15.983 c -0.227,-2.862 1.817,-5.427 4.665,-5.789 14.944,-1.9 28.49,-11.861 38.693,-23.172 3.581,-3.971 7.011,-8.508 12.041,-10.32 4.634,-1.669 9.752,-0.693 14.575,0.301 14.636,3.016 29.271,6.031 43.906,9.046 2.914,0.6 4.798,3.438 4.221,6.357 L 2.737,-3.714 C 2.423,-2.13 1.42,-0.768 0,0" /></g><g
           transform="translate(65.3137,119.6852)"
           id="g294"><path
             id="path296"
             style="fill:none;stroke:#ffffff;stroke-width:5;stroke-linecap:butt;stroke-linejoin:miter;stroke-miterlimit:10;stroke-dasharray:none;stroke-opacity:1"
             d="M 0,0 C 14.749,-25.138 35.458,-46.752 59.943,-62.561" /></g><g
           transform="translate(241.9994,275.9711)"
           id="g298"><path
             id="path300"
             style="fill:none;stroke:#ffffff;stroke-width:5;stroke-linecap:butt;stroke-linejoin:miter;stroke-miterlimit:10;stroke-dasharray:none;stroke-opacity:1"
             d="M 0,0 C 41.837,-0.802 83.674,-1.604 125.511,-2.407" /></g><g
           transform="translate(525.5,161.4847)"
           id="g302"><path
             id="path304"
             style="fill:none;stroke:#ffffff;stroke-width:5;stroke-linecap:butt;stroke-linejoin:miter;stroke-miterlimit:10;stroke-dasharray:none;stroke-opacity:1"
             d="m 0,0 c -25.897,-1.694 -50.055,-19.487 -59.354,-43.717 -5.364,-13.977 -5.991,-29.233 -7.836,-44.09 -3.707,-29.854 -12.6,-59.057 -26.163,-85.91" /></g><g
           transform="translate(312,343.2511)"
           id="g306"><path
             id="path308"
             style="fill:#c6c1bd;fill-opacity:1;fill-rule:nonzero;stroke:none"
             d="m 0,0 55.511,-6.321 1.644,35.602 H 0 Z" /></g><path
           id="path310"
           style="fill:#c6c1bd;fill-opacity:1;fill-rule:nonzero;stroke:none"
           d="M 301.5,345.001 H 278 v 34.25 h 23.5 z" /><g
           transform="translate(297.3807,466.101)"
           id="g312"><path
             id="path314"
             style="fill:#c6c1bd;fill-opacity:1;fill-rule:nonzero;stroke:none"
             d="m 0,0 -25.931,-11.753 4.8,-51.412 L 0,-57.403 Z" /></g><g
           transform="translate(313.1193,463.0991)"
           id="g316"><path
             id="path318"
             style="fill:#c6c1bd;fill-opacity:1;fill-rule:nonzero;stroke:none"
             d="m 0,0 v -60.245 l 56.036,15.28 4.345,72.333 z" /></g><path
           id="path320"
           style="fill:#c6c1bd;fill-opacity:1;fill-rule:nonzero;stroke:none"
           d="M 80,422.668 H 64.833 v 15.167 H 80 Z" /><path
           id="path322"
           style="fill:#c6c1bd;fill-opacity:1;fill-rule:nonzero;stroke:none"
           d="M 54,428.997 H 38.833 v 15.167 H 54 Z" /><path
           id="path324"
           style="fill:#c6c1bd;fill-opacity:1;fill-rule:nonzero;stroke:none"
           d="M 28.583,436.58 H 13.416 v 15.167 h 15.167 z" /><path
           id="path326"
           style="fill:#c6c1bd;fill-opacity:1;fill-rule:nonzero;stroke:none"
           d="m 477,225.334 h 33 v 65 h -33 z" /><path
           id="path328"
           style="fill:#c6c1bd;fill-opacity:1;fill-rule:nonzero;stroke:none"
           d="m 534.333,184.001 h -68 v 14.667 h 68 z" /><g
           transform="translate(395.5344,228.3345)"
           id="g330"><path
             id="path332"
             style="fill:#c6c1bd;fill-opacity:1;fill-rule:nonzero;stroke:none"
             d="m 0,0 v 28 h -12.201 l -20,-76.667 h 58.333 l 0,48.667 z" /></g><g
           transform="translate(395.1161,302.6678)"
           id="g334"><path
             id="path336"
             style="fill:#c6c1bd;fill-opacity:1;fill-rule:nonzero;stroke:none"
             d="m 0,0 -7.783,-27.9 h 49 v 23.748 z" /></g><path
           id="path338"
           style="fill:#c6c1bd;fill-opacity:1;fill-rule:nonzero;stroke:none"
           d="m 436.333,239.334 h -24.5 v 24.5 h 24.5 z" /><g
           transform="translate(245.2367,503.3155)"
           id="g340"><path
             id="path342"
             style="fill:#95c849;fill-opacity:1;fill-rule:nonzero;stroke:none"
             d="m 0,0 4.013,-22.802 c 0.379,-2.154 2.694,-3.365 4.68,-2.449 L 51.378,-5.55 c 3.137,1.448 2.271,6.124 -1.176,6.353 L 3.504,3.904 C 1.346,4.047 -0.375,2.13 0,0" /></g><g
           transform="translate(257.9813,208.8527)"
           id="g344"><path
             id="path346"
             style="fill:#c6c1bd;fill-opacity:1;fill-rule:nonzero;stroke:none"
             d="m 0,0 -18.481,14.782 -18.626,-40.516 18.17,-17.754 z" /></g><g
           transform="translate(294.1325,179.9384)"
           id="g348"><path
             id="path350"
             style="fill:#c6c1bd;fill-opacity:1;fill-rule:nonzero;stroke:none"
             d="m 0,0 -29.68,23.739 -19.287,-44.293 28.073,-27.429 z" /></g><g
           transform="translate(300.6036,174.7627)"
           id="g352"><path
             id="path354"
             style="fill:#c6c1bd;fill-opacity:1;fill-rule:nonzero;stroke:none"
             d="m 0,0 -21.244,-48.789 29.14,-28.473 10.75,62.348 z" /></g><g
           transform="translate(268,47.4614)"
           id="g356"><path
             id="path358"
             style="fill:#c6c1bd;fill-opacity:1;fill-rule:nonzero;stroke:none"
             d="M 0,0 8.75,-30.46 H 43.63 V 0 Z" /></g><path
           id="path360"
           style="fill:#c6c1bd;fill-opacity:1;fill-rule:nonzero;stroke:none"
           d="m 343.5,8.501 h -17.164 v 35.96 H 343.5 Z" /><path
           id="path362"
           style="fill:#c6c1bd;fill-opacity:1;fill-rule:nonzero;stroke:none"
           d="M 354.667,286.199 H 280.5 v 22.5 h 74.167 z" /><path
           id="path364"
           style="fill:#c6c1bd;fill-opacity:1;fill-rule:nonzero;stroke:none"
           d="m 285,316.834 h -14.333 v 6.5 H 285 Z" /><g
           transform="translate(311,263.8345)"
           id="g366"><path
             id="path368"
             style="fill:#c6c1bd;fill-opacity:1;fill-rule:nonzero;stroke:none"
             d="M 0,0 H -6.245 V -34.333 H 27.167 L 37.5,0 Z" /></g><path
           id="path370"
           style="fill:#c6c1bd;fill-opacity:1;fill-rule:nonzero;stroke:none"
           d="M 262.333,260.334 H 283.5 v 7 h -21.167 z" /><path
           id="path372"
           style="fill:#c6c1bd;fill-opacity:1;fill-rule:nonzero;stroke:none"
           d="M 262.333,249.019 H 283.5 v 7 h -21.167 z" /><path
           id="path374"
           style="fill:#c6c1bd;fill-opacity:1;fill-rule:nonzero;stroke:none"
           d="M 262.333,237.704 H 283.5 v 7 h -21.167 z" /><g
           transform="translate(266.956,219.1953)"
           id="g376"><path
             id="path378"
             style="fill:none;stroke:#ffffff;stroke-width:5;stroke-linecap:butt;stroke-linejoin:miter;stroke-miterlimit:10;stroke-dasharray:none;stroke-opacity:1"
             d="M 0,0 H 83.987" /></g><g
           transform="translate(183.1223,124.7379)"
           id="g380"><path
             id="path382"
             style="fill:#95c849;fill-opacity:1;fill-rule:nonzero;stroke:none"
             d="m 0,0 -12.216,-39.874 c -0.692,-2.259 1.205,-4.469 3.542,-4.128 l 31.864,4.653 c 2.23,0.326 3.444,2.784 2.345,4.753 L 5.888,0.625 C 4.507,3.101 0.831,2.711 0,0" /></g><g
           transform="translate(453.25,431.5186)"
           id="g384"><path
             id="path386"
             style="fill:none;stroke:#ffffff;stroke-width:5;stroke-linecap:butt;stroke-linejoin:miter;stroke-miterlimit:10;stroke-dasharray:none;stroke-opacity:1"
             d="M 0,0 71,10.983" /></g><g
           transform="translate(449.4376,374.1166)"
           id="g388"><path
             id="path390"
             style="fill:#c6c1bd;fill-opacity:1;fill-rule:nonzero;stroke:none"
             d="M 0,0 1.812,28.737 -47.917,30.144 -49.493,0 Z" /></g><g
           transform="translate(399.5664,365.8856)"
           id="g392"><path
             id="path394"
             style="fill:#c6c1bd;fill-opacity:1;fill-rule:nonzero;stroke:none"
             d="M 0,0 -1.566,-29.956 47.184,-35.384 49.415,0 Z" /></g><g
           transform="translate(459.3414,131.6166)"
           id="g396"><path
             id="path398"
             style="fill:#c6c1bd;fill-opacity:1;fill-rule:nonzero;stroke:none"
             d="m 0,0 2.409,11.634 h -20.75 L -24.468,0 Z" /></g><g
           transform="translate(454.4247,107.8666)"
           id="g400"><path
             id="path402"
             style="fill:#c6c1bd;fill-opacity:1;fill-rule:nonzero;stroke:none"
             d="M 0,0 3.42,16.519 H -23.359 L -32.057,0 Z" /></g><g
           transform="translate(418.5601,100.6356)"
           id="g404"><path
             id="path406"
             style="fill:#c6c1bd;fill-opacity:1;fill-rule:nonzero;stroke:none"
             d="M 0,0 -14.025,-26.634 27.94,-31.049 34.368,0 Z" /></g><path
           id="path408"
           style="fill:#c6c1bd;fill-opacity:1;fill-rule:nonzero;stroke:none"
           d="m 478.823,81.716 h 39.927 v 42.669 h -39.927 z" /><path
           id="path410"
           style="fill:#c6c1bd;fill-opacity:1;fill-rule:nonzero;stroke:none"
           d="m 521.667,56.147 h -51.631 v 13.107 h 51.631 z" /><g
           transform="translate(125.2564,54.6678)"
           id="g412"><path
             id="path414"
             style="fill:none;stroke:#ffffff;stroke-width:5;stroke-linecap:butt;stroke-linejoin:miter;stroke-miterlimit:10;stroke-dasharray:none;stroke-opacity:1"
             d="M 0,0 104.077,-102.333" /></g><g
           transform="translate(57,43.6678)"
           id="g416"><path
             id="path418"
             style="fill:none;stroke:#ffffff;stroke-width:5;stroke-linecap:butt;stroke-linejoin:miter;stroke-miterlimit:10;stroke-dasharray:none;stroke-opacity:1"
             d="M 0,0 -13.667,-123.667" /></g><g
           transform="translate(203.324,191.3344)"
           id="g420"><path
             id="path422"
             style="fill:none;stroke:#ffffff;stroke-width:5;stroke-linecap:butt;stroke-linejoin:miter;stroke-miterlimit:10;stroke-dasharray:none;stroke-opacity:1"
             d="M 0,0 84.676,-123.186" /></g><path
           id="path424"
           style="fill:#c6c1bd;fill-opacity:1;fill-rule:nonzero;stroke:none"
           d="m 430,11.501 h -31.75 v 18.73 H 430 Z" /><g
           transform="translate(467.75,24.5011)"
           id="g426"><path
             id="path428"
             style="fill:#c6c1bd;fill-opacity:1;fill-rule:nonzero;stroke:none"
             d="M 0,0 -9.558,-31.5 H 23.25 l -1.5,27.865 z" /></g><path
           id="path430"
           style="fill:#c6c1bd;fill-opacity:1;fill-rule:nonzero;stroke:none"
           d="M 73.333,64.334 H 6.5 v 27.5 h 66.833 z" /><g
           transform="translate(130.5788,157.3345)"
           id="g432"><path
             id="path434"
             style="fill:#c6c1bd;fill-opacity:1;fill-rule:nonzero;stroke:none"
             d="M 0,0 -34.294,-50.461 3.86,-68.93 27.088,-10.833 Z" /></g><g
           transform="translate(102.5976,-62.0737)"
           id="g436"><path
             id="path438"
             style="fill:none;stroke:#ffc73e;stroke-width:12;stroke-linecap:butt;stroke-linejoin:miter;stroke-miterlimit:10;stroke-dasharray:none;stroke-opacity:1"
             d="m 0,0 130.08,389.026 c 18.71,55.953 66.817,96.98 125.023,106.621 l 196.374,32.528" /></g><g
           transform="translate(121.8189,-115.9989)"
           id="g440"><path
             id="path442"
             style="fill:none;stroke:#ffc73e;stroke-width:12;stroke-linecap:butt;stroke-linejoin:miter;stroke-miterlimit:10;stroke-dasharray:none;stroke-opacity:1"
             d="M 0,0 229.517,651.667" /></g><g
           transform="translate(570.2428,504.1578)"
           id="g444"><path
             id="path446"
             style="fill:none;stroke:#ffc73e;stroke-width:12;stroke-linecap:butt;stroke-linejoin:miter;stroke-miterlimit:10;stroke-dasharray:none;stroke-opacity:1"
             d="m 0,0 -303.901,-53.154 c -74.358,-13.006 -150.915,-2.987 -219.423,28.714 l -95.321,44.11" /></g><g
           transform="translate(230.873,106.7917)"
           id="g448"><path
             id="path450"
             style="fill:#c6c1bd;fill-opacity:1;fill-rule:nonzero;stroke:none"
             d="M 0,0 5.705,-11.457 23.794,-6.124 16.092,5.924 Z" /></g><g
           transform="translate(244.2087,117.0279)"
           id="g452"><path
             id="path454"
             style="fill:#c6c1bd;fill-opacity:1;fill-rule:nonzero;stroke:none"
             d="m 0,0 -9.542,14.927 -13.792,-5.081 7.757,-15.58 z" /></g><g
           transform="translate(325.4247,276.1443)"
           id="g456"><path
             id="path458"
             style="fill:#fe636e;fill-opacity:1;fill-rule:nonzero;stroke:none"
             d="m 0,0 c -9.434,0 -17.077,7.643 -17.077,17.077 0,9.418 7.643,17.061 17.077,17.061 9.418,0 17.061,-7.643 17.061,-17.061 C 17.061,7.643 9.418,0 0,0 m 25.269,16.556 c 0,13.954 -11.309,25.278 -25.277,25.278 -13.968,0 -25.277,-11.324 -25.277,-25.278 0,-3.741 0.823,-7.279 2.282,-10.472 h -0.015 l 0.217,-0.404 c 0.303,-0.636 0.636,-1.257 0.982,-1.878 l 19.122,-36.179 c 1.142,-2.161 4.236,-2.161 5.378,0 L 21.803,3.802 c 0.346,0.621 0.679,1.242 0.982,1.878 l 0.217,0.404 h -0.015 c 1.445,3.193 2.282,6.731 2.282,10.472" /></g><g
           transform="translate(325.1344,276.1589)"
           id="g460"><path
             id="path462"
             style="fill:#fe7f89;fill-opacity:1;fill-rule:nonzero;stroke:none"
             d="m 0,0 c -9.299,0.156 -16.787,7.726 -16.787,17.062 0,9.321 7.488,16.89 16.787,17.046 v 7.704 C -13.837,41.66 -24.995,30.4 -24.995,16.542 c 0,-3.741 0.823,-7.28 2.282,-10.472 h -0.014 l 0.216,-0.405 c 0.304,-0.635 0.636,-1.256 0.982,-1.877 l 19.122,-36.18 c 0.52,-0.983 1.446,-1.496 2.407,-1.584 z" /></g></g></g><g
       id="g464"><g
         clip-path="url(#clipPath470)"
         id="g466"><g
           transform="translate(175.5774,25.3386)"
           id="g472"><path
             id="path474"
             style="fill:#454545;fill-opacity:1;fill-rule:nonzero;stroke:none"
             d="m 0,0 c 0,-0.439 0.068,-0.813 0.205,-1.122 0.137,-0.309 0.323,-0.541 0.561,-0.697 0.237,-0.157 0.497,-0.235 0.777,-0.235 0.285,0 0.545,0.074 0.781,0.223 0.236,0.148 0.424,0.376 0.564,0.682 0.141,0.307 0.21,0.691 0.21,1.149 0,0.432 -0.069,0.803 -0.21,1.114 -0.14,0.31 -0.33,0.547 -0.57,0.712 C 2.079,1.99 1.816,2.072 1.532,2.072 1.235,2.072 0.97,1.987 0.736,1.819 0.503,1.652 0.322,1.411 0.193,1.096 0.064,0.781 0,0.416 0,0 m 3.188,-2.38 v 0.16 C 2.97,-2.469 2.755,-2.672 2.544,-2.828 2.332,-2.985 2.102,-3.104 1.855,-3.184 1.608,-3.267 1.338,-3.306 1.045,-3.306 c -0.388,0 -0.747,0.081 -1.078,0.246 -0.33,0.164 -0.616,0.399 -0.857,0.703 -0.242,0.305 -0.425,0.663 -0.55,1.075 -0.124,0.412 -0.187,0.857 -0.187,1.335 0,1.013 0.248,1.804 0.743,2.37 0.494,0.565 1.145,0.848 1.953,0.848 0.466,0 0.86,-0.081 1.181,-0.24 C 2.571,2.87 2.883,2.623 3.188,2.292 v 2.392 c 0,0.332 0.066,0.583 0.199,0.754 0.132,0.17 0.321,0.255 0.567,0.255 0.245,0 0.434,-0.078 0.566,-0.235 C 4.653,5.301 4.719,5.072 4.719,4.767 V -2.38 c 0,-0.309 -0.071,-0.541 -0.213,-0.695 -0.143,-0.154 -0.327,-0.231 -0.552,-0.231 -0.222,0 -0.405,0.08 -0.55,0.24 -0.144,0.161 -0.216,0.389 -0.216,0.686" /></g><g
           transform="translate(182.7417,25.8489)"
           id="g476"><path
             id="path478"
             style="fill:#454545;fill-opacity:1;fill-rule:nonzero;stroke:none"
             d="M 0,0 H 2.939 C 2.899,0.554 2.749,0.969 2.49,1.244 2.231,1.519 1.89,1.656 1.466,1.656 1.063,1.656 0.731,1.517 0.472,1.238 0.213,0.959 0.056,0.546 0,0 M 3.169,-0.92 H 0 c 0.004,-0.368 0.078,-0.693 0.223,-0.973 0.144,-0.282 0.336,-0.494 0.575,-0.636 0.24,-0.143 0.504,-0.213 0.793,-0.213 0.194,0 0.371,0.022 0.531,0.067 0.161,0.047 0.316,0.117 0.467,0.215 0.15,0.096 0.288,0.2 0.415,0.311 0.126,0.112 0.29,0.262 0.492,0.452 0.083,0.071 0.202,0.107 0.357,0.107 0.166,0 0.3,-0.046 0.403,-0.137 C 4.359,-1.819 4.411,-1.946 4.411,-2.113 4.411,-2.26 4.353,-2.43 4.239,-2.626 4.123,-2.822 3.95,-3.01 3.719,-3.19 3.487,-3.37 3.197,-3.519 2.846,-3.638 2.496,-3.757 2.094,-3.817 1.638,-3.817 c -1.04,0 -1.85,0.298 -2.428,0.891 -0.577,0.593 -0.866,1.399 -0.866,2.416 0,0.479 0.071,0.923 0.213,1.332 0.143,0.41 0.351,0.761 0.623,1.054 0.274,0.293 0.61,0.517 1.01,0.674 0.4,0.156 0.843,0.234 1.33,0.234 0.633,0 1.176,-0.133 1.628,-0.401 C 3.602,2.117 3.942,1.771 4.167,1.348 4.392,0.925 4.505,0.492 4.505,0.054 4.505,-0.354 4.389,-0.618 4.156,-0.739 3.922,-0.859 3.593,-0.92 3.169,-0.92" /></g><g
           transform="translate(193.2956,24.1521)"
           id="g480"><path
             id="path482"
             style="fill:#454545;fill-opacity:1;fill-rule:nonzero;stroke:none"
             d="M 0,0 C 0,-0.447 -0.108,-0.831 -0.327,-1.149 -0.544,-1.468 -0.865,-1.71 -1.291,-1.874 -1.716,-2.038 -2.234,-2.12 -2.843,-2.12 c -0.582,0 -1.081,0.089 -1.496,0.268 -0.416,0.177 -0.723,0.401 -0.92,0.667 -0.198,0.268 -0.297,0.535 -0.297,0.805 0,0.178 0.063,0.33 0.19,0.456 0.126,0.127 0.287,0.19 0.481,0.19 0.17,0 0.3,-0.041 0.391,-0.124 0.092,-0.083 0.179,-0.201 0.261,-0.35 0.167,-0.29 0.366,-0.504 0.597,-0.648 0.232,-0.142 0.547,-0.213 0.947,-0.213 0.325,0 0.591,0.072 0.799,0.216 0.207,0.146 0.311,0.31 0.311,0.497 0,0.285 -0.107,0.491 -0.323,0.622 -0.216,0.131 -0.571,0.256 -1.066,0.375 -0.558,0.138 -1.012,0.284 -1.362,0.436 -0.351,0.152 -0.631,0.353 -0.84,0.602 -0.21,0.25 -0.315,0.557 -0.315,0.921 0,0.324 0.097,0.631 0.291,0.92 0.194,0.288 0.48,0.519 0.858,0.691 0.378,0.173 0.833,0.259 1.368,0.259 0.419,0 0.797,-0.044 1.131,-0.132 C -1.503,4.252 -1.223,4.135 -1,3.988 -0.776,3.842 -0.606,3.68 -0.49,3.502 -0.373,3.324 -0.315,3.15 -0.315,2.979 -0.315,2.794 -0.377,2.641 -0.501,2.522 -0.626,2.404 -0.803,2.344 -1.033,2.344 c -0.166,0 -0.308,0.047 -0.424,0.143 -0.117,0.095 -0.25,0.237 -0.401,0.427 -0.123,0.158 -0.266,0.285 -0.433,0.38 -0.166,0.095 -0.392,0.142 -0.677,0.142 -0.293,0 -0.536,-0.061 -0.73,-0.187 -0.194,-0.124 -0.291,-0.279 -0.291,-0.465 0,-0.171 0.071,-0.31 0.213,-0.419 0.143,-0.109 0.335,-0.2 0.577,-0.27 C -2.958,2.024 -2.626,1.937 -2.202,1.834 -1.7,1.711 -1.289,1.564 -0.97,1.395 -0.652,1.225 -0.411,1.024 -0.246,0.792 -0.082,0.56 0,0.297 0,0" /></g><g
           transform="translate(195.7528,27.7013)"
           id="g484"><path
             id="path486"
             style="fill:#454545;fill-opacity:1;fill-rule:nonzero;stroke:none"
             d="m 0,0 v -4.683 c 0,-0.325 -0.077,-0.571 -0.232,-0.737 -0.154,-0.166 -0.35,-0.249 -0.587,-0.249 -0.238,0 -0.431,0.085 -0.579,0.255 -0.149,0.171 -0.223,0.414 -0.223,0.731 v 4.636 c 0,0.32 0.074,0.562 0.223,0.724 0.148,0.162 0.341,0.243 0.579,0.243 0.237,0 0.433,-0.081 0.587,-0.243 C -0.077,0.515 0,0.289 0,0 m -0.802,1.674 c -0.225,0 -0.418,0.069 -0.578,0.208 -0.16,0.138 -0.241,0.334 -0.241,0.588 0,0.23 0.082,0.418 0.247,0.567 0.164,0.148 0.355,0.222 0.572,0.222 0.21,0 0.396,-0.067 0.558,-0.202 C -0.081,2.922 0,2.727 0,2.47 0,2.22 -0.08,2.025 -0.238,1.885 -0.396,1.744 -0.584,1.674 -0.802,1.674" /></g><g
           transform="translate(198.1564,25.3801)"
           id="g488"><path
             id="path490"
             style="fill:#454545;fill-opacity:1;fill-rule:nonzero;stroke:none"
             d="m 0,0 c 0,-0.657 0.143,-1.153 0.43,-1.49 0.287,-0.337 0.658,-0.505 1.113,-0.505 0.269,0 0.523,0.073 0.763,0.217 0.24,0.145 0.434,0.363 0.585,0.653 0.15,0.291 0.226,0.644 0.226,1.06 0,0.66 -0.146,1.175 -0.437,1.543 C 2.389,1.846 2.006,2.03 1.531,2.03 1.068,2.03 0.697,1.854 0.418,1.502 0.139,1.15 0,0.649 0,0 m 4.696,2.054 v -4.707 c 0,-0.538 -0.058,-1.002 -0.173,-1.39 C 4.409,-4.43 4.225,-4.751 3.971,-5.004 3.718,-5.257 3.386,-5.445 2.977,-5.568 2.567,-5.691 2.058,-5.752 1.448,-5.752 c -0.558,0 -1.057,0.078 -1.496,0.234 -0.439,0.157 -0.777,0.359 -1.015,0.606 -0.237,0.247 -0.356,0.502 -0.356,0.763 0,0.198 0.067,0.359 0.202,0.483 0.134,0.125 0.297,0.188 0.486,0.188 0.238,0 0.446,-0.105 0.624,-0.315 0.086,-0.106 0.177,-0.215 0.27,-0.324 0.093,-0.109 0.196,-0.202 0.308,-0.279 0.113,-0.077 0.249,-0.134 0.407,-0.172 0.158,-0.036 0.341,-0.056 0.546,-0.056 0.42,0 0.745,0.058 0.977,0.175 0.232,0.117 0.394,0.28 0.487,0.49 0.093,0.209 0.147,0.434 0.163,0.674 0.016,0.239 0.028,0.624 0.036,1.155 C 2.837,-2.479 2.55,-2.745 2.223,-2.927 1.896,-3.108 1.507,-3.199 1.057,-3.199 c -0.543,0 -1.016,0.138 -1.423,0.415 -0.405,0.277 -0.717,0.665 -0.934,1.164 -0.218,0.499 -0.326,1.074 -0.326,1.727 0,0.486 0.066,0.926 0.198,1.318 0.133,0.392 0.322,0.722 0.567,0.991 0.245,0.27 0.528,0.472 0.849,0.609 0.32,0.136 0.672,0.204 1.057,0.204 0.458,0 0.856,-0.088 1.193,-0.263 C 2.574,2.789 2.887,2.513 3.176,2.137 v 0.22 c 0,0.281 0.069,0.498 0.207,0.653 C 3.522,3.164 3.7,3.242 3.918,3.242 4.23,3.242 4.438,3.139 4.541,2.936 4.644,2.732 4.696,2.438 4.696,2.054" /></g><g
           transform="translate(205.4275,27.7251)"
           id="g492"><path
             id="path494"
             style="fill:#454545;fill-opacity:1;fill-rule:nonzero;stroke:none"
             d="m 0,0 v -0.196 c 0.284,0.376 0.596,0.652 0.935,0.828 0.338,0.176 0.727,0.265 1.166,0.265 0.428,0 0.81,-0.094 1.146,-0.28 C 3.583,0.431 3.835,0.168 4.001,-0.171 4.108,-0.37 4.177,-0.584 4.208,-0.813 4.24,-1.043 4.257,-1.335 4.257,-1.692 v -3.015 c 0,-0.325 -0.075,-0.571 -0.223,-0.737 -0.149,-0.166 -0.342,-0.249 -0.579,-0.249 -0.242,0 -0.437,0.085 -0.588,0.255 -0.151,0.171 -0.225,0.414 -0.225,0.731 v 2.701 c 0,0.534 -0.075,0.943 -0.223,1.225 -0.149,0.283 -0.444,0.425 -0.888,0.425 -0.288,0 -0.552,-0.086 -0.789,-0.258 C 0.504,-0.787 0.33,-1.023 0.219,-1.324 0.14,-1.565 0.101,-2.016 0.101,-2.677 v -2.03 c 0,-0.328 -0.077,-0.576 -0.229,-0.74 -0.152,-0.164 -0.349,-0.246 -0.59,-0.246 -0.234,0 -0.425,0.085 -0.576,0.255 -0.15,0.171 -0.226,0.414 -0.226,0.731 v 4.683 c 0,0.309 0.067,0.54 0.202,0.692 0.135,0.152 0.319,0.229 0.552,0.229 0.143,0 0.271,-0.034 0.386,-0.102 C -0.265,0.728 -0.173,0.627 -0.104,0.493 -0.035,0.358 0,0.193 0,0" /></g><g
           transform="translate(212.1169,25.8489)"
           id="g496"><path
             id="path498"
             style="fill:#454545;fill-opacity:1;fill-rule:nonzero;stroke:none"
             d="M 0,0 H 2.938 C 2.899,0.554 2.749,0.969 2.49,1.244 2.231,1.519 1.89,1.656 1.466,1.656 1.062,1.656 0.731,1.517 0.471,1.238 0.212,0.959 0.056,0.546 0,0 M 3.17,-0.92 H 0 c 0.004,-0.368 0.078,-0.693 0.223,-0.973 0.144,-0.282 0.336,-0.494 0.576,-0.636 0.238,-0.143 0.503,-0.213 0.792,-0.213 0.194,0 0.371,0.022 0.531,0.067 0.16,0.047 0.316,0.117 0.467,0.215 0.149,0.096 0.288,0.2 0.415,0.311 0.126,0.112 0.29,0.262 0.493,0.452 0.082,0.071 0.201,0.107 0.356,0.107 0.166,0 0.301,-0.046 0.403,-0.137 C 4.359,-1.819 4.41,-1.946 4.41,-2.113 4.41,-2.26 4.353,-2.43 4.238,-2.626 4.123,-2.822 3.95,-3.01 3.719,-3.19 3.487,-3.37 3.197,-3.519 2.846,-3.638 2.496,-3.757 2.093,-3.817 1.638,-3.817 c -1.04,0 -1.85,0.298 -2.428,0.891 -0.577,0.593 -0.866,1.399 -0.866,2.416 0,0.479 0.071,0.923 0.213,1.332 0.143,0.41 0.351,0.761 0.624,1.054 0.273,0.293 0.609,0.517 1.009,0.674 0.399,0.156 0.843,0.234 1.33,0.234 0.633,0 1.175,-0.133 1.628,-0.401 C 3.602,2.117 3.941,1.771 4.167,1.348 4.393,0.925 4.506,0.492 4.506,0.054 4.506,-0.354 4.389,-0.618 4.155,-0.739 3.922,-0.859 3.594,-0.92 3.17,-0.92" /></g><g
           transform="translate(218.7054,25.3386)"
           id="g500"><path
             id="path502"
             style="fill:#454545;fill-opacity:1;fill-rule:nonzero;stroke:none"
             d="m 0,0 c 0,-0.439 0.068,-0.813 0.204,-1.122 0.137,-0.309 0.324,-0.541 0.562,-0.697 0.237,-0.157 0.496,-0.235 0.777,-0.235 0.285,0 0.546,0.074 0.781,0.223 0.235,0.148 0.423,0.376 0.564,0.682 0.14,0.307 0.21,0.691 0.21,1.149 0,0.432 -0.07,0.803 -0.21,1.114 C 2.747,1.424 2.557,1.661 2.318,1.826 2.078,1.99 1.816,2.072 1.531,2.072 1.235,2.072 0.969,1.987 0.736,1.819 0.503,1.652 0.321,1.411 0.193,1.096 0.064,0.781 0,0.416 0,0 m 3.187,-2.38 v 0.16 C 2.97,-2.469 2.755,-2.672 2.543,-2.828 2.331,-2.985 2.102,-3.104 1.855,-3.184 1.608,-3.267 1.338,-3.306 1.045,-3.306 c -0.389,0 -0.747,0.081 -1.078,0.246 -0.33,0.164 -0.616,0.399 -0.858,0.703 -0.241,0.305 -0.424,0.663 -0.548,1.075 -0.125,0.412 -0.188,0.857 -0.188,1.335 0,1.013 0.248,1.804 0.742,2.37 0.495,0.565 1.146,0.848 1.953,0.848 0.467,0 0.861,-0.081 1.182,-0.24 C 2.57,2.87 2.883,2.623 3.187,2.292 v 2.392 c 0,0.332 0.067,0.583 0.2,0.754 0.132,0.17 0.321,0.255 0.567,0.255 0.245,0 0.433,-0.078 0.566,-0.235 C 4.653,5.301 4.719,5.072 4.719,4.767 V -2.38 c 0,-0.309 -0.071,-0.541 -0.213,-0.695 -0.143,-0.154 -0.327,-0.231 -0.552,-0.231 -0.222,0 -0.405,0.08 -0.55,0.24 -0.144,0.161 -0.217,0.389 -0.217,0.686" /></g><g
           transform="translate(228.5937,25.2911)"
           id="g504"><path
             id="path506"
             style="fill:#454545;fill-opacity:1;fill-rule:nonzero;stroke:none"
             d="m 0,0 c 0,-0.645 0.147,-1.14 0.442,-1.486 0.295,-0.347 0.682,-0.521 1.161,-0.521 0.407,0 0.759,0.177 1.053,0.532 0.295,0.354 0.443,0.861 0.443,1.523 0,0.427 -0.061,0.795 -0.184,1.104 C 2.792,1.46 2.618,1.699 2.393,1.867 2.167,2.035 1.903,2.119 1.603,2.119 1.294,2.119 1.019,2.035 0.778,1.867 0.536,1.699 0.346,1.456 0.208,1.137 0.069,0.819 0,0.439 0,0 M -0.077,4.814 V 2.339 C 0.227,2.656 0.538,2.898 0.855,3.066 1.171,3.234 1.563,3.318 2.03,3.318 2.569,3.318 3.04,3.191 3.446,2.936 3.851,2.68 4.166,2.31 4.39,1.826 4.613,1.341 4.726,0.766 4.726,0.101 4.726,-0.39 4.663,-0.839 4.539,-1.25 4.414,-1.659 4.233,-2.014 3.995,-2.314 3.758,-2.615 3.47,-2.849 3.132,-3.013 2.793,-3.177 2.42,-3.259 2.013,-3.259 c -0.25,0 -0.485,0.03 -0.704,0.089 -0.22,0.06 -0.407,0.137 -0.561,0.235 -0.154,0.096 -0.286,0.196 -0.395,0.299 -0.108,0.103 -0.252,0.258 -0.43,0.464 v -0.161 c 0,-0.304 -0.073,-0.535 -0.22,-0.692 -0.146,-0.156 -0.332,-0.234 -0.558,-0.234 -0.229,0 -0.412,0.078 -0.549,0.234 -0.136,0.157 -0.205,0.388 -0.205,0.692 v 7.077 c 0,0.328 0.067,0.576 0.199,0.744 0.133,0.168 0.318,0.252 0.555,0.252 0.25,0 0.442,-0.08 0.576,-0.24 0.134,-0.161 0.202,-0.388 0.202,-0.686" /></g><g
           transform="translate(235.4202,21.8303)"
           id="g508"><path
             id="path510"
             style="fill:#454545;fill-opacity:1;fill-rule:nonzero;stroke:none"
             d="m 0,0 0.148,0.363 -1.994,5.022 c -0.123,0.288 -0.185,0.498 -0.185,0.629 0,0.138 0.036,0.267 0.107,0.385 0.072,0.119 0.169,0.214 0.294,0.285 0.125,0.072 0.254,0.107 0.389,0.107 0.233,0 0.409,-0.074 0.529,-0.222 0.119,-0.149 0.223,-0.361 0.314,-0.638 l 1.371,-3.989 1.3,3.71 c 0.103,0.3 0.196,0.536 0.28,0.706 0.082,0.17 0.17,0.285 0.263,0.344 0.093,0.059 0.225,0.089 0.395,0.089 0.124,0 0.241,-0.032 0.354,-0.098 C 3.677,6.628 3.764,6.54 3.826,6.429 3.887,6.318 3.918,6.202 3.918,6.079 3.902,6.004 3.877,5.897 3.841,5.758 3.805,5.62 3.762,5.479 3.71,5.337 L 1.597,-0.196 C 1.415,-0.682 1.236,-1.064 1.062,-1.341 0.888,-1.618 0.658,-1.832 0.371,-1.979 0.084,-2.128 -0.303,-2.202 -0.79,-2.202 c -0.474,0 -0.831,0.051 -1.068,0.154 -0.238,0.103 -0.356,0.291 -0.356,0.564 0,0.186 0.056,0.33 0.169,0.431 0.113,0.1 0.28,0.152 0.501,0.152 0.087,0 0.173,-0.013 0.256,-0.037 0.103,-0.023 0.192,-0.036 0.267,-0.036 0.185,0 0.332,0.028 0.439,0.084 0.107,0.055 0.203,0.151 0.288,0.288 C -0.209,-0.466 -0.111,-0.265 0,0" /></g><g
           transform="translate(258.8969,28.4813)"
           id="g512"><path
             id="path514"
             style="fill:#454545;fill-opacity:1;fill-rule:nonzero;stroke:none"
             d="m 0,0 h 0.386 v 0.486 c 0,0.509 0.063,0.911 0.192,1.211 0.128,0.299 0.347,0.517 0.654,0.653 0.307,0.136 0.727,0.204 1.261,0.204 0.949,0 1.42,-0.229 1.42,-0.696 C 3.913,1.709 3.864,1.58 3.763,1.473 3.666,1.368 3.549,1.313 3.414,1.313 3.352,1.313 3.24,1.325 3.085,1.351 2.936,1.371 2.802,1.385 2.695,1.385 2.403,1.385 2.216,1.298 2.13,1.126 2.05,0.954 2.007,0.708 2.007,0.386 V 0 H 2.403 C 3.022,0 3.329,-0.186 3.329,-0.56 3.329,-0.822 3.25,-0.991 3.083,-1.063 2.92,-1.134 2.693,-1.169 2.403,-1.169 H 2.007 v -4.295 c 0,-0.319 -0.075,-0.563 -0.23,-0.73 -0.151,-0.17 -0.346,-0.254 -0.589,-0.254 -0.23,0 -0.42,0.084 -0.574,0.254 -0.153,0.167 -0.228,0.411 -0.228,0.73 v 4.295 H -0.06 c -0.243,0 -0.426,0.052 -0.558,0.163 -0.131,0.107 -0.197,0.25 -0.197,0.424 C -0.815,-0.192 -0.543,0 0,0" /></g><g
           transform="translate(264.2027,24.3724)"
           id="g516"><path
             id="path518"
             style="fill:#454545;fill-opacity:1;fill-rule:nonzero;stroke:none"
             d="m 0,0 v -1.355 c 0,-0.327 -0.083,-0.574 -0.234,-0.737 -0.154,-0.166 -0.349,-0.247 -0.586,-0.247 -0.238,0 -0.429,0.082 -0.579,0.25 -0.148,0.165 -0.225,0.411 -0.225,0.734 v 4.514 c 0,0.729 0.262,1.093 0.788,1.093 0.271,0 0.464,-0.084 0.583,-0.255 0.119,-0.171 0.185,-0.421 0.199,-0.755 0.192,0.334 0.39,0.584 0.592,0.755 0.208,0.171 0.477,0.255 0.819,0.255 0.343,0 0.67,-0.084 0.991,-0.255 C 2.67,3.826 2.83,3.599 2.83,3.319 2.83,3.123 2.761,2.957 2.626,2.831 2.488,2.7 2.342,2.636 2.185,2.636 2.122,2.636 1.978,2.675 1.752,2.748 1.523,2.819 1.322,2.856 1.15,2.856 0.913,2.856 0.717,2.792 0.568,2.67 0.416,2.542 0.298,2.36 0.215,2.116 0.134,1.869 0.078,1.575 0.045,1.238 0.014,0.9 0,0.486 0,0" /></g><g
           transform="translate(268.4819,25.8519)"
           id="g520"><path
             id="path522"
             style="fill:#454545;fill-opacity:1;fill-rule:nonzero;stroke:none"
             d="M 0,0 H 2.938 C 2.899,0.553 2.752,0.969 2.492,1.242 2.231,1.518 1.893,1.654 1.467,1.654 1.063,1.654 0.731,1.517 0.472,1.236 0.213,0.957 0.054,0.546 0,0 M 3.171,-0.922 H 0 c 0.005,-0.367 0.077,-0.693 0.222,-0.974 0.147,-0.279 0.337,-0.491 0.578,-0.635 0.24,-0.142 0.502,-0.212 0.792,-0.212 0.194,0 0.371,0.02 0.531,0.069 0.159,0.043 0.316,0.116 0.466,0.213 0.151,0.095 0.288,0.199 0.415,0.313 0.126,0.109 0.292,0.26 0.494,0.449 0.084,0.071 0.203,0.109 0.355,0.109 0.168,0 0.301,-0.047 0.406,-0.139 0.104,-0.092 0.152,-0.219 0.152,-0.386 0,-0.147 -0.056,-0.317 -0.167,-0.512 C 4.127,-2.825 3.954,-3.012 3.721,-3.193 3.488,-3.371 3.197,-3.523 2.848,-3.639 2.498,-3.758 2.094,-3.818 1.641,-3.818 c -1.045,0 -1.853,0.295 -2.43,0.888 -0.577,0.595 -0.869,1.402 -0.869,2.418 0,0.479 0.073,0.924 0.217,1.334 0.14,0.412 0.349,0.76 0.624,1.055 0.273,0.294 0.606,0.518 1.008,0.674 0.399,0.155 0.842,0.234 1.33,0.234 0.632,0 1.176,-0.134 1.629,-0.404 C 3.602,2.117 3.946,1.771 4.168,1.347 4.394,0.922 4.507,0.492 4.507,0.051 4.507,-0.355 4.389,-0.618 4.156,-0.74 3.923,-0.861 3.595,-0.922 3.171,-0.922" /></g><g
           transform="translate(275.2245,25.8519)"
           id="g524"><path
             id="path526"
             style="fill:#454545;fill-opacity:1;fill-rule:nonzero;stroke:none"
             d="M 0,0 H 2.938 C 2.899,0.553 2.748,0.969 2.491,1.242 2.228,1.518 1.89,1.654 1.465,1.654 1.061,1.654 0.73,1.517 0.469,1.236 0.211,0.957 0.053,0.546 0,0 M 3.171,-0.922 H 0 c 0.004,-0.367 0.078,-0.693 0.222,-0.974 0.144,-0.279 0.336,-0.491 0.575,-0.635 0.239,-0.142 0.504,-0.212 0.795,-0.212 0.192,0 0.37,0.02 0.528,0.069 0.161,0.043 0.316,0.116 0.469,0.213 0.151,0.095 0.287,0.199 0.415,0.313 0.124,0.109 0.289,0.26 0.492,0.449 0.084,0.071 0.204,0.109 0.355,0.109 0.168,0 0.302,-0.047 0.407,-0.139 0.103,-0.092 0.15,-0.219 0.15,-0.386 0,-0.147 -0.054,-0.317 -0.171,-0.512 C 4.127,-2.825 3.953,-3.012 3.718,-3.193 3.487,-3.371 3.193,-3.523 2.846,-3.639 2.498,-3.758 2.091,-3.818 1.637,-3.818 c -1.042,0 -1.849,0.295 -2.429,0.888 -0.578,0.595 -0.868,1.402 -0.868,2.418 0,0.479 0.072,0.924 0.217,1.334 0.142,0.412 0.349,0.76 0.623,1.055 0.272,0.294 0.608,0.518 1.009,0.674 0.398,0.155 0.844,0.234 1.33,0.234 0.631,0 1.174,-0.134 1.633,-0.404 C 3.602,2.117 3.943,1.771 4.166,1.347 4.39,0.922 4.506,0.492 4.506,0.051 4.506,-0.355 4.387,-0.618 4.155,-0.74 3.921,-0.861 3.593,-0.922 3.171,-0.922" /></g><g
           transform="translate(285.1226,25.3582)"
           id="g528"><path
             id="path530"
             style="fill:#454545;fill-opacity:1;fill-rule:nonzero;stroke:none"
             d="m 0,0 c 0,0.428 -0.067,0.796 -0.197,1.102 -0.13,0.307 -0.311,0.542 -0.541,0.705 -0.229,0.164 -0.489,0.247 -0.77,0.247 -0.446,0 -0.824,-0.177 -1.131,-0.527 -0.307,-0.354 -0.462,-0.872 -0.462,-1.558 0,-0.642 0.153,-1.146 0.46,-1.504 0.305,-0.358 0.679,-0.537 1.133,-0.537 0.268,0 0.519,0.079 0.748,0.233 0.232,0.158 0.416,0.392 0.552,0.704 C -0.07,-0.821 0,-0.443 0,0 M -3.177,2.355 V 2.161 c 0.303,0.375 0.621,0.651 0.952,0.827 0.324,0.178 0.699,0.267 1.114,0.267 0.497,0 0.96,-0.13 1.379,-0.386 C 0.688,2.61 1.017,2.234 1.262,1.74 1.505,1.243 1.628,0.659 1.628,-0.018 c 0,-0.498 -0.07,-0.957 -0.21,-1.376 -0.14,-0.418 -0.336,-0.767 -0.581,-1.05 -0.246,-0.281 -0.534,-0.501 -0.868,-0.654 -0.339,-0.15 -0.695,-0.227 -1.08,-0.227 -0.461,0 -0.853,0.093 -1.166,0.28 -0.314,0.182 -0.614,0.458 -0.9,0.816 v -2.433 c 0,-0.71 -0.261,-1.069 -0.778,-1.069 -0.307,0 -0.505,0.092 -0.607,0.275 -0.095,0.187 -0.146,0.452 -0.146,0.807 v 6.996 c 0,0.309 0.066,0.537 0.2,0.692 0.134,0.149 0.32,0.227 0.553,0.227 0.231,0 0.416,-0.078 0.56,-0.233 0.147,-0.159 0.218,-0.382 0.218,-0.678" /></g><g
           transform="translate(289.1851,27.705)"
           id="g532"><path
             id="path534"
             style="fill:#454545;fill-opacity:1;fill-rule:nonzero;stroke:none"
             d="m 0,0 v -4.689 c 0,-0.322 -0.077,-0.567 -0.231,-0.732 -0.157,-0.169 -0.351,-0.25 -0.589,-0.25 -0.238,0 -0.428,0.083 -0.58,0.254 -0.146,0.172 -0.222,0.415 -0.222,0.728 v 4.643 c 0,0.318 0.076,0.559 0.222,0.721 0.152,0.165 0.342,0.245 0.58,0.245 0.238,0 0.432,-0.08 0.589,-0.245 C -0.077,0.513 0,0.286 0,0 m -0.803,1.674 c -0.226,0 -0.418,0.072 -0.576,0.209 -0.163,0.14 -0.243,0.333 -0.243,0.586 0,0.23 0.082,0.419 0.248,0.569 0.164,0.146 0.354,0.222 0.571,0.222 0.213,0 0.398,-0.067 0.559,-0.2 C -0.082,2.924 0,2.726 0,2.469 0,2.219 -0.079,2.025 -0.236,1.884 -0.395,1.746 -0.583,1.674 -0.803,1.674" /></g><g
           transform="translate(294.4097,22.7733)"
           id="g536"><path
             id="path538"
             style="fill:#454545;fill-opacity:1;fill-rule:nonzero;stroke:none"
             d="m 0,0 -1.428,2.354 -0.88,-0.831 v -1.29 c 0,-0.312 -0.083,-0.552 -0.248,-0.719 -0.16,-0.17 -0.354,-0.254 -0.566,-0.254 -0.249,0 -0.447,0.082 -0.588,0.25 -0.141,0.165 -0.215,0.411 -0.215,0.734 v 6.915 c 0,0.358 0.072,0.632 0.207,0.821 0.14,0.19 0.341,0.282 0.596,0.282 0.25,0 0.445,-0.085 0.593,-0.257 0.147,-0.169 0.221,-0.421 0.221,-0.751 V 3.321 l 1.823,1.914 c 0.226,0.235 0.395,0.4 0.517,0.486 0.118,0.087 0.261,0.13 0.431,0.13 0.204,0 0.371,-0.064 0.509,-0.192 0.132,-0.129 0.2,-0.292 0.2,-0.484 0,-0.237 -0.22,-0.555 -0.659,-0.951 L -0.347,3.435 1.315,0.821 C 1.435,0.625 1.526,0.481 1.579,0.38 1.632,0.28 1.661,0.18 1.661,0.091 1.661,-0.167 1.589,-0.368 1.448,-0.519 1.307,-0.667 1.12,-0.74 0.894,-0.74 0.696,-0.74 0.542,-0.689 0.436,-0.58 0.329,-0.472 0.181,-0.278 0,0" /></g><g
           transform="translate(297.932,22.0336)"
           id="g540"><path
             id="path542"
             style="fill:#454545;fill-opacity:1;fill-rule:nonzero;stroke:none"
             d="m 0,0 c -0.245,0 -0.455,0.079 -0.634,0.238 -0.177,0.156 -0.268,0.379 -0.268,0.665 0,0.241 0.087,0.45 0.257,0.622 0.171,0.175 0.379,0.262 0.63,0.262 C 0.233,1.787 0.444,1.7 0.624,1.529 0.798,1.357 0.887,1.147 0.887,0.903 0.887,0.621 0.798,0.398 0.624,0.241 0.444,0.079 0.237,0 0,0" /></g><g
           transform="translate(305.9935,24.0398)"
           id="g544"><path
             id="path546"
             style="fill:#454545;fill-opacity:1;fill-rule:nonzero;stroke:none"
             d="m 0,0 c 0,-0.2 -0.06,-0.417 -0.182,-0.646 -0.12,-0.232 -0.305,-0.449 -0.553,-0.656 -0.247,-0.208 -0.558,-0.377 -0.935,-0.503 -0.375,-0.126 -0.8,-0.191 -1.269,-0.191 -1.004,0 -1.786,0.293 -2.348,0.875 -0.56,0.585 -0.842,1.369 -0.842,2.35 0,0.667 0.128,1.254 0.387,1.765 0.255,0.509 0.628,0.905 1.114,1.184 0.487,0.28 1.072,0.419 1.746,0.419 0.421,0 0.805,-0.061 1.158,-0.185 0.35,-0.122 0.645,-0.282 0.89,-0.474 0.242,-0.197 0.429,-0.402 0.556,-0.62 0.13,-0.22 0.193,-0.426 0.193,-0.617 0,-0.192 -0.071,-0.357 -0.215,-0.492 -0.147,-0.134 -0.322,-0.203 -0.524,-0.203 -0.137,0 -0.248,0.036 -0.338,0.104 -0.09,0.07 -0.191,0.181 -0.299,0.339 -0.199,0.299 -0.404,0.526 -0.623,0.674 -0.214,0.152 -0.487,0.227 -0.821,0.227 -0.476,0 -0.865,-0.187 -1.158,-0.561 -0.292,-0.373 -0.44,-0.888 -0.44,-1.534 0,-0.305 0.039,-0.587 0.115,-0.842 0.073,-0.255 0.181,-0.473 0.325,-0.653 0.144,-0.179 0.315,-0.315 0.516,-0.409 0.203,-0.096 0.426,-0.141 0.665,-0.141 0.326,0 0.604,0.075 0.835,0.225 0.236,0.151 0.439,0.38 0.617,0.69 0.099,0.181 0.204,0.323 0.318,0.427 0.114,0.102 0.256,0.155 0.422,0.155 0.198,0 0.363,-0.076 0.492,-0.226 C -0.066,0.331 0,0.169 0,0" /></g><g
           transform="translate(311.3603,25.3276)"
           id="g548"><path
             id="path550"
             style="fill:#454545;fill-opacity:1;fill-rule:nonzero;stroke:none"
             d="m 0,0 c 0,0.662 -0.146,1.176 -0.436,1.543 -0.29,0.372 -0.681,0.555 -1.172,0.555 -0.317,0 -0.597,-0.083 -0.839,-0.246 C -2.689,1.688 -2.872,1.446 -3.003,1.124 -3.133,0.803 -3.2,0.428 -3.2,0 c 0,-0.424 0.064,-0.792 0.193,-1.108 0.13,-0.32 0.314,-0.561 0.554,-0.729 0.241,-0.167 0.522,-0.253 0.845,-0.253 0.491,0 0.882,0.185 1.172,0.557 C -0.146,-1.163 0,-0.651 0,0 m 1.627,0 c 0,-0.481 -0.076,-0.928 -0.222,-1.337 -0.154,-0.407 -0.37,-0.758 -0.656,-1.049 -0.284,-0.293 -0.626,-0.517 -1.02,-0.675 -0.4,-0.154 -0.844,-0.234 -1.337,-0.234 -0.49,0 -0.933,0.08 -1.325,0.239 -0.39,0.156 -0.732,0.384 -1.017,0.676 -0.288,0.298 -0.505,0.647 -0.657,1.048 -0.143,0.402 -0.219,0.847 -0.219,1.332 0,0.491 0.077,0.941 0.224,1.349 0.151,0.409 0.368,0.757 0.649,1.046 0.282,0.288 0.621,0.51 1.02,0.668 0.402,0.156 0.843,0.234 1.325,0.234 0.491,0 0.937,-0.078 1.337,-0.238 C 0.128,2.902 0.468,2.675 0.756,2.384 1.043,2.087 1.258,1.741 1.406,1.339 1.552,0.932 1.627,0.489 1.627,0" /></g><g
           transform="translate(319.1698,25.2086)"
           id="g552"><path
             id="path554"
             style="fill:#454545;fill-opacity:1;fill-rule:nonzero;stroke:none"
             d="m 0,0 v -2.154 c 0,-0.342 -0.075,-0.594 -0.231,-0.767 -0.156,-0.17 -0.357,-0.255 -0.611,-0.255 -0.245,0 -0.446,0.085 -0.594,0.255 -0.155,0.173 -0.233,0.425 -0.233,0.767 v 2.582 c 0,0.408 -0.013,0.726 -0.039,0.953 -0.029,0.221 -0.105,0.409 -0.227,0.551 -0.122,0.147 -0.318,0.22 -0.582,0.22 -0.531,0 -0.879,-0.181 -1.048,-0.55 -0.167,-0.36 -0.253,-0.884 -0.253,-1.567 v -2.189 c 0,-0.336 -0.077,-0.591 -0.226,-0.765 -0.156,-0.171 -0.355,-0.257 -0.603,-0.257 -0.247,0 -0.448,0.086 -0.604,0.257 -0.158,0.174 -0.236,0.429 -0.236,0.765 v 4.637 c 0,0.306 0.07,0.538 0.21,0.695 0.143,0.16 0.329,0.238 0.556,0.238 0.223,0 0.407,-0.077 0.557,-0.222 0.148,-0.149 0.222,-0.354 0.222,-0.615 V 2.426 c 0.283,0.334 0.584,0.582 0.902,0.737 0.323,0.163 0.677,0.242 1.071,0.242 0.407,0 0.757,-0.082 1.049,-0.244 0.293,-0.163 0.533,-0.41 0.725,-0.735 0.274,0.33 0.568,0.576 0.881,0.737 0.313,0.161 0.658,0.242 1.039,0.242 0.441,0 0.826,-0.09 1.146,-0.262 C 3.19,2.969 3.429,2.718 3.588,2.396 3.726,2.1 3.795,1.639 3.795,1.01 v -3.164 c 0,-0.342 -0.077,-0.594 -0.23,-0.767 -0.154,-0.17 -0.359,-0.255 -0.612,-0.255 -0.247,0 -0.446,0.086 -0.603,0.257 -0.156,0.174 -0.235,0.429 -0.235,0.765 V 0.572 C 2.115,0.921 2.1,1.199 2.072,1.408 2.042,1.619 1.961,1.796 1.832,1.937 1.7,2.079 1.501,2.152 1.237,2.152 1.023,2.152 0.82,2.086 0.628,1.96 0.436,1.836 0.286,1.662 0.178,1.452 0.062,1.178 0,0.694 0,0" /></g><g
           transform="translate(243.7294,25.7201)"
           id="g556"><path
             id="path558"
             style="fill:#454545;fill-opacity:1;fill-rule:nonzero;stroke:none"
             d="M 0,0 C -0.001,0.003 -0.001,0.006 -0.001,0.011 -0.001,0.006 -0.001,0.003 0,0" /></g><g
           transform="translate(243.8112,25.2019)"
           id="g560"><path
             id="path562"
             style="fill:#454545;fill-opacity:1;fill-rule:nonzero;stroke:none"
             d="M 0,0 H 0.001 C -0.029,0.148 -0.053,0.294 -0.072,0.439 -0.053,0.293 -0.029,0.146 0,0" /></g><g
           transform="translate(244.3477,23.698)"
           id="g564"><path
             id="path566"
             style="fill:#454545;fill-opacity:1;fill-rule:nonzero;stroke:none"
             d="M 0,0 C -0.004,0.006 -0.007,0.013 -0.011,0.021 -0.007,0.013 -0.004,0.006 0,0" /></g><g
           transform="translate(244.2964,23.7981)"
           id="g568"><path
             id="path570"
             style="fill:#454545;fill-opacity:1;fill-rule:nonzero;stroke:none"
             d="M 0,0 C -0.014,0.028 -0.027,0.056 -0.041,0.084 -0.027,0.054 -0.014,0.028 0,0" /></g><g
           transform="translate(243.9619,24.6227)"
           id="g572"><path
             id="path574"
             style="fill:#454545;fill-opacity:1;fill-rule:nonzero;stroke:none"
             d="M 0,0 C 0.079,-0.25 0.175,-0.493 0.286,-0.724 0.173,-0.488 0.079,-0.245 0.002,0 Z" /></g><g
           transform="translate(250.0029,31.9304)"
           id="g576"><path
             id="path578"
             style="fill:#454545;fill-opacity:1;fill-rule:nonzero;stroke:none"
             d="m 0,0 c 0.313,0 0.544,-0.025 0.809,-0.07 l 0.075,0.477 c 0,0 -0.731,0.225 -1.694,0.147 l -0.075,0.259 c 0.299,0.063 0.523,0.329 0.523,0.646 0,0.364 -0.296,0.659 -0.66,0.659 -0.365,0 -0.66,-0.295 -0.66,-0.659 0,-0.317 0.224,-0.583 0.522,-0.646 L -1.076,0.524 C -2.098,0.383 -2.911,-0.015 -2.911,-0.015 l 0.145,-0.441 c 0.618,0.206 1.153,0.331 1.64,0.383 C -0.65,-0.022 -0.292,0 0,0" /></g><g
           transform="translate(244.3355,29.5189)"
           id="g580"><path
             id="path582"
             style="fill:#454545;fill-opacity:1;fill-rule:nonzero;stroke:none"
             d="m 0,0 0.004,0.005 c 0.024,0.031 0.047,0.06 0.07,0.089 l -0.195,0.141 -0.305,0.223 c -0.017,-0.024 -0.497,-0.465 -0.876,-1.28 -0.016,0.025 -0.035,0.051 -0.056,0.074 -0.114,0.124 -0.272,0.188 -0.474,0.184 h -0.009 c -0.125,0 -0.211,0.042 -0.267,0.092 0.056,0.071 0.09,0.16 0.09,0.258 0,0.23 -0.188,0.418 -0.419,0.418 -0.23,0 -0.418,-0.188 -0.418,-0.418 0,-0.231 0.188,-0.418 0.418,-0.418 0.037,0 0.071,0.006 0.105,0.013 0.102,-0.114 0.265,-0.214 0.504,-0.209 0.123,0.002 0.213,-0.03 0.274,-0.097 0.069,-0.075 0.092,-0.185 0.1,-0.267 -0.001,-0.001 -0.001,-0.003 -0.002,-0.003 -0.273,-0.744 -0.195,-1.669 -0.195,-1.669 L -0.99,-2.89 c 0.013,0.337 0.062,0.926 0.232,1.394 C -0.429,-0.59 -0.017,-0.024 0,0" /></g><g
           transform="translate(255.7524,31.3781)"
           id="g584"><path
             id="path586"
             style="fill:#454545;fill-opacity:1;fill-rule:nonzero;stroke:none"
             d="m 0,0 c -0.23,0 -0.418,-0.187 -0.418,-0.418 0,-0.036 0.005,-0.07 0.015,-0.103 -0.115,-0.104 -0.215,-0.268 -0.211,-0.507 0.002,-0.123 -0.03,-0.212 -0.096,-0.273 -0.053,-0.047 -0.12,-0.072 -0.185,-0.088 -0.492,0.69 -1.098,1.11 -1.098,1.11 l -0.474,-0.508 c 0.358,-0.326 0.725,-0.735 1.08,-1.244 0.246,-0.352 0.5,-0.806 0.71,-1.259 l 0.64,0.304 c 0,0 -0.292,0.722 -0.703,1.369 0.071,0.025 0.143,0.064 0.207,0.12 0.125,0.113 0.186,0.273 0.183,0.474 -0.002,0.13 0.041,0.218 0.093,0.276 0.071,-0.054 0.16,-0.089 0.257,-0.089 0.232,0 0.419,0.187 0.419,0.418 C 0.419,-0.187 0.232,0 0,0" /></g><g
           transform="translate(254.0917,25.6267)"
           id="g588"><path
             id="path590"
             style="fill:#454545;fill-opacity:1;fill-rule:nonzero;stroke:none"
             d="m 0,0 c -0.881,-0.429 -2.33,-0.996 -4.238,-1.262 -0.749,-0.104 -1.475,-0.142 -2.143,-0.142 -0.869,0 -1.637,0.064 -2.226,0.139 -0.673,0.085 -1.199,0.188 -1.521,0.261 0.078,-0.245 0.171,-0.488 0.284,-0.724 0.002,-0.006 0.005,-0.013 0.008,-0.017 0.013,-0.027 0.027,-0.056 0.041,-0.084 0.013,-0.027 0.027,-0.054 0.04,-0.079 0.004,-0.007 0.007,-0.015 0.011,-0.021 0.189,-0.356 0.417,-0.684 0.675,-0.968 0.9,-0.984 1.817,-1.14 1.826,-1.141 l 0.014,-0.002 0.014,-0.005 c 0.008,-0.003 0.821,-0.265 2.057,-0.265 1.216,0 2.409,0.245 3.546,0.729 0.842,0.431 1.639,1.085 2.034,1.669 0.305,0.452 0.525,0.933 0.656,1.433 C 1.147,-0.212 1.202,0.214 1.17,0.662 0.922,0.496 0.53,0.258 0,0" /></g><g
           transform="translate(247.1358,29.7704)"
           id="g592"><path
             id="path594"
             style="fill:#454545;fill-opacity:1;fill-rule:nonzero;stroke:none"
             d="M 0,0 C 0.973,0 1.761,-0.789 1.761,-1.761 1.761,-2.733 0.973,-3.52 0,-3.52 c -0.972,0 -1.76,0.787 -1.76,1.759 C -1.76,-0.789 -0.972,0 0,0 m 5.151,-0.043 c 0.601,0 1.089,-0.489 1.089,-1.09 0,-0.601 -0.488,-1.09 -1.089,-1.09 -0.601,0 -1.089,0.489 -1.089,1.09 0,0.601 0.488,1.09 1.089,1.09 M -2.517,-0.46 c -0.026,-0.037 -0.408,-0.578 -0.71,-1.408 -0.226,-0.622 -0.216,-1.527 -0.216,-1.538 v -0.002 c 0,-0.212 0.012,-0.423 0.035,-0.631 0,-0.005 0,-0.008 0.002,-0.011 0.002,-0.027 0.007,-0.053 0.009,-0.08 0.019,-0.144 0.043,-0.291 0.074,-0.438 0.438,-0.112 3.049,-0.721 5.968,-0.314 1.829,0.254 3.218,0.795 4.062,1.204 0.7,0.34 1.151,0.648 1.325,0.774 -0.173,0.643 -0.651,1.65 -1.09,2.279 C 5.689,1.166 4.338,1.625 3.644,1.74 3.379,1.783 3.167,1.808 2.867,1.808 2.588,1.808 2.241,1.785 1.778,1.736 1.313,1.688 0.795,1.566 0.195,1.364 -0.647,1.082 -1.41,0.64 -2.009,0.084 L -2.03,0.065 C -2.119,-0.016 -2.304,-0.189 -2.517,-0.46" /></g></g></g></g></svg>