<svg height="511pt" viewBox="-52 0 511 511.99656" width="511pt" xmlns="http://www.w3.org/2000/svg"><path d="m403.136719 487.464844-8.632813-154.941406c-.675781-12.195313-9.207031-22.53125-21.050781-25.511719l-54.917969-13.824219-33.039062-16.289062-15.179688 31.316406c-1.132812 2.324218-3.492187 3.800781-6.078125 3.800781h-23.703125c-2.65625 0-5.066406-1.558594-6.160156-3.980469l-14.039062-31.136718-33.039063 16.289062-54.921875 13.824219c-2.824219.710937-5.523438 1.863281-7.988281 3.410156l58.851562 101.933594 18.398438-10.625c5.175781-2.964844 11.773437-1.171875 14.738281 4.003906 2.953125 5.148437 1.191406 11.714844-3.9375 14.703125l7.71875-4.457031c5.175781-2.964844 11.773438-1.167969 14.738281 4.007812 2.945313 5.148438 1.1875 11.710938-3.941406 14.699219l-26.117187 15.078125 1.597656 2.78125c4.359375 7.605469 1.726562 17.300781-5.875 21.660156-7.570313 4.335938-17.222656 1.75-21.609375-5.789062l-68.589844-118.800781-7.675781 137.84375c-.570313 10.207031 7.242187 18.9375 17.449218 19.503906.339844.023437.683594.03125 1.027344.03125h263.507813c10.21875-.003906 18.5-8.292969 18.496093-18.511719 0-.34375-.011718-.679687-.027343-1.019531zm0 0" fill="#60bae2"/><path d="m318.535156 293.1875-16.339844 40.246094c-1.261718 3.113281-4.8125 4.613281-7.925781 3.351562-.960937-.390625-1.804687-1.019531-2.453125-1.828125l-21.5-26.746093 15.179688-31.316407zm0 0" fill="#e9e9ea"/><path d="m203.636719 333.433594c1.261719 3.113281 4.8125 4.613281 7.925781 3.351562.960938-.390625 1.804688-1.019531 2.453125-1.828125l20.878906-25.960937c-.203125-.300782-.378906-.617188-.527343-.945313l-14.03125-31.152343-22.027344 10.859374-11.011719 5.429688zm0 0" fill="#e9e9ea"/><path d="m176.632812 133.597656c1.519532.003906 3.035157.121094 4.535157.359375v-3.402343c.023437-2.082032 1.734375-3.753907 3.820312-3.726563.25 0 .5.027344.746094.082031 12.8125 2.683594 50.914063 7.265625 76.746094-25.21875 1.292969-1.648437 3.683593-1.9375 5.335937-.640625.113282.089844.21875.183594.324219.285157 5.945313 5.832031 21.425781 17.476562 50.796875 18.335937 2.011719.078125 3.613281 1.707031 3.652344 3.71875.007812.367187.011718.734375.011718 1.105469v9.460937c9.125-1.441406 18.390626 1.496094 25.015626 7.925781v-53.105468c-.0625-22.285156-18.113282-40.335938-40.398438-40.402344-7.273438.007812-14.410156 2-20.636719 5.761719-7.265625-12.222657-20.421875-19.730469-34.644531-19.773438h-20.734375c-40.265625.117188-72.882813 32.734375-73 73v32.710938c5.226563-4.199219 11.726563-6.480469 18.429687-6.476563zm0 0" fill="#6d6c6b"/><path d="m327.148438 133.597656c-1.582032 0-3.160157.128906-4.71875.382813.105468 1.578125.179687 3.167969.179687 4.769531v48.75c0 1.597656-.074219 3.171875-.179687 4.742188 16.085937 2.617187 31.253906-8.296876 33.875-24.382813 2.621093-16.085937-8.296876-31.253906-24.382813-33.875-1.578125-.257813-3.175781-.386719-4.773437-.382813zm0 0" fill="#f9d0b4"/><path d="m181.167969 187.5v-48.746094c0-1.597656.074219-3.199218.179687-4.769531-16.085937-2.71875-31.332031 8.125-34.042968 24.210937-2.714844 16.089844 8.125 31.332032 24.210937 34.046876 3.253906.550781 6.578125.550781 9.835937 0-.109374-1.570313-.183593-3.148438-.183593-4.742188zm0 0" fill="#f9d0b4"/><path d="m262.480469 101.695312c-25.832031 32.484376-63.945313 27.902344-76.746094 25.21875-2.039063-.433593-4.042969.863282-4.480469 2.902344-.050781.246094-.078125.496094-.082031.746094v56.9375c.113281 39.007812 31.710937 70.605469 70.71875 70.71875 39.011719-.113281 70.605469-31.710938 70.71875-70.71875v-63c0-.371094-.003906-.738281-.011719-1.109375-.039062-2.007813-1.640625-3.636719-3.652344-3.714844-29.378906-.863281-44.859374-12.507812-50.796874-18.335937-1.492188-1.480469-3.898438-1.46875-5.375.023437-.105469.105469-.203126.21875-.292969.332031zm0 0" fill="#f9d0b4"/><path d="m251.890625 258.21875c-10.960937.003906-21.769531-2.5625-31.554687-7.496094v26.175782l14.03125 31.144531c1.089843 2.421875 3.5 3.980469 6.15625 3.980469h23.714843c2.585938 0 4.945313-1.476563 6.078125-3.800782l15.179688-31.316406v-27.242188c-10.308594 5.621094-21.863282 8.5625-33.605469 8.554688zm0 0" fill="#f9d0b4"/><path d="m125.300781 274.957031c2.980469 5.167969 1.210938 11.773438-3.953125 14.753907l-40.863281 23.601562c-5.15625 3-11.765625 1.253906-14.765625-3.902344s-1.253906-11.765625 3.902344-14.765625c.023437-.011719.042968-.027343.066406-.039062l40.863281-23.597657c5.164063-2.984374 11.765625-1.214843 14.75 3.949219zm0 0" fill="#fcd770"/><path d="m15.921875 213.277344c.0625 4.898437-1.214844 9.722656-3.683594 13.949218-13.339843 22.074219-6.257812 50.785157 15.816407 64.125 12.457031 7.527344 27.714843 8.816407 41.257812 3.484376.125-.078126.242188-.164063.371094-.238282l40.863281-23.601562c.128906-.074219.265625-.132813.398437-.199219 20.179688-16.0625 23.515626-45.445313 7.453126-65.625-9.0625-11.386719-22.914063-17.894531-37.464844-17.605469-4.898438.027344-9.710938-1.28125-13.921875-3.785156-16.3125-9.390625-37.148438-3.78125-46.539063 12.53125-2.972656 5.160156-4.539062 11.007812-4.546875 16.964844zm44.558594 7.234375c9.074219-5.3125 20.738281-2.261719 26.046875 6.8125 5.3125 9.074219 2.261718 20.738281-6.808594 26.046875-.066406.039062-.132812.078125-.199219.117187l-9.492187 5.476563c-9.195313 5.097656-20.78125 1.773437-25.878906-7.421875-4.96875-8.96875-1.945313-20.261719 6.84375-25.546875zm0 0" fill="#ffae2c"/><path d="m178.960938 468.417969c4.359374 7.601562 14.054687 10.234375 21.65625 5.875 7.605468-4.359375 10.234374-14.054688 5.875-21.660157-.015626-.027343-.03125-.054687-.046876-.082031l-91.785156-158.976562-27.484375 15.867187zm0 0" fill="#fcd770"/><path d="m87.171875 309.433594 27.484375-15.867188 10.796875 18.707032-27.480469 15.867187zm0 0" fill="#ffae2c"/><path d="m204.839844 449.769531 26.117187-15.078125c5.179688-2.964844 6.972657-9.5625 4.007813-14.738281s-9.5625-6.96875-14.738282-4.007813c-.023437.011719-.046874.027344-.066406.042969l-26.121094 15.078125zm0 0" fill="#ffae2c"/><path d="m194.039062 431.0625 18.398438-10.625c5.175781-2.964844 6.972656-9.5625 4.003906-14.738281-2.964844-5.175781-9.5625-6.96875-14.738281-4.003907-.023437.011719-.042969.023438-.066406.039063l-18.398438 10.621094zm0 0" fill="#ffae2c"/><path d="m194.039062 431.0625 18.398438-10.625c5.175781-2.964844 6.972656-9.5625 4.003906-14.738281-2.964844-5.175781-9.5625-6.96875-14.738281-4.003907-.023437.011719-.042969.023438-.066406.039063l-18.398438 10.621094zm0 0" fill="#ffae2c"/><g fill="#231f20"><path d="m327.148438 197.652344c-1.84375-.011719-3.6875-.167969-5.507813-.472656-2.550781-.40625-4.375-2.691407-4.199219-5.273438.113282-1.691406.164063-3.089844.164063-4.398438v-48.753906c0-1.335937-.050781-2.746094-.167969-4.433594-.175781-2.578124 1.648438-4.867187 4.203125-5.277343 18.816406-3.058594 36.554687 9.714843 39.617187 28.535156s-9.710937 36.554687-28.53125 39.617187c-1.839843.300782-3.707031.453126-5.570312.449219zm.457031-59.046875v49.042969c13.546875-.242188 24.324219-11.421876 24.078125-24.964844-.238282-13.199219-10.878906-23.839844-24.078125-24.078125zm0 0"/><path d="m176.628906 197.652344c-19.066406.027344-34.550781-15.40625-34.578125-34.472656-.027343-19.070313 15.40625-34.550782 34.472657-34.578126 1.882812-.003906 3.761718.148438 5.621093.449219 2.542969.414063 4.359375 2.695313 4.191407 5.265625-.117188 1.722656-.167969 3.132813-.167969 4.441406v48.742188c0 1.316406.050781 2.714844.164062 4.398438.175781 2.582031-1.648437 4.867187-4.199219 5.273437-1.816406.308594-3.660156.464844-5.503906.480469zm-.460937-59.046875c-13.542969.242187-24.324219 11.421875-24.078125 24.964843.238281 13.195313 10.878906 23.839844 24.078125 24.078126v-49.050782zm0 0"/><path d="m251.890625 263.21875c-41.800781-.042969-75.675781-33.921875-75.722656-75.71875v-56.890625c0-4.84375 3.921875-8.773437 8.769531-8.777344.613281 0 1.222656.066407 1.820312.191407 13.707032 2.863281 48.136719 6.328124 71.800782-23.4375 3.015625-3.8125 8.550781-4.457032 12.363281-1.445313.246094.199219.484375.40625.710937.632813 4.902344 4.800781 19.351563 16.082031 47.453126 16.90625 4.679687.144531 8.421874 3.933593 8.503906 8.613281l.011718 1.203125v63c-.042968 41.796875-33.914062 75.675781-75.710937 75.722656zm-65.722656-131.117188v55.398438c-.003907 36.296875 29.414062 65.722656 65.710937 65.730469 36.296875.007812 65.722656-29.414063 65.730469-65.710938 0-.003906 0-.011719 0-.019531v-62.867188c-28.476563-1.113281-44.53125-11.847656-52.027344-18.820312-26.847656 32.699219-65.847656 28.859375-79.414062 26.289062zm0 0"/><path d="m347.628906 146.882812c-1.292968 0-2.539062-.5-3.472656-1.398437-5.5-5.351563-13.203125-7.789063-20.777344-6.582031-2.726562.425781-5.285156-1.441406-5.710937-4.167969-.039063-.257813-.058594-.515625-.058594-.773437v-9.328126c-28.476563-1.113281-44.53125-11.847656-52.027344-18.820312-26.847656 32.707031-65.847656 28.855469-79.414062 26.289062v1.859376c0 2.761718-2.234375 5-4.996094 5-.257813 0-.515625-.019532-.773437-.058594-6.789063-1.082032-13.714844.761718-19.066407 5.078125-2.15625 1.722656-5.304687 1.375-7.027343-.78125-.710938-.886719-1.097657-1.988281-1.097657-3.125v-32.707031c.046875-43.058594 34.941407-77.953126 78-78h20.742188c14.28125.074218 27.703125 6.828124 36.277343 18.25 5.945313-2.78125 12.433594-4.230469 19-4.238282 25.058594.027344 45.371094 20.335938 45.398438 45.398438v53.105468c0 2.765626-2.238281 5-5 5zm-20.019531-18.285156c5.21875.0625 10.355469 1.3125 15.015625 3.660156v-43.480468c.066406-19.484375-15.675781-35.332032-35.15625-35.398438-6.449219-.019531-12.777344 1.726563-18.300781 5.046875-2.367188 1.421875-5.441407.65625-6.859375-1.714843h-.003906c-6.390626-10.6875-17.898438-17.261719-30.355469-17.34375h-20.742188c-37.539062.042968-67.957031 30.464843-68 68v23.9375c4.175781-1.765626 8.65625-2.6875 13.191407-2.707032 1.09375-4.640625 5.695312-7.5625 10.359374-6.574218 13.707032 2.863281 48.136719 6.328124 71.800782-23.4375 3.015625-3.8125 8.546875-4.460938 12.359375-1.449219.25.199219.488281.410156.71875.632812 4.902343 4.800781 19.347656 16.085938 47.449219 16.910157 4.679687.140624 8.421874 3.933593 8.503906 8.613281zm0 0"/><path d="m252.917969 348.144531c-1.328125-.007812-2.601563-.535156-3.542969-1.476562-.226562-.230469-.433594-.476563-.621094-.742188-.179687-.277343-.332031-.570312-.457031-.878906-.125-.296875-.21875-.605469-.28125-.921875-.0625-.324219-.097656-.652344-.101563-.976562.003907-.328126.035157-.65625.101563-.980469.125-.644531.375-1.253907.738281-1.800781.363282-.546876.832032-1.015626 1.382813-1.378907 1.984375-1.3125 4.625-1.054687 6.316406.621094.230469.238281.4375.492187.621094.761719.542969.824218.835937 1.792968.839843 2.78125-.003906.328125-.035156.65625-.097656.976562-.066406.316406-.160156.625-.28125.921875-.125.304688-.28125.601563-.460937.878907-.183594.269531-.398438.519531-.640625.742187-.226563.234375-.476563.445313-.738282.636719-.28125.171875-.578124.324218-.878906.460937-.296875.121094-.605468.214844-.917968.277344-.324219.0625-.652344.09375-.980469.097656zm0 0"/><path d="m252.917969 379.644531c-1.324219-.007812-2.59375-.53125-3.542969-1.457031-.226562-.234375-.433594-.492188-.621094-.761719-.179687-.269531-.332031-.558593-.457031-.859375-.125-.304687-.21875-.621094-.28125-.941406-.132813-.644531-.132813-1.3125 0-1.957031.0625-.316407.15625-.625.28125-.921875.121094-.308594.273437-.605469.457031-.878906.191406-.269532.398438-.519532.621094-.761719 1.996094-1.851563 5.085938-1.851563 7.082031 0 .222657.242187.429688.496093.621094.761719.183594.273437.335937.570312.457031.878906.125.296875.21875.605468.28125.921875.132813.644531.132813 1.3125 0 1.957031-.0625.320312-.15625.636719-.28125.941406-.125.300782-.277344.589844-.457031.859375-.183594.269531-.394531.523438-.621094.761719-.238281.222656-.492187.429688-.761719.617188-.273437.183593-.558593.335937-.859374.460937-.304688.121094-.621094.214844-.941407.28125-.320312.070313-.648437.105469-.976562.097656zm0 0"/><path d="m252.917969 411.167969c-1.332031-.007813-2.601563-.539063-3.542969-1.480469-.230469-.230469-.441406-.488281-.621094-.761719-.183594-.269531-.335937-.558593-.457031-.859375-.121094-.300781-.214844-.609375-.28125-.921875-.074219-.320312-.105469-.648437-.101563-.976562-.007812-.332031.027344-.660157.101563-.980469.0625-.324219.15625-.636719.28125-.941406.121094-.304688.273437-.589844.457031-.863282.179688-.273437.390625-.527343.621094-.757812.230469-.234375.484375-.441406.761719-.621094.269531-.179687.558593-.335937.859375-.460937.304687-.121094.617187-.214844.941406-.277344 1.640625-.328125 3.332031.183594 4.519531 1.359375.234375.230469.441407.484375.621094.757812.183594.273438.339844.558594.460937.863282.246094.609375.375 1.261718.378907 1.921875-.003907.328125-.039063.65625-.101563.976562-.066406.3125-.160156.621094-.28125.921875-.128906.296875-.28125.585938-.457031.859375-.179687.273438-.390625.527344-.621094.761719-.238281.230469-.492187.441406-.761719.636719-.273437.175781-.558593.324219-.859374.441406-.300782.136719-.617188.238281-.941407.300781-.320312.0625-.648437.097656-.976562.101563zm0 0"/><path d="m252.917969 442.667969c-.332031.003906-.660157-.03125-.980469-.101563-.324219-.0625-.636719-.15625-.941406-.28125-.300782-.125-.589844-.277344-.859375-.460937-.273438-.183594-.527344-.390625-.761719-.621094-.226562-.234375-.433594-.488281-.621094-.757813-.363281-.542968-.613281-1.15625-.738281-1.800781-.132813-.644531-.132813-1.3125 0-1.957031.0625-.316406.15625-.625.28125-.921875.121094-.308594.273437-.601563.457031-.878906.191406-.269531.398438-.519531.621094-.761719.234375-.226562.488281-.433594.761719-.617188.269531-.179687.558593-.335937.859375-.460937.304687-.125.617187-.21875.941406-.28125.644531-.140625 1.3125-.140625 1.960938 0 .320312.066406.632812.160156.9375.28125.300781.125.589843.277344.859374.460937.269532.1875.523438.394532.761719.617188.222657.242188.433594.496094.621094.761719.175781.28125.332031.574219.460937.878906.121094.296875.214844.605469.28125.921875.128907.644531.128907 1.3125 0 1.957031-.066406.320313-.160156.636719-.28125.941407-.132812.296874-.289062.585937-.460937.859374-.183594.269532-.390625.523438-.621094.761719-.941406.929688-2.214843 1.457031-3.539062 1.460938zm0 0"/><path d="m252.917969 474.167969c-.328125 0-.65625-.027344-.980469-.082031-.324219-.070313-.636719-.167969-.941406-.300782-.296875-.125-.582032-.269531-.859375-.4375-.269531-.191406-.527344-.40625-.761719-.640625-.230469-.230469-.441406-.488281-.621094-.761719-.183594-.265624-.335937-.558593-.457031-.859374-.121094-.296876-.214844-.605469-.28125-.917969-.0625-.324219-.09375-.652344-.101563-.980469.003907-1.328125.527344-2.597656 1.460938-3.542969.230469-.234375.484375-.441406.761719-.621093.269531-.179688.558593-.332032.859375-.457032.304687-.128906.617187-.230468.9375-.300781 1.644531-.308594 3.332031.203125 4.523437 1.378906.230469.230469.441407.484375.621094.761719.183594.269531.335937.554688.457031.859375.125.304687.21875.617187.28125.941406.066406.320313.097656.648438.101563.980469-.003907.652344-.132813 1.296875-.378907 1.898438-.121093.300781-.277343.589843-.460937.859374-.179687.28125-.394531.535157-.640625.761719-.929688.941407-2.199219 1.464844-3.519531 1.460938zm0 0"/><path d="m343.664062 511.996094c-2.761718 0-5-2.238282-5-5v-118.328125c0-2.761719 2.238282-5 5-5 2.761719 0 5 2.238281 5 5v118.328125c0 2.761718-2.238281 5-5 5zm0 0"/><path d="m162.167969 511.996094c-2.761719 0-5-2.238282-5-5v-67.660156c0-2.761719 2.238281-5 5-5s5 2.238281 5 5v67.660156c0 2.761718-2.238281 5-5 5zm0 0"/><path d="m264.238281 317.023438h-23.703125c-4.625-.003907-8.816406-2.714844-10.71875-6.929688l-14.03125-31.144531c-.289062-.644531-.441406-1.34375-.441406-2.050781v-26.175782c0-2.761718 2.242188-5 5.003906-5 .777344 0 1.546875.183594 2.242188.535156 9.085937 4.59375 19.128906 6.980469 29.308594 6.960938 10.902343-.007812 21.632812-2.738281 31.214843-7.945312 2.421875-1.328126 5.460938-.4375 6.785157 1.984374.40625.742188.617187 1.570313.613281 2.414063v27.226563c0 .753906-.171875 1.5-.5 2.179687l-15.179688 31.320313c-1.980469 4.042968-6.085937 6.613281-10.59375 6.625zm-38.902343-41.199219 13.597656 30.171875c.285156.628906.910156 1.035156 1.601562 1.035156h23.710938c.675781-.003906 1.289062-.394531 1.582031-1l14.675781-30.285156v-18.179688c-9.074218 3.722656-18.789062 5.640625-28.597656 5.648438-9.074219.019531-18.070312-1.621094-26.554688-4.839844zm0 0"/><path d="m252.917969 223.949219c-10.753907.003906-20.808594-5.339844-26.820313-14.257813-1.542968-2.289062-.945312-5.398437 1.34375-6.945312 2.289063-1.546875 5.394532-.945313 6.945313 1.34375 6.902343 10.238281 20.792969 12.9375 31.03125 6.035156 2.378906-1.605469 4.425781-3.65625 6.03125-6.035156 1.546875-2.289063 4.65625-2.890625 6.945312-1.34375 2.289063 1.546875 2.890625 4.65625 1.34375 6.945312-6.011719 8.917969-16.066406 14.261719-26.820312 14.257813zm0 0"/><path d="m225.957031 168.125c-.328125-.003906-.65625-.035156-.976562-.101562-.324219-.0625-.636719-.15625-.941407-.277344-.300781-.128906-.589843-.28125-.863281-.460938-.269531-.183594-.523437-.394531-.757812-.621094-.933594-.945312-1.453125-2.214843-1.460938-3.542968 0-1.324219.523438-2.597656 1.460938-3.539063.230469-.234375.484375-.441406.757812-.621093.273438-.179688.5625-.335938.863281-.457032 1.871094-.765625 4.019532-.339844 5.457032 1.078125 1.957031 1.949219 1.960937 5.117188.007812 7.074219-.9375.941406-2.21875 1.46875-3.546875 1.464844zm0 0"/><path d="m279.878906 168.125c-2.761718.007812-5.007812-2.226562-5.011718-4.988281-.003907-1.332031.527343-2.613281 1.46875-3.550781.238281-.226563.492187-.433594.757812-.625.273438-.179688.5625-.332032.863281-.457032.304688-.121094.617188-.214844.941407-.28125.644531-.136718 1.308593-.136718 1.957031 0 .644531.125 1.253906.375 1.800781.738282.269531.1875.523438.394531.757812.625.929688.945312 1.453126 2.214843 1.460938 3.539062.007812.328125-.027344.65625-.101562.980469-.0625.320312-.15625.636719-.28125.9375s-.277344.589843-.457032.863281c-.1875.269531-.394531.523438-.621094.761719-.238281.226562-.492187.433593-.761718.617187-.542969.367188-1.15625.621094-1.800782.742188-.320312.0625-.648437.09375-.972656.097656zm0 0"/><path d="m296.515625 342.238281c-3.347656.003907-6.515625-1.523437-8.597656-4.144531l-21.5-26.746094c-1.210938-1.503906-1.441407-3.574218-.597657-5.3125l15.179688-31.320312c1.203125-2.480469 4.195312-3.519532 6.679688-2.3125.007812.003906.019531.007812.027343.011718l33.042969 16.292969c2.351562 1.15625 3.40625 3.9375 2.421875 6.367188l-16.339844 40.246093c-1.460937 3.652344-4.761719 6.25-8.660156 6.800782-.546875.078125-1.101563.117187-1.65625.117187zm-20.320313-34.691406 19.519532 24.28125c.375.464844 1.054687.542969 1.523437.167969.144531-.117188.257813-.269532.328125-.441406l14.589844-35.941407-24.351562-12zm0 0"/><path d="m209.316406 342.238281c-.550781-.003906-1.101562-.042969-1.652344-.125-3.894531-.550781-7.199218-3.144531-8.660156-6.796875l-16.339844-40.25c-.984374-2.429687.070313-5.207031 2.421876-6.367187l33.039062-16.289063c2.476562-1.222656 5.476562-.203125 6.699219 2.273438.023437.050781.046875.101562.074219.15625l14.035156 31.15625c.042968.085937.089844.167968.140625.246094 1.195312 1.8125 1.085937 4.191406-.273438 5.882812l-20.886719 25.964844c-2.082031 2.621094-5.25 4.152344-8.597656 4.148437zm-15.636718-46.625 14.589843 35.941407c.222657.554687.855469.824218 1.410157.601562.171874-.070312.324218-.183594.441406-.328125l18.890625-23.5-11.105469-24.65625zm0 0"/><path d="m311.105469 411.160156h-29.796875c-2.761719 0-5-2.238281-5-5 0-2.761718 2.238281-5 5-5h29.796875c2.761719 0 5 2.238282 5 5 0 2.761719-2.238281 5-5 5zm0 0"/><path d="m75.113281 319.753906c-1.390625 0-2.773437-.183594-4.117187-.542968-8.429688-2.257813-13.429688-10.921876-11.175782-19.351563 1.085938-4.046875 3.734376-7.5 7.363282-9.59375l40.867187-23.589844c7.574219-4.328125 17.226563-1.691406 21.554688 5.882813 4.296875 7.527344 1.730469 17.113281-5.757813 21.480468l-40.859375 23.601563c-2.394531 1.386719-5.109375 2.117187-7.875 2.113281zm40.820313-45.199218c-1.015625.003906-2.011719.273437-2.886719.78125l-40.863281 23.589843c-2.773438 1.601563-3.722656 5.148438-2.121094 7.921875 1.601562 2.773438 5.144531 3.726563 7.921875 2.121094l40.859375-23.597656c2.773438-1.601563 3.726562-5.148438 2.125-7.921875-.765625-1.335938-2.035156-2.308594-3.523438-2.703125-.492187-.128906-1-.195313-1.511718-.191406zm0 0"/><path d="m52.417969 303.042969c-28.53125.144531-51.777344-22.871094-51.917969-51.40625-.050781-9.511719 2.53125-18.855469 7.453125-26.992188 2-3.453125 3.027344-7.382812 2.96875-11.375.023437-21.582031 17.539063-39.058593 39.121094-39.03125 6.828125.007813 13.535156 1.804688 19.457031 5.210938 3.421875 2.050781 7.339844 3.128906 11.332031 3.121093 28.550781-.566406 52.152344 22.117188 52.71875 50.667969.320313 16.109375-6.890625 31.449219-19.5 41.480469-.253906.207031-.53125.382812-.820312.53125l-.21875.113281-40.824219 23.5625-.222656.148438c-.257813.160156-.53125.296875-.8125.410156-5.964844 2.355469-12.320313 3.5625-18.734375 3.558594zm-2.421875-118.796875c-16.039063-.023438-29.054688 12.960937-29.074219 29v.035156c.054687 5.804688-1.464844 11.511719-4.402344 16.519531-11.914062 19.710938-5.59375 45.347657 14.117188 57.261719 10.980469 6.636719 24.402343 7.851562 36.398437 3.289062l.140625-.085937 40.875-23.597656.164063-.09375c17.84375-14.558594 20.511718-40.828125 5.953125-58.671875-8.105469-9.9375-20.328125-15.589844-33.144531-15.335938-5.800782.003906-11.496094-1.535156-16.511719-4.449218-4.417969-2.535157-9.421875-3.867188-14.515625-3.863282zm10.554687 82.265625c-13.273437.023437-24.054687-10.714844-24.078125-23.988281-.019531-8.605469 4.566406-16.5625 12.019532-20.863282l9.488281-5.476562c11.496093-6.640625 26.199219-2.699219 32.835937 8.796875 6.636719 11.496093 2.699219 26.199219-8.796875 32.835937l-9.484375 5.480469c-3.640625 2.109375-7.777344 3.214844-11.984375 3.214844zm9.425781-43.554688c-2.457031 0-4.875.652344-7 1.886719l-9.488281 5.476562c-6.714843 3.878907-9.015625 12.46875-5.136719 19.183594 3.882813 6.710938 12.46875 9.011719 19.183594 5.132813l9.488282-5.480469c6.714843-3.875 9.015624-12.460938 5.140624-19.171875-1.859374-3.226563-4.925781-5.578125-8.523437-6.542969-1.195313-.320312-2.425781-.484375-3.664063-.484375zm-9.496093-2.445312"/><path d="m97.976562 333.148438c-1.789062 0-3.441406-.953126-4.332031-2.5l-10.800781-18.707032c-1.378906-2.394531-.5625-5.449218 1.828125-6.832031l27.484375-15.867187c2.394531-1.382813 5.449219-.5625 6.832031 1.828124l10.796875 18.707032c1.382813 2.394531.5625 5.453125-1.828125 6.832031l-27.484375 15.867187c-.757812.441407-1.621094.671876-2.496094.671876zm-3.972656-21.875 5.800782 10.042968 18.824218-10.867187-5.800781-10.046875zm0 0"/><path d="m192.734375 481.347656c-7.46875.011719-14.371094-3.964844-18.109375-10.429687l-91.78125-158.976563c-1.378906-2.394531-.5625-5.449218 1.832031-6.832031l27.484375-15.867187c2.390625-1.382813 5.449219-.5625 6.828125 1.828124l91.785157 158.980469c5.765624 9.976563 2.351562 22.734375-7.625 28.496094-3.164063 1.828125-6.753907 2.796875-10.410157 2.800781zm-9.449219-15.429687c3 5.199219 9.648438 6.980469 14.847656 3.980469 5.195313-3.003907 6.976563-9.648438 3.976563-14.847657l-89.28125-154.652343-18.824219 10.867187zm0 0"/><path d="m204.84375 454.769531c-1.789062 0-3.441406-.953125-4.335938-2.5l-10.800781-18.707031c-1.378906-2.390625-.558593-5.449219 1.832031-6.828125l26.121094-15.082031c7.558594-4.367188 17.222656-1.777344 21.585938 5.78125 4.363281 7.558594 1.773437 17.222656-5.785156 21.585937l-26.121094 15.078125c-.757813.441406-1.621094.671875-2.496094.671875zm-3.976562-21.875 5.800781 10.042969 21.800781-12.578125c2.773438-1.601563 3.722656-5.148437 2.125-7.925781-1.601562-2.773438-5.148438-3.722656-7.925781-2.121094zm0 0"/><path d="m194.039062 436.066406c-1.785156 0-3.4375-.957031-4.332031-2.5l-10.796875-18.710937c-1.382812-2.390625-.5625-5.449219 1.828125-6.828125l18.402344-10.625c7.554687-4.363282 17.21875-1.773438 21.582031 5.785156 4.363282 7.558594 1.773438 17.21875-5.785156 21.582031l-18.398438 10.628907c-.761718.4375-1.621093.667968-2.5.667968zm-3.96875-21.871094 5.796876 10.046876 14.074218-8.125c2.777344-1.601563 3.726563-5.148438 2.125-7.921876-1.601562-2.773437-5.148437-3.726562-7.921875-2.121093zm0 0"/><path d="m194.039062 436.066406c-1.785156 0-3.4375-.957031-4.332031-2.5l-10.796875-18.710937c-1.382812-2.390625-.5625-5.449219 1.828125-6.828125l18.402344-10.625c7.554687-4.363282 17.21875-1.773438 21.582031 5.785156 4.363282 7.558594 1.773438 17.21875-5.785156 21.582031l-18.398438 10.628907c-.761718.4375-1.621093.667968-2.5.667968zm-3.96875-21.871094 5.796876 10.046876 14.074218-8.125c2.777344-1.601563 3.726563-5.148438 2.125-7.921876-1.601562-2.773437-5.148437-3.726562-7.921875-2.121093zm0 0"/><path d="m384.667969 511.996094h-263.5c-12.980469.003906-23.5-10.519532-23.503907-23.5 0-.433594.011719-.867188.035157-1.300782l7.679687-137.84375c.152344-2.757812 2.515625-4.867187 5.269532-4.714843 1.683593.09375 3.207031 1.03125 4.050781 2.492187l68.589843 118.800782c3.003907 5.195312 9.648438 6.976562 14.851563 3.976562 5.195313-3 6.976563-9.648438 3.976563-14.847656l-1.601563-2.78125c-1.378906-2.394532-.5625-5.449219 1.832031-6.832032l26.121094-15.078124c2.773438-1.601563 3.722656-5.148438 2.125-7.925782-1.601562-2.773437-5.148438-3.722656-7.925781-2.121094l-7.714844 4.457032c-2.378906 1.398437-5.445313.597656-6.839844-1.785156-1.394531-2.382813-.597656-5.445313 1.785157-6.839844.019531-.015625.039062-.023438.058593-.035156 2.773438-1.601563 3.722657-5.148438 2.121094-7.921876-1.601563-2.773437-5.148437-3.726562-7.921875-2.121093l-18.398438 10.625c-2.394531 1.378906-5.449218.5625-6.832031-1.832031l-58.871093-101.945313c-1.347657-2.332031-.605469-5.3125 1.679687-6.738281 2.910156-1.824219 6.089844-3.183594 9.421875-4.023438l54.402344-13.695312 32.558594-16.054688c2.476562-1.21875 5.476562-.203125 6.699218 2.273438.023438.054687.046875.105468.074219.160156l14.042969 31.152344c.285156.628906.910156 1.03125 1.601562 1.03125h23.710938c.671875 0 1.285156-.386719 1.582031-.988282l15.175781-31.316406c1.207032-2.484375 4.195313-3.523437 6.679688-2.316406.011718.003906.019531.011719.03125.015625l32.5625 16.054687 54.398437 13.695313c13.992188 3.472656 24.070313 15.683594 24.824219 30.082031l8.636719 154.941406c.714843 12.960938-9.210938 24.050782-22.167969 24.765626-.4375.023437-.867188.035156-1.300781.035156zm-270.238281-145.34375-6.746094 121.089844c-.414063 7.445312 5.289062 13.820312 12.734375 14.234374.25.015626.5.019532.75.019532h263.5c7.453125.003906 13.5-6.042969 13.503906-13.496094 0-.25-.007813-.503906-.023437-.757812l-8.628907-154.945313c-.523437-10.023437-7.542969-18.523437-17.28125-20.9375l-54.921875-13.824219c-.347656-.085937-.679687-.207031-1-.363281l-28.527344-14.066406-12.972656 26.792969c-1.976562 4.039062-6.078125 6.609374-10.578125 6.625h-23.703125c-4.621094-.003907-8.816406-2.714844-10.71875-6.925782l-11.902344-26.425781-28.398437 14c-.320313.15625-.65625.277344-1 .363281l-54.921875 13.824219c-.75.1875-1.488281.414063-2.214844.679687l53.6875 92.988282 14.070313-8.128906c7.554687-4.367188 17.21875-1.777344 21.582031 5.78125 1.167969 2.019531 1.871094 4.273437 2.0625 6.59375 8.589844-1.527344 16.796875 4.191406 18.324219 12.785156 1.167969 6.550781-1.890625 13.128906-7.652344 16.453125l-21.859375 12.621093c4.890625 10.4375.394531 22.859376-10.042969 27.75-9.8125 4.597657-21.511719.917969-26.929687-8.46875zm0 0"/><path d="m49.667969 154.941406c-2.761719 0-5-2.238281-5-5v-21.398437c0-2.761719 2.238281-5 5-5s5 2.238281 5 5v21.398437c0 2.761719-2.238281 5-5 5zm0 0"/><path d="m24.75 165.265625c-1.328125 0-2.601562-.523437-3.535156-1.464844l-15.136719-15.132812c-1.917969-1.988281-1.863281-5.152344.125-7.070313 1.9375-1.875 5.011719-1.875 6.945313 0l15.132812 15.132813c1.953125 1.953125 1.957031 5.117187 0 7.070312-.9375.941407-2.207031 1.464844-3.53125 1.464844zm0 0"/><path d="m74.589844 165.265625c-2.761719 0-5-2.238281-5-5 0-1.328125.523437-2.597656 1.464844-3.535156l15.136718-15.132813c1.984375-1.917968 5.152344-1.863281 7.070313.121094 1.871093 1.9375 1.871093 5.011719 0 6.949219l-15.136719 15.128906c-.9375.941406-2.207031 1.46875-3.535156 1.46875zm0 0"/></g><path d="m402.835938 33.980469c-8.886719-1.703125-15.835938-8.652344-17.539063-17.542969-.054687-.214844-.269531-.347656-.484375-.296875-.144531.039063-.257812.152344-.296875.296875-1.703125 8.890625-8.652344 15.839844-17.539063 17.542969-.214843.050781-.351562.269531-.296874.480469.035156.148437.148437.261718.296874.296874 8.886719 1.703126 15.835938 8.65625 17.539063 17.542969.054687.214844.269531.347657.484375.296875.144531-.035156.257812-.152344.296875-.296875 1.703125-8.886719 8.652344-15.839843 17.539063-17.542969.214843-.050781.347656-.265624.296874-.480468-.035156-.148438-.148437-.261719-.296874-.296875zm0 0" fill="#f75c64"/><path d="m90.828125 76.996094h-17.34375c-2.753906-.171875-4.847656-2.550782-4.671875-5.304688.160156-2.511718 2.160156-4.515625 4.671875-4.675781h17.347656c2.753907-.171875 5.132813 1.917969 5.304688 4.675781.175781 2.753906-1.917969 5.132813-4.671875 5.304688-.210938.015625-.425782.015625-.636719 0zm0 0" fill="#fcd770"/><path d="m82.15625 85.667969c-2.761719 0-5-2.238281-5-5v-17.335938c.175781-2.757812 2.550781-4.847656 5.308594-4.675781 2.511718.160156 4.511718 2.164062 4.671875 4.675781v17.34375c-.003907 2.75-2.230469 4.980469-4.980469 4.992188zm0 0" fill="#fcd770"/><path d="m24.75 108.570312c-1.324219 0-2.59375-.527343-3.53125-1.457031-.230469-.234375-.441406-.488281-.621094-.757812-.179687-.273438-.332031-.566407-.457031-.867188s-.21875-.613281-.28125-.929687c-.070313-.320313-.101563-.648438-.101563-.976563s.03125-.65625.101563-.980469c.0625-.316406.15625-.628906.28125-.925781.125-.304687.277344-.59375.457031-.871093.179688-.269532.390625-.523438.621094-.757813 1.433594-1.414063 3.570312-1.835937 5.4375-1.078125.296875.128906.585938.285156.855469.460938.273437.179687.527343.386718.757812.617187.230469.234375.4375.488281.621094.757813.179687.277343.332031.566406.457031.871093.128906.296875.226563.609375.292969.925781.0625.324219.09375.652344.097656.980469-.003906.328125-.035156.65625-.097656.976563-.066406.316406-.164063.628906-.292969.929687-.125.300781-.277344.59375-.457031.867188-.183594.269531-.390625.523437-.621094.757812-.230469.230469-.484375.4375-.757812.617188-.269531.179687-.558594.332031-.855469.460937-.304688.125-.621094.21875-.9375.277344-.320312.070312-.644531.105469-.96875.101562zm0 0" fill="#60bae2"/><path d="m322.609375 9.972656c-1.324219-.003906-2.59375-.527344-3.53125-1.457031-.230469-.234375-.4375-.488281-.621094-.757813-.179687-.273437-.332031-.566406-.457031-.871093-.125-.296875-.21875-.609375-.28125-.925781-.066406-.324219-.101562-.648438-.101562-.976563s.035156-.65625.101562-.980469c.0625-.316406.15625-.628906.28125-.925781.125-.304687.277344-.59375.457031-.871094.183594-.269531.390625-.523437.621094-.757812 1.433594-1.4140628 3.570313-1.835938 5.4375-1.078125.300781.128906.585937.285156.855469.460937.277344.179688.53125.386719.761718.617188.226563.234375.4375.488281.617188.757812.179688.277344.332031.566407.457031.871094.128907.296875.226563.609375.292969.925781.0625.324219.09375.652344.097656.980469-.003906.328125-.035156.652344-.097656.976563-.066406.316406-.164062.628906-.292969.925781-.125.304687-.277343.597656-.457031.871093-.179688.269532-.390625.523438-.617188.757813-.230468.230469-.484374.4375-.761718.617187-.269532.179688-.554688.332032-.855469.460938-.300781.121094-.617187.21875-.9375.277344-.320313.070312-.644531.101562-.96875.101562zm0 0" fill="#60bae2"/><path d="m67.035156 378.765625c-1.324218-.003906-2.59375-.527344-3.53125-1.460937-.230468-.230469-.4375-.484376-.617187-.757813-.183594-.273437-.335938-.5625-.460938-.867187-.125-.300782-.21875-.609376-.28125-.925782-.066406-.324218-.101562-.652344-.097656-.980468-.003906-.328126.03125-.65625.097656-.976563.0625-.316406.15625-.628906.28125-.929687.125-.300782.277344-.59375.460938-.867188.179687-.269531.386719-.527344.617187-.757812 1.433594-1.414063 3.570313-1.835938 5.4375-1.078126.300782.128907.585938.28125.859375.460938.273438.175781.527344.386719.757813.617188.226562.230468.4375.488281.617187.757812.179688.273438.332031.566406.460938.867188.125.300781.222656.613281.289062.929687.0625.320313.09375.648437.097657.976563-.003907.328124-.035157.65625-.097657.980468-.066406.316406-.164062.625-.289062.925782-.128907.304687-.28125.59375-.460938.867187-.179687.273437-.390625.527344-.617187.757813-.230469.234374-.484375.441406-.757813.621093-.273437.175781-.558593.332031-.859375.457031-.300781.125-.617187.21875-.9375.28125-.320312.070313-.644531.101563-.96875.101563zm0 0" fill="#60bae2"/></svg>