<?xml version="1.0"?>
<svg xmlns="http://www.w3.org/2000/svg" height="512px" viewBox="0 0 384 384.00001" width="512px" class=""><g transform="matrix(0.9998 -2.44880e-16 2.44880e-16 0.9998 0.038398 0.038398)"><path d="m279.992188 165.121094-40 40.957031 9.441406 57.921875-49.441406-27.359375-49.4375 27.359375 9.4375-57.921875-40-40.957031 55.28125-8.480469 24.71875-52.640625 24.722656 52.640625zm0 0" fill="#ff7043" data-original="#FF7043" class="" style="fill:#FFFFFF" data-old_color="#ffffff"/><path d="m367.992188 176c0 1.28125 0 2.640625-.078126 3.921875.078126 1.359375.078126 2.71875.078126 4.078125 0 92.800781-75.199219 168-168 168-32.480469 0-62.71875-9.199219-88.398438-25.199219l-72.960938 39.757813c-13.441406 6-27.199218-7.757813-21.199218-21.199219l39.757812-72.960937c-16-25.679688-25.199218-55.917969-25.199218-88.398438 0-92.800781 75.199218-168 168-168 1.199218 0 2.480468 0 3.679687.078125h.402344c1.277343-.078125 2.640625-.078125 3.917969-.078125 88.402343 0 160 71.601562 160 160zm-128 30.078125 40-40.957031-55.277344-8.480469-24.722656-52.640625-24.71875 52.640625-55.28125 8.480469 40 40.957031-9.4375 57.921875 49.4375-27.359375 49.441406 27.359375zm0 0" fill="#4dd0e1" data-original="#4DD0E1" class="active-path" style="fill:#F7CF06" data-old_color="#D8B404"/><g fill="#012e52"><path d="m207.992188 0c-1.304688 0-2.664063.03125-3.992188.0898438-1.328125-.0664063-2.695312-.0898438-4.007812-.0898438-101.464844 0-184 82.535156-184 184 0 31.160156 7.9375 61.566406 22.871093 88.601562l-35.476562 65.101563c-.203125.367187-.394531.753906-.5625 1.136719-5.464844 12.222656-2.8632815 26.25 6.609375 35.726562 6.175781 6.175782 14.296875 9.441406 22.582031 9.433594 4.417969 0 8.890625-.921875 13.144531-2.824219.382813-.167969.769532-.359375 1.136719-.558593l65.105469-35.480469c27.023437 14.925781 57.429687 22.863281 88.589844 22.863281 101.464843 0 184-82.535156 184-184 0-1.390625-.03125-2.792969-.085938-4.191406.054688-1.265625.085938-2.5625.085938-3.808594 0-97.046875-78.953126-176-176-176zm-8 336c-28.375 0-56.015626-7.871094-79.933594-22.785156-.160156-.101563-.335938-.152344-.496094-.246094-.53125-.304688-1.074219-.5625-1.632812-.800781-.425782-.183594-.847657-.367188-1.28125-.511719-.527344-.175781-1.070313-.304688-1.617188-.425781-.460938-.101563-.925781-.207031-1.398438-.269531-.550781-.074219-1.105468-.089844-1.65625-.097657-.472656-.007812-.925781-.023437-1.398437 0-.554687.03125-1.105469.128907-1.65625.226563-.480469.078125-.953125.15625-1.425781.285156-.496094.128906-.976563.304688-1.457032.488281-.527343.199219-1.046874.410157-1.558593.65625-.175781.089844-.367188.136719-.542969.234375l-71.855469 39.167969 39.167969-71.859375c.09375-.175781.136719-.359375.222656-.535156.257813-.519532.472656-1.039063.664063-1.582032.175781-.472656.34375-.9375.480469-1.417968.128906-.488282.214843-.984375.296874-1.480469.085938-.527344.175782-1.054687.207032-1.582031.03125-.496094.015625-.984375 0-1.480469-.015625-.527344-.023438-1.054687-.097656-1.578125-.0625-.496094-.175782-.992188-.285157-1.476562-.121093-.523438-.234375-1.035157-.402343-1.539063-.152344-.453125-.34375-.894531-.542969-1.351563-.230469-.535156-.480469-1.054687-.769531-1.558593-.09375-.167969-.152344-.351563-.253907-.519531-14.90625-23.945313-22.777343-51.585938-22.777343-79.960938 0-83.816406 68.183593-152 152-152 .871093.007812 1.792968-.007812 2.640624.046875.34375.023437 1.097657.03125 1.441407.03125.160156 0 .300781-.039063.453125-.046875.175781-.007812.34375.023438.523437.015625.964844-.054687 1.988281-.039063 2.941407-.046875 79.402343 0 144 64.601562 144 144 0 .960938.007812 1.984375-.046876 2.945312-.015624.300782.039063.589844.03125.894532 0 .335937-.0625.664062-.039062 1 .0625 1.046875.054688 2.105468.054688 3.160156 0 83.816406-68.183594 152-152 152zm0 0" data-original="#000000" class="" style="fill:#FFFFFF" data-old_color="#ffffff"/><path d="m282.417969 149.304688-46.839844-7.183594-21.097656-44.914063c-2.648438-5.621093-8.289063-9.207031-14.488281-9.207031-6.199219 0-11.839844 3.585938-14.488282 9.199219l-21.09375 44.914062-46.839844 7.183594c-5.929687.902344-10.847656 5.054687-12.753906 10.742187-1.902344 5.6875-.472656 11.960938 3.726563 16.25l34.355469 35.175782-8.136719 49.949218c-.984375 6.050782 1.566406 12.128907 6.574219 15.65625 5.015624 3.523438 11.601562 3.867188 16.960937.914063l41.695313-23.054687 41.6875 23.070312c2.425781 1.335938 5.089843 2 7.753906 2 3.230468 0 6.464844-.984375 9.207031-2.910156 5.007813-3.53125 7.558594-9.609375 6.578125-15.65625l-8.136719-49.953125 34.351563-35.175781c4.191406-4.289063 5.632812-10.5625 3.726562-16.25-1.894531-5.695313-6.816406-9.847657-12.742187-10.75zm-53.875 45.589843c-3.550781 3.632813-5.167969 8.746094-4.34375 13.753907l4.136719 25.390624-20.589844-11.398437c-2.417969-1.335937-5.082032-2-7.753906-2-2.671876 0-5.335938.664063-7.75 2l-20.59375 11.398437 4.136718-25.390624c.824219-5.007813-.792968-10.121094-4.34375-13.753907l-18.242187-18.6875 24.503906-3.757812c5.273437-.808594 9.800781-4.183594 12.066406-9.015625l10.222657-21.792969 10.234374 21.800781c2.261719 4.832032 6.789063 8.207032 12.0625 9.015625l24.503907 3.757813zm0 0" data-original="#000000" class="" style="fill:#FFFFFF" data-old_color="#ffffff"/></g></g> </svg>
