<svg xmlns="http://www.w3.org/2000/svg" width="22.604" height="20.068" viewBox="0 0 22.604 20.068">
  <g id="telescope" transform="translate(0 -12.253)">
    <g id="group-163svg" transform="translate(0 12.253)">
      <path id="path-1_71_" d="M52.678,40.976c.3,0,.541-.1.541-.23s-.242-.23-.541-.23H51.019c-.3,0-.541.1-.541.23s.242.23.541.23Z" transform="translate(-45.252 -37.589)" fill="#fbb713"/>
      <path id="path-2_71_" d="M18.351,14.033h.261a.122.122,0,0,1,0,.236H18.6a.122.122,0,0,0,0,.236h.561a.122.122,0,0,1,0,.236H17.108a.122.122,0,0,1,0-.236h.156a.122.122,0,0,0,0-.236h-.741a.122.122,0,0,1,0-.236h1.828Z" transform="translate(-14.731 -13.849)" fill="#fbb713"/>
      <path id="path-3_71_" d="M167.214,198.51h.289a.135.135,0,0,1,0,.261h-.013a.135.135,0,0,0,0,.261h.621a.135.135,0,0,1,0,.261h-2.272a.135.135,0,0,1,0-.261h.172a.135.135,0,0,0,0-.261h-.82a.135.135,0,0,1,0-.261h2.024Z" transform="translate(-147.997 -179.226)" fill="#fbb713"/>
      <path id="path-4_71_" d="M1.078,21.01c.108,0,.2-.064.2-.142s-.087-.143-.2-.143H.48c-.108,0-.2.064-.2.143s.087.142.2.142Z" transform="translate(-0.255 -19.848)" fill="#fbb713"/>
      <path id="path-5_71_" d="M1.775,110.855H1.261c-.1,0-.18.126-.18.281s.08.281.18.281h.024c.1,0,.179.126.179.281s-.08.281-.179.281H.18c-.1,0-.18.126-.18.281s.08.281.18.281H4.223c.1,0,.18-.126.18-.281s-.08-.281-.18-.281H3.917c-.1,0-.18-.126-.18-.281s.08-.281.18-.281h1.46c.1,0,.18-.126.18-.281s-.08-.281-.18-.281h-3.6Z" transform="translate(0 -100.646)" fill="#fbb713"/>
      <path id="path-6_70_" d="M50.06,123.894a.2.2,0,1,1,0-.392h.681a.2.2,0,1,1,0,.392Z" transform="translate(-44.678 -111.984)" fill="#fbb713"/>
      <path id="path-7_70_" d="M120.43,68.121h1.009a.331.331,0,1,1,0,.661h-.047a.331.331,0,1,0,0,.661h2.17a.331.331,0,1,1,0,.661h-7.936a.331.331,0,1,1,0-.661h.6a.331.331,0,1,0,0-.661h-2.866a.331.331,0,1,1,0-.661h7.068Z" transform="translate(-101.309 -62.337)" fill="#fbb713"/>
      <path id="path-8_67_" d="M104.065,16.778l-.749-3.09-.052-.58a1.76,1.76,0,0,0-1.772-.856,1.79,1.79,0,0,0-1.773.856l-.1.555-.75,3.14Z" transform="translate(-88.632 -12.253)" fill="#ff3a2f"/>
      <path id="path-9_64_" d="M103.315,14.318l-.052-.579a1.427,1.427,0,0,0-1.053-.783l.026.294.356,1.468a1.324,1.324,0,0,1-1.29,1.63l-2.278.429-.157.656,5.2-.025Z" transform="translate(-88.632 -12.883)" fill="#020403" opacity="0.35"/>
      <path id="path-10_59_" d="M77.206,54.98a5.326,5.326,0,0,1,5.2,3.259l-1.419-5.89-.017-.3c-.695-1.578-2.19-1.977-3.806-1.977s-3.066.416-3.806,1.977v.3l-1.613,6.524A5.759,5.759,0,0,1,77.206,54.98Z" transform="translate(-64.317 -46.155)" fill="#142a3b"/>
      <path id="path-11_51_" d="M80.987,57.236l-.017-.3a2.974,2.974,0,0,0-1.237-1.412l.776,3.223a.46.46,0,0,1-.675.506c-1.922-1.118-5.724-.126-7.28,1.232l-.81,3.277a5.759,5.759,0,0,1,5.461-3.892,5.326,5.326,0,0,1,5.2,3.259Z" transform="translate(-64.317 -51.042)" fill="#020403" opacity="0.35"/>
      <path id="path-12_42_" d="M80.341,100.285a5.765,5.765,0,1,1-5.765-5.711A5.738,5.738,0,0,1,80.341,100.285Z" transform="translate(-61.688 -86.051)" fill="#2476ff"/>
      <path id="path-13_35_" d="M96.127,117.964a3.7,3.7,0,1,1-3.7-3.669A3.686,3.686,0,0,1,96.127,117.964Z" transform="translate(-79.534 -103.73)" fill="#ededed"/>
      <path id="path-14_29_" d="M89.025,118.569a3.707,3.707,0,0,1,6.848-1.93,3.707,3.707,0,0,0-7.154,1.326,3.621,3.621,0,0,0,.558,1.931A3.623,3.623,0,0,1,89.025,118.569Z" transform="translate(-79.534 -103.731)" fill="#020403" opacity="0.25"/>
    </g>
  </g>
</svg>
